<svg xmlns="http://www.w3.org/2000/svg" version="1.1" xmlns:xlink="http://www.w3.org/1999/xlink" xmlns:svgjs="http://svgjs.com/svgjs" width="1440" height="560" preserveAspectRatio="none" viewBox="0 0 1440 560"><g mask="url(&quot;#SvgjsMask1037&quot;)" fill="none"><path d="M1488 560L0 560 L0 192.85Q31.69 152.54, 72 184.23Q172.41 164.63, 192 265.04Q210.44 211.49, 264 229.93Q294.53 188.46, 336 218.99Q319.99 130.98, 408 114.97Q491.4 78.37, 528 161.77Q583.45 145.22, 600 200.67Q603.5 132.16, 672 135.66Q702.44 94.1, 744 124.55Q791.29 99.84, 816 147.13Q918.74 129.87, 936 232.6Q987.53 212.13, 1008 263.67Q1021.63 157.31, 1128 170.94Q1176.85 99.79, 1248 148.64Q1345.65 126.29, 1368 223.94Q1400.16 136.11, 1488 168.27z" fill="rgba(24, 47, 93, 0.56)"></path><path d="M1512 560L0 560 L0 347.22Q-4.13 271.09, 72 266.96Q100.38 223.34, 144 251.73Q229.65 217.38, 264 303.04Q286.73 253.77, 336 276.51Q377.84 198.35, 456 240.18Q486.96 199.14, 528 230.1Q599.5 181.59, 648 253.09Q733.49 266.57, 720 352.06Q763.63 323.69, 792 367.31Q813.96 269.27, 912 291.23Q915.06 222.29, 984 225.34Q1026.99 196.33, 1056 239.32Q1124.22 235.54, 1128 303.76Q1184.35 288.11, 1200 344.46Q1244.88 317.34, 1272 362.22Q1275.54 245.76, 1392 249.3Q1444.05 181.34, 1512 233.39z" fill="rgba(37, 70, 125, 0.5)"></path><path d="M1512 560L0 560 L0 455.4Q6.3 341.7, 120 348Q186.9 294.9, 240 361.81Q302.92 352.73, 312 415.65Q336.62 320.27, 432 344.89Q505.44 298.32, 552 371.76Q665.68 365.44, 672 479.13Q694.75 429.88, 744 452.63Q757.07 345.7, 864 358.78Q912.73 287.51, 984 336.24Q1061.18 293.43, 1104 370.61Q1185.18 379.79, 1176 460.97Q1154.2 367.17, 1248 345.37Q1284.06 309.43, 1320 345.49Q1368.14 321.63, 1392 369.77Q1485.7 343.47, 1512 437.16z" fill="rgba(53, 108, 177, 0.53)"></path><path d="M1512 560L0 560 L0 553.49Q80.75 514.24, 120 594.98Q129.72 484.7, 240 494.41Q308.37 442.78, 360 511.15Q372.18 451.32, 432 463.5Q474.82 434.32, 504 477.14Q577.84 430.98, 624 504.81Q692.98 453.79, 744 522.77Q778.63 437.39, 864 472.02Q914.96 402.98, 984 453.94Q1045.85 443.79, 1056 505.64Q1155.47 485.12, 1176 584.59Q1203.22 539.81, 1248 567.03Q1233.38 480.41, 1320 465.8Q1374.03 399.83, 1440 453.86Q1487.53 429.39, 1512 476.92z" fill="rgba(255, 255, 255, 0.31)"></path></g><defs><mask id="SvgjsMask1037"><rect width="1440" height="560" fill="#ffffff"></rect></mask></defs></svg>