<svg xmlns="http://www.w3.org/2000/svg" version="1.1" xmlns:xlink="http://www.w3.org/1999/xlink" xmlns:svgjs="http://svgjs.com/svgjs" width="1440" height="560" preserveAspectRatio="none" viewBox="0 0 1440 560"><g mask="url(&quot;#SvgjsMask1029&quot;)" fill="none"><path d="M1464 560L0 560 L0 157.07Q26.69 111.75, 72 138.44Q125.62 120.06, 144 173.67Q186.37 144.03, 216 186.4Q293.01 143.41, 336 220.42Q389.88 202.3, 408 256.18Q455.67 183.85, 528 231.52Q544.47 175.99, 600 192.45Q608.25 128.69, 672 136.94Q713.36 106.3, 744 147.65Q797.43 129.08, 816 182.51Q882.14 176.65, 888 242.79Q917.16 199.95, 960 229.11Q988.24 137.35, 1080 165.58Q1163.49 129.07, 1200 212.56Q1241.41 181.97, 1272 223.38Q1286.88 166.25, 1344 181.13Q1379.06 96.19, 1464 131.25z" fill="#182f5d"></path><path d="M1488 560L0 560 L0 336.56Q28.28 292.84, 72 321.12Q124.22 301.34, 144 353.55Q189.77 327.32, 216 373.09Q233.56 318.65, 288 336.21Q341.91 270.12, 408 324.03Q495.84 291.87, 528 379.71Q551.02 330.73, 600 353.75Q604.05 237.81, 720 241.86Q747.35 197.21, 792 224.55Q844.9 205.45, 864 258.35Q918.85 193.2, 984 248.05Q1082.32 226.37, 1104 324.69Q1132.04 280.73, 1176 308.77Q1219 231.77, 1296 274.77Q1319.96 226.73, 1368 250.69Q1448.38 211.06, 1488 291.44z" fill="#25467d"></path><path d="M1464 560L0 560 L0 342.87Q62.71 285.58, 120 348.29Q230.54 338.83, 240 449.36Q287.23 376.59, 360 423.81Q387.21 331.02, 480 358.24Q533.79 292.03, 600 345.82Q652.39 326.22, 672 378.61Q721.78 356.39, 744 406.17Q796.22 386.39, 816 438.62Q861.67 412.29, 888 457.96Q916.77 366.73, 1008 395.49Q1021.92 337.41, 1080 351.34Q1147.02 298.36, 1200 365.38Q1302.18 347.56, 1320 449.74Q1339.42 397.16, 1392 416.58Q1388.99 341.57, 1464 338.57z" fill="#356cb1"></path><path d="M1536 560L0 560 L0 548.53Q49.07 477.6, 120 526.66Q161.19 447.85, 240 489.04Q283.84 412.88, 360 456.73Q420.97 445.7, 432 506.67Q508.07 462.74, 552 538.81Q555.77 470.58, 624 474.36Q675.38 405.74, 744 457.12Q806 447.13, 816 509.13Q911.08 484.21, 936 579.3Q936.31 459.61, 1056 459.91Q1116.21 400.13, 1176 460.34Q1280.88 445.23, 1296 550.11Q1325.38 459.49, 1416 488.86Q1490.99 443.85, 1536 518.83z" fill="white"></path></g><defs><mask id="SvgjsMask1029"><rect width="1440" height="560" fill="#ffffff"></rect></mask></defs></svg>