<svg xmlns="http://www.w3.org/2000/svg" version="1.1" xmlns:xlink="http://www.w3.org/1999/xlink" xmlns:svgjs="http://svgjs.com/svgjs" width="1440" height="560" preserveAspectRatio="none" viewBox="0 0 1440 560"><g mask="url(&quot;#SvgjsMask1003&quot;)" fill="none"><path d="M0 61.46C21.72 61.46 37.01 101.15 74.88 140C107.01 172.98 111.96 205.12 140 205.12C162.7 205.12 176.36 174.67 176.36 140C176.36 78.47 162.03 73.97 140 12.73C136.85 3.97 126 3.66 126 0C126 -2.71 133 0 140 0C210 0 210 0 280 0C350 0 350 0 420 0C490 0 490 0 560 0C630 0 630 0 700 0C723.34 0 724.41 -5.75 746.67 0C794.41 12.32 791.7 33.11 840 36.13C908.36 40.4 912.26 30.2 980 14.58C990.59 12.14 986.01 1.11 996.67 0C1056.01 -6.18 1058.34 0 1120 0C1190 0 1190 0 1260 0C1319.23 0 1319.82 -3.3 1378.46 0C1389.82 0.64 1389.59 7.89 1400 7.89C1407.03 7.89 1405.7 0.43 1413.33 0C1475.7 -3.52 1509.92 -33.25 1540 0C1573.25 36.75 1540 70 1540 140C1540 210 1540 210 1540 280C1540 350 1540 350 1540 420C1540 490 1575 525 1540 560C1505 595 1470 560 1400 560C1330 560 1330 560 1260 560C1190 560 1190 560 1120 560C1055.91 560 1053.7 565.3 991.83 560C983.7 559.3 987.33 548 980 548C963.91 548 963.24 558.44 945 560C893.24 564.44 892.5 560 840 560C809.27 560 800.98 576.65 778.54 560C730.98 524.72 731.19 456.13 700 456.13C673.62 456.13 699.51 533.22 663.41 560C629.51 585.15 611.7 560 560 560C500.91 560 492.59 574.17 441.82 560C422.59 554.63 433.18 520.93 420 520.93C404.4 520.93 407.84 553.42 384.26 560C337.84 572.96 332.13 560 280 560C210 560 210 560 140 560C70 560 36.63 593.37 0 560C-33.37 529.59 -19.31 480.73 0 432.44C8.69 410.73 56 425.87 56 420C56 414.16 8.59 430.49 0 409.02C-19.41 360.49 0 344.51 0 280C0 210 0 210 0 140C0 100.73 -15.72 61.46 0 61.46" stroke="rgba(255, 255, 255, 0.58)" stroke-width="2"></path><path d="M560 94.92C511.2 106.71 508.05 109.9 468.28 140C438.05 162.88 448.62 175.07 420 200.87C370.95 245.07 312.94 247.65 312.94 280C312.94 307.89 364.65 316.5 420 321.36C488.18 327.35 491.76 317.13 560 301.69C583.15 296.45 585.28 295.97 602.78 280C655.28 232.1 655.53 229.64 700 173.94C711.41 159.64 714.55 157.52 714.55 140C714.55 112.55 722.55 90.58 700 84C645.27 68.04 627.06 78.71 560 94.92" stroke="rgba(255, 255, 255, 0.58)" stroke-width="2"></path><path d="M980 231.21C937.16 234.7 901.46 257.88 901.46 280C901.46 300.78 938.33 312.9 980 317.01C1047.6 323.67 1055.88 284.37 1120 301.54C1195.88 321.86 1209.6 398.35 1260 392C1295.15 387.58 1291.11 335.87 1291.11 280C1291.11 227.37 1294.14 178.55 1260 175C1208.58 169.66 1194.89 247.19 1120 262.22C1054.89 275.29 1046.43 225.81 980 231.21" stroke="rgba(255, 255, 255, 0.58)" stroke-width="2"></path><path d="M221.82 140C197.87 74.81 179.1 44.29 197.5 0C208.19 -25.71 238.75 0 280 0C350 0 350 0 420 0C490 0 490 0 560 0C597.5 0 635 -8.45 635 0C635 9.35 598.06 19.07 560 35.59C490.56 65.73 484.73 56.74 420 93.33C392.39 108.94 398.87 117.93 375.32 140C328.87 183.53 322.51 224.53 280 224.53C245.76 224.53 239.12 187.08 221.82 140" stroke="rgba(255, 255, 255, 0.58)" stroke-width="2"></path><path d="M760 140C760 100.95 793.28 84.91 840 73.76C903.28 58.66 918.29 106.47 980 87.5C1038.29 69.59 1026.2 33.63 1080 0C1096.2 -10.12 1100 0 1120 0C1176 0 1213.92 -30.73 1232 0C1255.1 39.27 1234.53 80.63 1202.35 140C1178.53 183.96 1167.34 198.54 1120 206.67C1056.17 217.63 1045.49 165.52 980 178.18C905.49 192.58 898.16 270.87 840 260.78C788.16 251.78 760 194.46 760 140" stroke="rgba(255, 255, 255, 0.58)" stroke-width="2"></path><path d="M1306.67 140C1316.73 89.11 1350 94.02 1400 57.18C1445 24.02 1446.16 20.63 1496.67 0C1516.16 -7.96 1534.58 -16.25 1540 0C1556.25 48.75 1541.51 65.24 1540 130C1539.88 135.24 1538.71 135.13 1536.74 140C1508.38 210.13 1478.27 216.72 1479.33 280C1479.9 314.29 1525.09 300.75 1540 335.15C1555.43 370.75 1540 377.58 1540 420C1540 490 1564.71 514.71 1540 560C1526.53 584.71 1486.02 583.49 1463.64 560C1419.35 513.49 1436.47 489.2 1406.67 420C1404.65 415.31 1401.74 417.01 1400 412.22C1376.37 347.01 1378.53 345.92 1355.93 280C1331.86 209.81 1294.7 200.52 1306.67 140" stroke="rgba(255, 255, 255, 0.58)" stroke-width="2"></path><path d="M0 151.67C37.59 151.67 128.33 227.03 128.33 280C128.33 321.39 45 340.39 0 340.39C-19.16 340.39 0 310.19 0 280C0 215.83 -26.58 151.67 0 151.67" stroke="rgba(255, 255, 255, 0.58)" stroke-width="2"></path><path d="M191.15 420C227.99 371.56 229.29 338.67 280 334.44C343.71 329.13 348.54 396.69 420 400.91C488.54 404.96 494.42 345.65 560 350.99C611.53 355.19 639.94 373.07 654.23 420C671.76 477.58 656.27 511.53 623.64 560C609.15 581.53 591.82 560 560 560C523.63 560 511.43 580.79 487.27 560C441.43 520.56 460.64 439.53 420 439.53C371.9 439.53 368.99 509.06 309.79 560C298.99 569.29 294.89 560 280 560C210 560 210 560 140 560C70 560 51.64 578.36 0 560C-18.36 553.47 -18.34 515.65 0 510.22C51.66 494.91 86.65 543.7 140 518.52C182.23 498.59 157.99 463.6 191.15 420" stroke="rgba(255, 255, 255, 0.58)" stroke-width="2"></path><path d="M887.46 420C887.46 386.2 928.47 368.57 980 357.24C1044.74 343 1055.5 349.09 1120 368.85C1157.94 380.47 1151.48 395.75 1184.88 420C1221.48 446.57 1222.98 444.47 1260 470.49C1322.58 514.47 1384.09 535.29 1384.09 560C1384.09 580.04 1322.05 560 1260 560C1190 560 1190 560 1120 560C1080.57 560 1074.4 574.73 1041.13 560C1004.4 543.73 1012.15 527.29 980 498C935.31 457.29 887.46 456.58 887.46 420" stroke="rgba(255, 255, 255, 0.58)" stroke-width="2"></path><path d="M267.27 140C258.65 71.69 254.43 61.26 260 0C260.79 -8.74 270 0 280 0C350 0 350 0 420 0C443.34 0 466.67 -3.79 466.67 0C466.67 3.99 438.42 0.01 420 15.56C355.51 70.01 361.1 78.49 300.85 140C291.1 149.95 289.3 158.49 280 158.49C272.51 158.49 268.65 150.94 267.27 140" stroke="rgba(255, 255, 255, 0.58)" stroke-width="2"></path><path d="M805.45 140C805.45 123.14 819.69 111.4 840 111.4C888.12 111.4 942.31 120.6 942.31 140C942.31 160.98 884.3 192.16 840 192.16C815.87 192.16 805.45 163.52 805.45 140" stroke="rgba(255, 255, 255, 0.58)" stroke-width="2"></path><path d="M1061.67 140C1061.67 126.46 1097.32 101.11 1120 101.11C1133.35 101.11 1133.73 122.5 1133.73 140C1133.73 147.5 1128.26 151.11 1120 151.11C1092.23 151.11 1061.67 151.46 1061.67 140" stroke="rgba(255, 255, 255, 0.58)" stroke-width="2"></path><path d="M1362.22 140C1362.22 118.74 1379.59 106.48 1400 106.48C1426.15 106.48 1455.35 116.18 1455.35 140C1455.35 180.54 1424.13 235.2 1400 235.2C1377.56 235.2 1362.22 183.1 1362.22 140" stroke="rgba(255, 255, 255, 0.58)" stroke-width="2"></path><path d="M258.46 420C258.46 407.51 267.65 399.26 280 399.26C299.16 399.26 321.48 405.41 321.48 420C321.48 440.13 297.2 468.7 280 468.7C265.69 468.7 258.46 442.23 258.46 420" stroke="rgba(255, 255, 255, 0.58)" stroke-width="2"></path><path d="M511.72 420C515.39 398.5 537.07 400.28 560 400.28C574.67 400.28 584.62 404.63 586.92 420C596.55 484.49 595.36 500.19 583.86 560C581.9 570.19 571.93 560 560 560C546.37 560 536.63 571.31 532.73 560C512.49 501.31 501.76 478.36 511.72 420" stroke="rgba(255, 255, 255, 0.58)" stroke-width="2"></path><path d="M946.78 420C946.78 407.87 961.28 397.47 980 397.47C1026.89 397.47 1078 407.45 1078 420C1078 432.72 1026 448 980 448C960.39 448 946.78 433.13 946.78 420" stroke="rgba(255, 255, 255, 0.58)" stroke-width="2"></path><path d="M1090.42 560C1090.42 521.05 1085.97 466.45 1120 460C1170.76 450.38 1191.8 490.92 1260 527.87C1284.08 540.92 1304.55 551.13 1304.55 560C1304.55 567.19 1282.28 560 1260 560C1190 560 1190 560 1120 560C1105.21 560 1090.42 571.05 1090.42 560" stroke="rgba(255, 255, 255, 0.58)" stroke-width="2"></path></g><defs><mask id="SvgjsMask1003"><rect width="1440" height="560" fill="#ffffff"></rect></mask></defs></svg>