<svg xmlns="http://www.w3.org/2000/svg" version="1.1" xmlns:xlink="http://www.w3.org/1999/xlink" xmlns:svgjs="http://svgjs.com/svgjs" width="1440" height="560" preserveAspectRatio="none" viewBox="0 0 1440 560"><g mask="url(&quot;#SvgjsMask1010&quot;)" fill="none"><path d="M34.05 140C34.05 72.73 -26.87 35.5 0 0C26.11 -34.5 70 0 140 0C210 0 210 0 280 0C350 0 350 0 420 0C490 0 490 0 560 0C609.74 0 620.02 -18.46 659.47 0C690.02 14.3 675.13 36.54 700 65.53C735.17 106.54 736.55 107.28 779.55 140C806.55 160.54 811.66 172.05 840 172.05C860.1 172.05 861.77 159.16 876.44 140C927.65 73.13 922.38 66.75 971.76 0C974.16 -3.25 975.88 0 980 0C1050 0 1050 0 1120 0C1190 0 1190 0 1260 0C1322.22 0 1330.92 -13.38 1384.44 0C1400.92 4.12 1389.96 35 1400 35C1411.74 35 1407.99 5 1428 0C1477.99 -12.5 1515.11 -31.11 1540 0C1571.11 38.89 1540 70 1540 140C1540 210 1540 210 1540 280C1540 339.45 1550.65 344.7 1540 398.9C1536.9 414.7 1512.5 407.48 1512.5 420C1512.5 436.81 1535.7 435.69 1540 457.56C1549.45 505.69 1569.58 538.36 1540 560C1499.58 589.58 1470 560 1400 560C1330 560 1330 560 1260 560C1190 560 1190 560 1120 560C1050 560 1050 560 980 560C910 560 910 560 840 560C770 560 770 560 700 560C653.97 560 641.87 580.68 607.95 560C571.87 538 582 474.63 560 474.63C539 474.63 555.44 539.59 521.96 560C485.44 582.27 470.98 560 420 560C350 560 350 560 280 560C245.86 560 240.8 573.28 211.71 560C170.8 541.32 170.95 496.09 140 496.09C116.01 496.09 131.38 546.5 101.82 560C61.38 578.46 21.44 589.47 0 560C-29.47 519.47 0 490 0 420C0 350 0 350 0 280C0 237.39 -9.69 234.62 0 194.78C7.33 164.62 34.05 170.12 34.05 140" stroke="rgba(70, 0, 255, 0.58)" stroke-width="2"></path><path d="M560 257.8C544.93 261.5 536.96 266.25 536.96 280C536.96 308.73 533.73 334.7 560 342.76C615.25 359.7 642.43 352.73 700 330C721.89 321.35 718.92 304.62 718.92 280C718.92 259.62 718.97 242.65 700 240C639.51 231.55 626.45 241.5 560 257.8" stroke="rgba(70, 0, 255, 0.58)" stroke-width="2"></path><path d="M1120 200C1086.04 206.29 1080 247.11 1080 280C1080 296.14 1105.26 282.45 1120 298.06C1171.36 352.45 1161.29 364.16 1212.2 420C1231.29 440.93 1237.5 451.61 1260 451.61C1278.01 451.61 1290.08 441.15 1293.22 420C1302.81 355.34 1298.24 346.71 1285.45 280C1281.63 260.05 1278.31 255.52 1260 246.67C1195.58 215.52 1176.04 189.62 1120 200" stroke="rgba(70, 0, 255, 0.58)" stroke-width="2"></path><path d="M420 381.54C374.21 381.54 327.89 400.86 327.89 420C327.89 439.11 374.21 458.04 420 458.04C462.95 458.04 505.37 439.11 505.37 420C505.37 400.86 462.95 381.54 420 381.54" stroke="rgba(70, 0, 255, 0.58)" stroke-width="2"></path><path d="M128.65 140C131.68 130.39 131.69 128.85 140 123.2C207.37 77.34 213.29 84.11 280 36.98C300.49 22.51 291.75 5.98 314.39 0C361.75 -12.51 367.19 0 420 0C490 0 490 0 560 0C586.71 0 596.27 -17.15 613.42 0C666.27 52.85 713.59 85.27 700 140C686.88 192.83 625.26 171.05 560 215.12C521.59 241.05 527.16 248.47 492.66 280C457.16 312.45 463.14 333.61 420 343.08C356.81 356.95 343.82 309.14 280 326.67C203.82 347.6 210 373.34 140 420C140 420 140 420 140 420C98.18 490 108.38 507.98 56.36 560C38.38 577.98 8.09 580.09 0 560C-20.09 510.09 0 490 0 420C0 378.52 -19.78 367.6 0 337.04C25.52 297.6 63.28 321.83 90.59 280C127.6 223.31 106.97 208.79 128.65 140" stroke="rgba(70, 0, 255, 0.58)" stroke-width="2"></path><path d="M420 98.69C398.33 98.69 375.79 119.16 375.79 140C375.79 161.17 398.34 182.71 420 182.71C440.77 182.71 460.65 161.19 460.65 140C460.65 119.18 440.76 98.69 420 98.69" stroke="rgba(70, 0, 255, 0.58)" stroke-width="2"></path><path d="M924.38 140C956.39 105.52 948.74 98.64 980 63.4C1010.84 28.64 1008.91 17.96 1048.57 0C1078.91 -13.74 1084.28 0 1120 0C1190 0 1190 0 1260 0C1297.91 0 1315.04 -23.76 1335.83 0C1376.29 46.24 1403.05 95.74 1382.5 140C1365.14 177.4 1318.79 163.33 1260 163.33C1240.64 163.33 1243.54 151 1226.21 140C1173.54 106.57 1168.6 74.47 1120 74.47C1085.3 74.47 1089.18 106.67 1059.61 140C1019.18 185.57 1019.36 185.76 980 232.27C960.11 255.76 941.11 255.57 941.11 280C941.11 306.36 953.74 314.63 980 333.85C1043.19 380.11 1051.44 370.74 1120 410.97C1124.86 413.82 1126.83 414.94 1126.83 420C1126.83 429.45 1128.53 434.26 1120 440C1055.12 483.67 1051.72 482.96 980 518.82C931.72 542.96 931.1 544.97 880 560C861.1 565.56 860 560 840 560C770 560 770 560 700 560C677.94 560 655.89 574.78 655.89 560C655.89 521.12 658.71 470.61 700 452.67C750.76 430.61 785.78 491.39 840 480C863.56 475.05 855.56 446.96 855.56 420C855.56 411.96 844.92 417.71 840 410C800.25 347.71 766.22 338.92 766.22 280C766.22 241.03 802.99 246.98 840 214.22C882.07 176.98 886.39 180.93 924.38 140" stroke="rgba(70, 0, 255, 0.58)" stroke-width="2"></path><path d="M1404 140C1459.34 69.72 1455.69 61.57 1515.5 0C1523.69 -8.43 1538.18 -10.43 1540 0C1550.43 59.57 1540 70 1540 140C1540 210 1540 210 1540 280C1540 315.48 1557.32 324.02 1540 350.96C1512.32 394.02 1450 379.04 1450 420C1450 475.02 1499.53 479.98 1540 542.93C1544.53 549.98 1547.61 559.07 1540 560C1477.61 567.61 1470 560 1400 560C1330 560 1330 560 1260 560C1214 560 1168 572.09 1168 560C1168 546.12 1218.23 539.75 1260 508.06C1310.5 469.75 1331.29 474.4 1352.54 420C1375.84 360.37 1337.34 347.69 1349.09 280C1361.07 211.02 1373.96 213.05 1400 146.67C1401.42 143.05 1401.59 143.05 1404 140" stroke="rgba(70, 0, 255, 0.58)" stroke-width="2"></path><path d="M294.89 560C294.89 543.1 362.49 496.09 420 496.09C457 496.09 483.91 541.28 483.91 560C483.91 573.24 451.96 560 420 560C357.44 560 294.89 575.05 294.89 560" stroke="rgba(70, 0, 255, 0.58)" stroke-width="2"></path><path d="M225.56 140C225.56 118.34 254.87 103.02 280 103.02C299.28 103.02 314.39 119.57 314.39 140C314.39 167.76 300.43 199.39 280 199.39C256.02 199.39 225.56 166.52 225.56 140" stroke="rgba(70, 0, 255, 0.58)" stroke-width="2"></path><path d="M420 41.31C398.51 20.02 375.79 11.93 375.79 0C375.79 -8.72 397.89 0 420 0C490 0 490 0 560 0C563.68 0 565.95 -3.28 567.37 0C596.18 66.72 622.98 80.87 620.45 140C619.29 167.09 588.97 172.44 560 172.44C537.29 172.44 536.69 158.34 517.1 140C466.69 92.78 469.17 90.02 420 41.31" stroke="rgba(70, 0, 255, 0.58)" stroke-width="2"></path><path d="M972.33 140C972.33 134.55 975.7 129.43 980 129.43C985.02 129.43 990.98 134.46 990.98 140C990.98 146.11 984.95 152.73 980 152.73C975.62 152.73 972.33 146.2 972.33 140" stroke="rgba(70, 0, 255, 0.58)" stroke-width="2"></path><path d="M1260 61.25C1201.88 61.25 1120 15.98 1120 0C1120 -14.64 1190 0 1260 0C1273.61 0 1287.22 -8.85 1287.22 0C1287.22 21.78 1285.49 61.25 1260 61.25" stroke="rgba(70, 0, 255, 0.58)" stroke-width="2"></path><path d="M1504 140C1517.71 114.1 1529.95 93.33 1540 93.33C1547.95 93.33 1540 116.66 1540 140C1540 210 1540 210 1540 280C1540 291.5 1549.13 303.01 1540 303.01C1499.72 303.01 1448.34 312.44 1441.18 280C1430.34 230.94 1468.3 207.43 1504 140" stroke="rgba(70, 0, 255, 0.58)" stroke-width="2"></path><path d="M356 280C356 263.71 391.79 242.03 420 242.03C437.96 242.03 448.35 262.54 448.35 280C448.35 293.84 436.34 304.62 420 304.62C390.16 304.62 356 295.01 356 280" stroke="rgba(70, 0, 255, 0.58)" stroke-width="2"></path><path d="M813.51 280C813.51 266.01 825.86 256.39 840 256.39C857.26 256.39 876.3 265.14 876.3 280C876.3 300.28 856.46 326.67 840 326.67C825.06 326.67 813.51 301.15 813.51 280" stroke="rgba(70, 0, 255, 0.58)" stroke-width="2"></path><path d="M0 504C2.75 504 10.91 536.49 10.91 560C10.91 564.49 0.89 564.57 0 560C-4.57 536.57 -2.7 504 0 504" stroke="rgba(70, 0, 255, 0.58)" stroke-width="2"></path><path d="M369.36 560C369.36 553.16 396.72 534.13 420 534.13C434.98 534.13 445.87 552.42 445.87 560C445.87 565.36 432.93 560 420 560C394.68 560 369.36 566.09 369.36 560" stroke="rgba(70, 0, 255, 0.58)" stroke-width="2"></path></g><defs><mask id="SvgjsMask1010"><rect width="1440" height="560" fill="#ffffff"></rect></mask></defs></svg>