<svg xmlns="http://www.w3.org/2000/svg" version="1.1" xmlns:xlink="http://www.w3.org/1999/xlink" xmlns:svgjs="http://svgjs.com/svgjs" width="1440" height="560" preserveAspectRatio="none" viewBox="0 0 1440 560"><g mask="url(&quot;#SvgjsMask1001&quot;)" fill="none"><path d="M0 7.24C1.27 -2.09 8.98 0.52 19.09 0C78.98 -3.1 79.55 0 140 0C197.82 0 228.45 -31.66 255.65 0C288.59 38.34 250.45 72.6 260.28 140C262.62 156.06 267.88 166.92 280 166.92C297.18 166.92 305.98 159.23 318.89 140C361.98 75.77 349.06 59.46 392 0C399.61 -10.54 406 0 420 0C490 0 490 0 560 0C624.53 0 633.08 -12.17 689.06 0C703.08 3.05 694.83 30.43 700 30.43C705.1 30.43 695.83 2.99 709.59 0C765.83 -12.22 774.8 0 840 0C892.31 0 944.62 -24.26 944.62 0C944.62 37.56 897.95 70.01 840 123.64C822.31 140.01 793.33 131.34 793.33 140C793.33 148.79 815.37 156.68 840 158.53C908.71 163.68 911.4 145.16 980 154C1051.4 163.21 1056.72 199.24 1120 194.63C1152.77 192.24 1166.88 173.82 1172.09 140C1181.88 76.5 1125.25 39.41 1150 0C1169.21 -30.59 1205 0 1260 0C1330 0 1330 0 1400 0C1454.53 0 1461.85 -14.37 1509.05 0C1531.85 6.94 1534.57 18.04 1540 42.61C1550.04 88.04 1540 91.31 1540 140C1540 210 1540 210 1540 280C1540 350 1540 350 1540 420C1540 490 1575 525 1540 560C1505 595 1470 560 1400 560C1330 560 1330 560 1260 560C1207.85 560 1204.8 569.25 1155.69 560C1134.8 556.06 1140.39 533.62 1120 533.62C1071.99 533.62 1069.9 550.39 1018.89 560C999.9 563.58 999.44 560 980 560C910 560 910 560 840 560C770 560 770 560 700 560C630 560 630 560 560 560C490 560 490 560 420 560C350 560 350 560 280 560C210 560 210 560 140 560C113.75 560 87.5 568.54 87.5 560C87.5 549.45 110.92 535.71 140 521.82C207.17 489.74 213.7 501.49 280 468.06C314.66 450.58 341.92 444.26 341.92 420C341.92 395.46 310.96 395.23 280 370.46C223.46 325.23 223.81 324.77 166.92 280C153.81 269.68 155.97 260.52 140 260.28C72.51 259.27 35.45 307.95 0 277.5C-34.55 247.81 0 208.75 0 140C0 73.62 -8.27 67.91 0 7.24" stroke="rgba(51, 121, 194, 0.58)" stroke-width="2"></path><path d="M1400 119.08C1378.2 119.08 1354.5 128.93 1354.5 140C1354.5 151.37 1378.4 163.95 1400 163.95C1416.07 163.95 1429.84 151.49 1429.84 140C1429.84 129.06 1415.87 119.08 1400 119.08" stroke="rgba(51, 121, 194, 0.58)" stroke-width="2"></path><path d="M420 215.83C386.85 219.03 371.88 248.27 371.88 280C371.88 310.55 386.64 331.83 420 340.39C480.7 355.97 499.64 349.83 560 328.28C584.23 319.63 589.17 300.65 589.17 280C589.17 267.42 576 267.89 560 261.82C491.41 235.8 480.91 209.94 420 215.83" stroke="rgba(51, 121, 194, 0.58)" stroke-width="2"></path><path d="M980 393.08C954.94 393.08 926.15 397.72 926.15 420C926.15 463.68 958.32 525 980 525C1000.04 525 1009.58 468.26 1009.58 420C1009.58 402.3 996.65 393.08 980 393.08" stroke="rgba(51, 121, 194, 0.58)" stroke-width="2"></path><path d="M1400 393.08C1386.58 393.08 1375.86 405.63 1375.86 420C1375.86 437.51 1386.11 456.84 1400 456.84C1416.29 456.84 1436.21 437.02 1436.21 420C1436.21 405.14 1416.75 393.08 1400 393.08" stroke="rgba(51, 121, 194, 0.58)" stroke-width="2"></path><path d="M0 67.59C46.99 27.31 85.7 1.37 140 20C191.2 37.57 210.99 84.48 210.99 140C210.99 179.98 184.05 195.33 140 210.99C78.55 232.83 45.59 238.12 0 215C-24.41 202.62 0 177.5 0 140C0 103.8 -23.01 87.31 0 67.59" stroke="rgba(51, 121, 194, 0.58)" stroke-width="2"></path><path d="M840 78.18C800.91 78.18 757.53 22.65 757.53 0C757.53 -16.44 798.76 0 840 0C873.08 0 906.15 -15.34 906.15 0C906.15 23.75 875.22 78.18 840 78.18" stroke="rgba(51, 121, 194, 0.58)" stroke-width="2"></path><path d="M234.23 280C234.23 258.38 258.3 234.23 280 234.23C299.78 234.23 317.19 258.15 317.19 280C317.19 299.34 299.54 316.62 280 316.62C258.06 316.62 234.23 299.58 234.23 280" stroke="rgba(51, 121, 194, 0.58)" stroke-width="2"></path><path d="M409.23 420C409.23 412.78 412.91 409.02 420 409.02C446.3 409.02 476 404.25 476 420C476 444.74 438.65 490 420 490C405.27 490 409.23 453.27 409.23 420" stroke="rgba(51, 121, 194, 0.58)" stroke-width="2"></path><path d="M210 560C210 549.38 243.16 520.3 280 520.3C335.98 520.3 395.65 549.8 395.65 560C395.65 569.65 337.83 560 280 560C245 560 210 569.23 210 560" stroke="rgba(51, 121, 194, 0.58)" stroke-width="2"></path><path d="M619.63 560C619.63 535.36 650.66 501.62 700 476.54C760.84 445.62 794.65 424.83 840 448C876.31 466.56 863.33 513.49 863.33 560C863.33 569.49 851.66 560 840 560C770 560 770 560 700 560C659.82 560 619.63 577.09 619.63 560" stroke="rgba(51, 121, 194, 0.58)" stroke-width="2"></path><path d="M0 127.93C64.52 111.03 77.8 98.69 140 103.33C158.64 104.72 161.69 123.03 161.69 140C161.69 152.21 154.5 160.57 140 161.69C73.66 166.82 64.27 162.46 0 152.5C-5.73 151.61 0 146.25 0 140C0 133.97 -5.48 129.37 0 127.93" stroke="rgba(51, 121, 194, 0.58)" stroke-width="2"></path><path d="M501.95 140C494.48 81.26 513.04 60.86 538.28 0C542.07 -9.14 549.14 0 560 0C569.85 0 576.75 -8.47 579.69 0C601.03 61.53 615.59 79.08 608.57 140C605.74 164.54 584.88 170.91 560 170.91C531.57 170.91 505.34 166.71 501.95 140" stroke="rgba(51, 121, 194, 0.58)" stroke-width="2"></path><path d="M840 32.73C823.64 32.73 805.48 9.48 805.48 0C805.48 -6.88 822.74 0 840 0C853.85 0 867.69 -6.42 867.69 0C867.69 9.94 854.74 32.73 840 32.73" stroke="rgba(51, 121, 194, 0.58)" stroke-width="2"></path><path d="M1400 38.62C1348.9 38.62 1288 9.93 1288 0C1288 -9.38 1344 0 1400 0C1417.68 0 1435.37 -7.78 1435.37 0C1435.37 11.53 1422.59 38.62 1400 38.62" stroke="rgba(51, 121, 194, 0.58)" stroke-width="2"></path><path d="M780 280C780 267.1 809.07 265.49 840 261.47C909.07 252.49 912.35 247.33 980 254C1006.29 256.59 1027.89 267.53 1027.89 280C1027.89 292.19 1005.82 298.38 980 303.33C911.87 316.38 906.77 323.79 840 316C806.77 312.12 780 294.37 780 280" stroke="rgba(51, 121, 194, 0.58)" stroke-width="2"></path><path d="M1292.94 280C1292.94 268.17 1347.29 270.99 1400 256.05C1470.82 235.99 1492.54 201.88 1540 210C1562.54 213.86 1540 245 1540 280C1540 295.56 1552.71 308.99 1540 311.11C1482.71 320.66 1469.34 312.06 1400 303.33C1345.81 296.51 1292.94 291.81 1292.94 280" stroke="rgba(51, 121, 194, 0.58)" stroke-width="2"></path><path d="M1108.17 420C1108.17 407.53 1108.59 401.8 1120 392.9C1184.51 342.57 1209.59 293.75 1260 301.54C1297.29 307.3 1295.4 361.5 1295.4 420C1295.4 466.02 1293.1 508.29 1260 510.59C1205.4 514.38 1188.65 473.13 1120 432.17C1112.74 427.84 1108.17 427.16 1108.17 420" stroke="rgba(51, 121, 194, 0.58)" stroke-width="2"></path><path d="M684.44 560C684.44 555.23 690.9 543.85 700 543.85C714.23 543.85 731.11 555.72 731.11 560C731.11 563.8 715.56 560 700 560C692.22 560 684.44 563.31 684.44 560" stroke="rgba(51, 121, 194, 0.58)" stroke-width="2"></path></g><defs><mask id="SvgjsMask1001"><rect width="1440" height="560" fill="#ffffff"></rect></mask></defs></svg>