<svg xmlns="http://www.w3.org/2000/svg" version="1.1" xmlns:xlink="http://www.w3.org/1999/xlink" xmlns:svgjs="http://svgjs.com/svgjs" width="1440" height="560" preserveAspectRatio="none" viewBox="0 0 1440 560"><g mask="url(&quot;#SvgjsMask1006&quot;)" fill="none"><path d="M140 35C115.71 35 103.48 87.73 103.48 140C103.48 188.69 115.9 236.92 140 236.92C167.32 236.92 206.32 189.07 206.32 140C206.32 88.11 167.13 35 140 35" stroke="rgba(255, 0, 0, 0.58)" stroke-width="2"></path><path d="M353.33 0C387.22 4.13 388.35 17.07 420 17.07C433.16 17.07 429.2 1.68 442.95 0C499.2 -6.86 501.47 0 560 0C630 0 630 0 700 0C770 0 770 0 840 0C893.39 0 916.96 -29.82 946.78 0C986.96 40.18 963.39 70 980 140C980 140 980 140 980 140C1050 182.9 1052.34 225.81 1120 225.81C1177.75 225.81 1230.83 180.59 1230.83 140C1230.83 101.74 1173.01 107.26 1120 68.11C1078.22 37.26 1041.25 19.39 1041.25 0C1041.25 -14.67 1080.63 0 1120 0C1190 0 1190 0 1260 0C1330 0 1330 0 1400 0C1470 0 1505 -35 1540 0C1575 35 1540 70 1540 140C1540 210 1540 210 1540 280C1540 350 1540 350 1540 420C1540 477.5 1548.14 480.46 1540 535C1537.69 550.46 1534.14 557.31 1519.1 560C1464.14 569.81 1459.55 560 1400 560C1330 560 1330 560 1260 560C1200.85 560 1141.69 586.04 1141.69 560C1141.69 521.43 1199.84 494.28 1260 430.77C1266.14 424.28 1274.29 425.33 1274.29 420C1274.29 414.72 1268.48 411.81 1260 409.55C1191.34 391.22 1177.76 374.79 1120 378.82C1102.96 380.01 1121.25 402.15 1110.41 420C1066.25 492.74 1065.53 500.38 1010 560C1000.33 570.38 995 560 980 560C970 560 966.32 567.24 960 560C905.29 497.24 910.28 488.88 857.95 420C850.28 409.91 849.56 402.05 840 402.05C828.92 402.05 822.49 406.87 816.67 420C787.49 485.84 809.57 512.52 770 560C751.23 582.52 735 560 700 560C630 560 630 560 560 560C490 560 490 560 420 560C350 560 350 560 280 560C210 560 210 560 140 560C70 560 35 595 0 560C-35 525 0 490 0 420C0 371.26 -24.28 354.9 0 322.53C28.22 284.9 105 301.75 105 280C105 258.08 28.63 273.37 0 235.2C-23.87 203.37 0 187.6 0 140C0 70 -35 35 0 0C35 -35 70 0 140 0C210 0 210 0 280 0C316.66 0 317.22 -4.4 353.33 0" stroke="rgba(255, 0, 0, 0.58)" stroke-width="2"></path><path d="M280 261.74C264.52 261.74 241.82 270.87 241.82 280C241.82 289.13 264.52 298.26 280 298.26C287.17 298.26 287.12 289.13 287.12 280C287.12 270.87 287.17 261.74 280 261.74" stroke="rgba(255, 0, 0, 0.58)" stroke-width="2"></path><path d="M0 46.67C14.1 46.67 52.75 97.49 52.75 140C52.75 168.42 15.73 188.53 0 188.53C-10.65 188.53 0 164.26 0 140C0 93.34 -12.28 46.67 0 46.67" stroke="rgba(255, 0, 0, 0.58)" stroke-width="2"></path><path d="M293.46 140C311.86 84.91 358 101.72 420 59.76C461.43 31.72 456.47 18.72 500.33 0C526.47 -11.16 530.16 0 560 0C630 0 630 0 700 0C770 0 770 0 840 0C863.73 0 887.46 -13.71 887.46 0C887.46 27.46 876.7 57 840 82.35C782.97 121.75 769.35 131.5 700 129.5C629.35 127.47 620.67 70.87 560 74.29C527.67 76.12 514 108.82 514 140C514 166.07 530.56 186.89 560 188.79C623.56 192.89 629.27 155.64 700 152C769.27 148.44 781.58 142.24 840 174.39C897.89 206.24 885.23 228.21 932.62 280C955.23 304.7 957.23 302.83 980 327.38C1022.15 372.83 1062.47 373.69 1062.47 420C1062.47 466.31 1020.48 512.62 980 512.62C940.65 512.62 943.12 464.75 902.82 420C873.12 387.03 873.45 357.18 840 357.18C801.21 357.18 790.1 380.92 758.33 420C720.1 467.02 730.87 475.76 700 529.38C690.57 545.76 694.76 556.27 677.73 560C624.76 571.58 618.87 560 560 560C499.76 560 497.28 566.79 439.53 560C427.28 558.56 429.2 552.38 420 543.53C356.44 482.38 313.91 491.33 294 420C277.13 359.57 346.57 349.96 346.44 280C346.3 209.96 275.08 195.03 293.46 140" stroke="rgba(255, 0, 0, 0.58)" stroke-width="2"></path><path d="M1260 92.54C1193.03 66.73 1141.3 25.87 1141.3 0C1141.3 -20.4 1200.65 0 1260 0C1330 0 1330 0 1400 0C1449.85 0 1467.01 -24.85 1499.7 0C1537.01 28.35 1524.44 52.36 1540 106.4C1544.59 122.36 1540 123.2 1540 140C1540 210 1540 210 1540 280C1540 350 1540 350 1540 420C1540 446.25 1551.53 450.43 1540 472.5C1514.96 520.43 1511 532.42 1466.87 560C1441 576.17 1433.43 560 1400 560C1330 560 1330 560 1260 560C1225.49 560 1190.99 575.19 1190.99 560C1190.99 537.5 1222.27 518.76 1260 484.62C1299.63 448.76 1345.71 452 1345.71 420C1345.71 388.34 1302.69 388.88 1260 357.31C1208.03 318.88 1156.4 320.7 1156.4 280C1156.4 236.61 1205.19 189.12 1260 189.12C1325.15 189.12 1329.54 233.31 1396.32 280C1399.54 282.25 1397.18 287 1400 287C1404.85 287 1407.71 285.48 1411.67 280C1460.91 211.98 1509.89 193.88 1506.4 140C1504.05 103.73 1455.19 110.33 1400 99.7C1331.99 86.6 1322.38 116.58 1260 92.54" stroke="rgba(255, 0, 0, 0.58)" stroke-width="2"></path><path d="M0 366.84C51.16 334.59 76.07 318.64 140 331.74C205.77 345.22 259.41 377.58 259.41 420C259.41 460.75 198.19 456.93 140 498.08C99.21 526.93 104.82 540.82 61.46 560C34.82 571.78 9.37 581.36 0 560C-21.36 511.36 0 490 0 420C0 393.42 -18.84 378.72 0 366.84" stroke="rgba(255, 0, 0, 0.58)" stroke-width="2"></path><path d="M0 136.41C0.54 136.41 2.03 138.36 2.03 140C2.03 141.09 0.61 141.87 0 141.87C-0.41 141.87 0 140.94 0 140C0 138.2 -0.47 136.41 0 136.41" stroke="rgba(255, 0, 0, 0.58)" stroke-width="2"></path><path d="M360.77 140C363.07 111.33 391.72 102.44 420 102.44C443.33 102.44 443.53 119.62 464 140C513.53 189.31 501.09 213.86 560 241.82C619.09 269.86 630.14 253.5 700 252C770.14 250.49 776.93 225.91 840 235.79C866.31 239.91 878.77 259.41 878.77 280C878.77 297.67 859.86 296.75 840 312.31C770.48 366.75 774.22 410.01 700 420C634.22 428.85 623.83 350 560 350C520.67 350 529.52 388.02 493.68 420C459.52 450.47 454.98 474.9 420 474.9C390.14 474.9 366.49 454.04 364 420C359.37 356.59 406.56 349.77 405.76 280C404.95 209.77 355.95 200.11 360.77 140" stroke="rgba(255, 0, 0, 0.58)" stroke-width="2"></path><path d="M560 2.86C558.25 2.34 557.7 0.88 557.7 0C557.7 -0.55 558.85 0 560 0C630 0 630 0 700 0C749.41 0 798.82 -10.06 798.82 0C798.82 10.94 750.73 41.39 700 42C631.32 42.82 629.4 23.34 560 2.86" stroke="rgba(255, 0, 0, 0.58)" stroke-width="2"></path><path d="M1260 33.22C1234.66 26.74 1217.39 9.29 1217.39 0C1217.39 -7.32 1238.7 0 1260 0C1330 0 1330 0 1400 0C1423.34 0 1446.67 -9.67 1446.67 0C1446.67 13.67 1429.81 41.36 1400 46.67C1336.48 57.97 1325.96 50.08 1260 33.22" stroke="rgba(255, 0, 0, 0.58)" stroke-width="2"></path><path d="M1226.4 280C1226.4 265.93 1242.23 250.53 1260 250.53C1281.13 250.53 1304.21 266.06 1304.21 280C1304.21 293.33 1281.32 305.07 1260 305.07C1242.41 305.07 1226.4 293.2 1226.4 280" stroke="rgba(255, 0, 0, 0.58)" stroke-width="2"></path><path d="M0 411.14C65.83 405.42 71.75 403.97 140 407.83C149.98 408.4 156.47 414.15 156.47 420C156.47 425.62 149.19 427.34 140 430.77C70.95 456.51 50.2 482.19 0 478.33C-19.8 476.81 0 449.16 0 420C0 415.57 -4.17 411.5 0 411.14" stroke="rgba(255, 0, 0, 0.58)" stroke-width="2"></path><path d="M947.69 420C947.69 400.62 963.53 381.23 980 381.23C996.94 381.23 1014.52 400.62 1014.52 420C1014.52 439.38 996.94 458.77 980 458.77C963.53 458.77 947.69 439.38 947.69 420" stroke="rgba(255, 0, 0, 0.58)" stroke-width="2"></path><path d="M520.93 560C520.93 542.19 540.62 504 560 504C579.24 504 598.18 542.09 598.18 560C598.18 570.09 579.09 560 560 560C540.46 560 520.93 570.19 520.93 560" stroke="rgba(255, 0, 0, 0.58)" stroke-width="2"></path><path d="M1240.28 560C1240.28 553.57 1246.99 544.6 1260 538.46C1326.85 506.91 1348.86 477.5 1400 484.62C1426.18 488.27 1414.63 528.34 1414.63 560C1414.63 566.03 1407.32 560 1400 560C1330 560 1330 560 1260 560C1250.14 560 1240.28 564.34 1240.28 560" stroke="rgba(255, 0, 0, 0.58)" stroke-width="2"></path></g><defs><mask id="SvgjsMask1006"><rect width="1440" height="560" fill="#ffffff"></rect></mask></defs></svg>