<svg xmlns="http://www.w3.org/2000/svg" version="1.1" xmlns:xlink="http://www.w3.org/1999/xlink" xmlns:svgjs="http://svgjs.com/svgjs" width="1440" height="560" preserveAspectRatio="none" viewBox="0 0 1440 560"><g mask="url(&quot;#SvgjsMask1008&quot;)" fill="none"><path d="M51.25 -58.36L116.2 -20.86L116.2 54.14L51.25 91.64L-13.7 54.14L-13.7 -20.86zM116.2 54.14L181.16 91.64L181.16 166.64L116.2 204.14L51.25 166.64L51.25 91.64zM181.16 -58.36L246.11 -20.86L246.11 54.14L181.16 91.64L116.2 54.14L116.2 -20.86zM246.11 504.14L311.06 541.64L311.06 616.64L246.11 654.14L181.16 616.64L181.16 541.64zM311.06 -58.36L376.02 -20.86L376.02 54.14L311.06 91.64L246.11 54.14L246.11 -20.86zM376.02 54.14L440.97 91.64L440.97 166.64L376.02 204.14L311.06 166.64L311.06 91.64zM311.06 166.64L376.02 204.14L376.02 279.14L311.06 316.64L246.11 279.14L246.11 204.14zM376.02 279.14L440.97 316.64L440.97 391.64L376.02 429.14L311.06 391.64L311.06 316.64zM505.93 54.14L570.88 91.64L570.88 166.64L505.93 204.14L440.97 166.64L440.97 91.64zM440.97 391.64L505.93 429.14L505.93 504.14L440.97 541.64L376.02 504.14L376.02 429.14zM505.93 504.14L570.88 541.64L570.88 616.64L505.93 654.14L440.97 616.64L440.97 541.64zM570.88 -58.36L635.83 -20.86L635.83 54.14L570.88 91.64L505.93 54.14L505.93 -20.86zM635.83 54.14L700.79 91.64L700.79 166.64L635.83 204.14L570.88 166.64L570.88 91.64zM700.79 166.64L765.74 204.14L765.74 279.14L700.79 316.64L635.83 279.14L635.83 204.14zM765.74 279.14L830.7 316.64L830.7 391.64L765.74 429.14L700.79 391.64L700.79 316.64zM765.74 504.14L830.7 541.64L830.7 616.64L765.74 654.14L700.79 616.64L700.79 541.64zM895.65 279.14L960.6 316.64L960.6 391.64L895.65 429.14L830.69 391.64L830.69 316.64zM895.65 504.14L960.6 541.64L960.6 616.64L895.65 654.14L830.69 616.64L830.69 541.64zM960.6 -58.36L1025.56 -20.86L1025.56 54.14L960.6 91.64L895.65 54.14L895.65 -20.86zM1090.51 391.64L1155.46 429.14L1155.46 504.14L1090.51 541.64L1025.56 504.14L1025.56 429.14zM1285.37 279.14L1350.32 316.64L1350.32 391.64L1285.37 429.14L1220.42 391.64L1220.42 316.64zM1415.28 279.14L1480.23 316.64L1480.23 391.64L1415.28 429.14L1350.33 391.64L1350.33 316.64zM1415.28 504.14L1480.23 541.64L1480.23 616.64L1415.28 654.14L1350.33 616.64L1350.33 541.64zM1480.23 -58.36L1545.19 -20.86L1545.19 54.14L1480.23 91.64L1415.28 54.14L1415.28 -20.86zM1545.19 279.14L1610.14 316.64L1610.14 391.64L1545.19 429.14L1480.23 391.64L1480.23 316.64z" stroke="rgba(189, 205, 29, 1)" stroke-width="2"></path><path d="M43.75 -58.36 a7.5 7.5 0 1 0 15 0 a7.5 7.5 0 1 0 -15 0zM108.7 -20.86 a7.5 7.5 0 1 0 15 0 a7.5 7.5 0 1 0 -15 0zM108.7 54.14 a7.5 7.5 0 1 0 15 0 a7.5 7.5 0 1 0 -15 0zM43.75 91.64 a7.5 7.5 0 1 0 15 0 a7.5 7.5 0 1 0 -15 0zM-21.2 54.14 a7.5 7.5 0 1 0 15 0 a7.5 7.5 0 1 0 -15 0zM-21.2 -20.86 a7.5 7.5 0 1 0 15 0 a7.5 7.5 0 1 0 -15 0zM173.66 91.64 a7.5 7.5 0 1 0 15 0 a7.5 7.5 0 1 0 -15 0zM173.66 166.64 a7.5 7.5 0 1 0 15 0 a7.5 7.5 0 1 0 -15 0zM108.7 204.14 a7.5 7.5 0 1 0 15 0 a7.5 7.5 0 1 0 -15 0zM43.75 166.64 a7.5 7.5 0 1 0 15 0 a7.5 7.5 0 1 0 -15 0zM173.66 -58.36 a7.5 7.5 0 1 0 15 0 a7.5 7.5 0 1 0 -15 0zM238.61 -20.86 a7.5 7.5 0 1 0 15 0 a7.5 7.5 0 1 0 -15 0zM238.61 54.14 a7.5 7.5 0 1 0 15 0 a7.5 7.5 0 1 0 -15 0zM238.61 504.14 a7.5 7.5 0 1 0 15 0 a7.5 7.5 0 1 0 -15 0zM303.56 541.64 a7.5 7.5 0 1 0 15 0 a7.5 7.5 0 1 0 -15 0zM303.56 616.64 a7.5 7.5 0 1 0 15 0 a7.5 7.5 0 1 0 -15 0zM238.61 654.14 a7.5 7.5 0 1 0 15 0 a7.5 7.5 0 1 0 -15 0zM173.66 616.64 a7.5 7.5 0 1 0 15 0 a7.5 7.5 0 1 0 -15 0zM173.66 541.64 a7.5 7.5 0 1 0 15 0 a7.5 7.5 0 1 0 -15 0zM303.56 -58.36 a7.5 7.5 0 1 0 15 0 a7.5 7.5 0 1 0 -15 0zM368.52 -20.86 a7.5 7.5 0 1 0 15 0 a7.5 7.5 0 1 0 -15 0zM368.52 54.14 a7.5 7.5 0 1 0 15 0 a7.5 7.5 0 1 0 -15 0zM303.56 91.64 a7.5 7.5 0 1 0 15 0 a7.5 7.5 0 1 0 -15 0zM433.47 91.64 a7.5 7.5 0 1 0 15 0 a7.5 7.5 0 1 0 -15 0zM433.47 166.64 a7.5 7.5 0 1 0 15 0 a7.5 7.5 0 1 0 -15 0zM368.52 204.14 a7.5 7.5 0 1 0 15 0 a7.5 7.5 0 1 0 -15 0zM303.56 166.64 a7.5 7.5 0 1 0 15 0 a7.5 7.5 0 1 0 -15 0zM368.52 279.14 a7.5 7.5 0 1 0 15 0 a7.5 7.5 0 1 0 -15 0zM303.56 316.64 a7.5 7.5 0 1 0 15 0 a7.5 7.5 0 1 0 -15 0zM238.61 279.14 a7.5 7.5 0 1 0 15 0 a7.5 7.5 0 1 0 -15 0zM238.61 204.14 a7.5 7.5 0 1 0 15 0 a7.5 7.5 0 1 0 -15 0zM433.47 316.64 a7.5 7.5 0 1 0 15 0 a7.5 7.5 0 1 0 -15 0zM433.47 391.64 a7.5 7.5 0 1 0 15 0 a7.5 7.5 0 1 0 -15 0zM368.52 429.14 a7.5 7.5 0 1 0 15 0 a7.5 7.5 0 1 0 -15 0zM303.56 391.64 a7.5 7.5 0 1 0 15 0 a7.5 7.5 0 1 0 -15 0zM498.43 54.14 a7.5 7.5 0 1 0 15 0 a7.5 7.5 0 1 0 -15 0zM563.38 91.64 a7.5 7.5 0 1 0 15 0 a7.5 7.5 0 1 0 -15 0zM563.38 166.64 a7.5 7.5 0 1 0 15 0 a7.5 7.5 0 1 0 -15 0zM498.43 204.14 a7.5 7.5 0 1 0 15 0 a7.5 7.5 0 1 0 -15 0zM498.43 429.14 a7.5 7.5 0 1 0 15 0 a7.5 7.5 0 1 0 -15 0zM498.43 504.14 a7.5 7.5 0 1 0 15 0 a7.5 7.5 0 1 0 -15 0zM433.47 541.64 a7.5 7.5 0 1 0 15 0 a7.5 7.5 0 1 0 -15 0zM368.52 504.14 a7.5 7.5 0 1 0 15 0 a7.5 7.5 0 1 0 -15 0zM563.38 541.64 a7.5 7.5 0 1 0 15 0 a7.5 7.5 0 1 0 -15 0zM563.38 616.64 a7.5 7.5 0 1 0 15 0 a7.5 7.5 0 1 0 -15 0zM498.43 654.14 a7.5 7.5 0 1 0 15 0 a7.5 7.5 0 1 0 -15 0zM433.47 616.64 a7.5 7.5 0 1 0 15 0 a7.5 7.5 0 1 0 -15 0zM563.38 -58.36 a7.5 7.5 0 1 0 15 0 a7.5 7.5 0 1 0 -15 0zM628.33 -20.86 a7.5 7.5 0 1 0 15 0 a7.5 7.5 0 1 0 -15 0zM628.33 54.14 a7.5 7.5 0 1 0 15 0 a7.5 7.5 0 1 0 -15 0zM498.43 -20.86 a7.5 7.5 0 1 0 15 0 a7.5 7.5 0 1 0 -15 0zM693.29 91.64 a7.5 7.5 0 1 0 15 0 a7.5 7.5 0 1 0 -15 0zM693.29 166.64 a7.5 7.5 0 1 0 15 0 a7.5 7.5 0 1 0 -15 0zM628.33 204.14 a7.5 7.5 0 1 0 15 0 a7.5 7.5 0 1 0 -15 0zM758.24 204.14 a7.5 7.5 0 1 0 15 0 a7.5 7.5 0 1 0 -15 0zM758.24 279.14 a7.5 7.5 0 1 0 15 0 a7.5 7.5 0 1 0 -15 0zM693.29 316.64 a7.5 7.5 0 1 0 15 0 a7.5 7.5 0 1 0 -15 0zM628.33 279.14 a7.5 7.5 0 1 0 15 0 a7.5 7.5 0 1 0 -15 0zM823.2 316.64 a7.5 7.5 0 1 0 15 0 a7.5 7.5 0 1 0 -15 0zM823.2 391.64 a7.5 7.5 0 1 0 15 0 a7.5 7.5 0 1 0 -15 0zM758.24 429.14 a7.5 7.5 0 1 0 15 0 a7.5 7.5 0 1 0 -15 0zM693.29 391.64 a7.5 7.5 0 1 0 15 0 a7.5 7.5 0 1 0 -15 0zM758.24 504.14 a7.5 7.5 0 1 0 15 0 a7.5 7.5 0 1 0 -15 0zM823.2 541.64 a7.5 7.5 0 1 0 15 0 a7.5 7.5 0 1 0 -15 0zM823.2 616.64 a7.5 7.5 0 1 0 15 0 a7.5 7.5 0 1 0 -15 0zM758.24 654.14 a7.5 7.5 0 1 0 15 0 a7.5 7.5 0 1 0 -15 0zM693.29 616.64 a7.5 7.5 0 1 0 15 0 a7.5 7.5 0 1 0 -15 0zM693.29 541.64 a7.5 7.5 0 1 0 15 0 a7.5 7.5 0 1 0 -15 0zM888.15 279.14 a7.5 7.5 0 1 0 15 0 a7.5 7.5 0 1 0 -15 0zM953.1 316.64 a7.5 7.5 0 1 0 15 0 a7.5 7.5 0 1 0 -15 0zM953.1 391.64 a7.5 7.5 0 1 0 15 0 a7.5 7.5 0 1 0 -15 0zM888.15 429.14 a7.5 7.5 0 1 0 15 0 a7.5 7.5 0 1 0 -15 0zM823.19 391.64 a7.5 7.5 0 1 0 15 0 a7.5 7.5 0 1 0 -15 0zM823.19 316.64 a7.5 7.5 0 1 0 15 0 a7.5 7.5 0 1 0 -15 0zM888.15 504.14 a7.5 7.5 0 1 0 15 0 a7.5 7.5 0 1 0 -15 0zM953.1 541.64 a7.5 7.5 0 1 0 15 0 a7.5 7.5 0 1 0 -15 0zM953.1 616.64 a7.5 7.5 0 1 0 15 0 a7.5 7.5 0 1 0 -15 0zM888.15 654.14 a7.5 7.5 0 1 0 15 0 a7.5 7.5 0 1 0 -15 0zM823.19 616.64 a7.5 7.5 0 1 0 15 0 a7.5 7.5 0 1 0 -15 0zM823.19 541.64 a7.5 7.5 0 1 0 15 0 a7.5 7.5 0 1 0 -15 0zM953.1 -58.36 a7.5 7.5 0 1 0 15 0 a7.5 7.5 0 1 0 -15 0zM1018.06 -20.86 a7.5 7.5 0 1 0 15 0 a7.5 7.5 0 1 0 -15 0zM1018.06 54.14 a7.5 7.5 0 1 0 15 0 a7.5 7.5 0 1 0 -15 0zM953.1 91.64 a7.5 7.5 0 1 0 15 0 a7.5 7.5 0 1 0 -15 0zM888.15 54.14 a7.5 7.5 0 1 0 15 0 a7.5 7.5 0 1 0 -15 0zM888.15 -20.86 a7.5 7.5 0 1 0 15 0 a7.5 7.5 0 1 0 -15 0zM1083.01 391.64 a7.5 7.5 0 1 0 15 0 a7.5 7.5 0 1 0 -15 0zM1147.96 429.14 a7.5 7.5 0 1 0 15 0 a7.5 7.5 0 1 0 -15 0zM1147.96 504.14 a7.5 7.5 0 1 0 15 0 a7.5 7.5 0 1 0 -15 0zM1083.01 541.64 a7.5 7.5 0 1 0 15 0 a7.5 7.5 0 1 0 -15 0zM1018.06 504.14 a7.5 7.5 0 1 0 15 0 a7.5 7.5 0 1 0 -15 0zM1018.06 429.14 a7.5 7.5 0 1 0 15 0 a7.5 7.5 0 1 0 -15 0zM1277.87 279.14 a7.5 7.5 0 1 0 15 0 a7.5 7.5 0 1 0 -15 0zM1342.82 316.64 a7.5 7.5 0 1 0 15 0 a7.5 7.5 0 1 0 -15 0zM1342.82 391.64 a7.5 7.5 0 1 0 15 0 a7.5 7.5 0 1 0 -15 0zM1277.87 429.14 a7.5 7.5 0 1 0 15 0 a7.5 7.5 0 1 0 -15 0zM1212.92 391.64 a7.5 7.5 0 1 0 15 0 a7.5 7.5 0 1 0 -15 0zM1212.92 316.64 a7.5 7.5 0 1 0 15 0 a7.5 7.5 0 1 0 -15 0zM1407.78 279.14 a7.5 7.5 0 1 0 15 0 a7.5 7.5 0 1 0 -15 0zM1472.73 316.64 a7.5 7.5 0 1 0 15 0 a7.5 7.5 0 1 0 -15 0zM1472.73 391.64 a7.5 7.5 0 1 0 15 0 a7.5 7.5 0 1 0 -15 0zM1407.78 429.14 a7.5 7.5 0 1 0 15 0 a7.5 7.5 0 1 0 -15 0zM1342.83 391.64 a7.5 7.5 0 1 0 15 0 a7.5 7.5 0 1 0 -15 0zM1342.83 316.64 a7.5 7.5 0 1 0 15 0 a7.5 7.5 0 1 0 -15 0zM1407.78 504.14 a7.5 7.5 0 1 0 15 0 a7.5 7.5 0 1 0 -15 0zM1472.73 541.64 a7.5 7.5 0 1 0 15 0 a7.5 7.5 0 1 0 -15 0zM1472.73 616.64 a7.5 7.5 0 1 0 15 0 a7.5 7.5 0 1 0 -15 0zM1407.78 654.14 a7.5 7.5 0 1 0 15 0 a7.5 7.5 0 1 0 -15 0zM1342.83 616.64 a7.5 7.5 0 1 0 15 0 a7.5 7.5 0 1 0 -15 0zM1342.83 541.64 a7.5 7.5 0 1 0 15 0 a7.5 7.5 0 1 0 -15 0zM1472.73 -58.36 a7.5 7.5 0 1 0 15 0 a7.5 7.5 0 1 0 -15 0zM1537.69 -20.86 a7.5 7.5 0 1 0 15 0 a7.5 7.5 0 1 0 -15 0zM1537.69 54.14 a7.5 7.5 0 1 0 15 0 a7.5 7.5 0 1 0 -15 0zM1472.73 91.64 a7.5 7.5 0 1 0 15 0 a7.5 7.5 0 1 0 -15 0zM1407.78 54.14 a7.5 7.5 0 1 0 15 0 a7.5 7.5 0 1 0 -15 0zM1407.78 -20.86 a7.5 7.5 0 1 0 15 0 a7.5 7.5 0 1 0 -15 0zM1537.69 279.14 a7.5 7.5 0 1 0 15 0 a7.5 7.5 0 1 0 -15 0zM1602.64 316.64 a7.5 7.5 0 1 0 15 0 a7.5 7.5 0 1 0 -15 0zM1602.64 391.64 a7.5 7.5 0 1 0 15 0 a7.5 7.5 0 1 0 -15 0zM1537.69 429.14 a7.5 7.5 0 1 0 15 0 a7.5 7.5 0 1 0 -15 0z" fill="rgba(189, 205, 29, 1)"></path><path d="M35.91 -14.75L79.21 10.25L79.21 60.25L35.91 85.25L-7.39 60.25L-7.39 10.25zM79.21 210.25L122.52 235.25L122.52 285.25L79.21 310.25L35.91 285.25L35.91 235.25zM35.91 285.25L79.21 310.25L79.21 360.25L35.91 385.25L-7.39 360.25L-7.39 310.25zM79.21 510.25L122.52 535.25L122.52 585.25L79.21 610.25L35.91 585.25L35.91 535.25zM165.82 60.25L209.12 85.25L209.12 135.25L165.82 160.25L122.52 135.25L122.52 85.25zM122.52 135.25L165.82 160.25L165.82 210.25L122.52 235.25L79.21 210.25L79.21 160.25zM165.82 210.25L209.12 235.25L209.12 285.25L165.82 310.25L122.52 285.25L122.52 235.25zM122.52 285.25L165.82 310.25L165.82 360.25L122.52 385.25L79.21 360.25L79.21 310.25zM209.12 435.25L252.42 460.25L252.42 510.25L209.12 535.25L165.82 510.25L165.82 460.25zM295.73 -14.75L339.03 10.25L339.03 60.25L295.73 85.25L252.42 60.25L252.42 10.25zM339.03 60.25L382.33 85.25L382.33 135.25L339.03 160.25L295.73 135.25L295.73 85.25zM295.73 135.25L339.03 160.25L339.03 210.25L295.73 235.25L252.42 210.25L252.42 160.25zM339.03 210.25L382.33 235.25L382.33 285.25L339.03 310.25L295.73 285.25L295.73 235.25zM295.73 285.25L339.03 310.25L339.03 360.25L295.73 385.25L252.42 360.25L252.42 310.25zM339.03 360.25L382.33 385.25L382.33 435.25L339.03 460.25L295.73 435.25L295.73 385.25zM382.33 -14.75L425.63 10.25L425.63 60.25L382.33 85.25L339.03 60.25L339.03 10.25zM425.63 60.25L468.94 85.25L468.94 135.25L425.63 160.25L382.33 135.25L382.33 85.25zM425.63 210.25L468.94 235.25L468.94 285.25L425.63 310.25L382.33 285.25L382.33 235.25zM382.33 435.25L425.63 460.25L425.63 510.25L382.33 535.25L339.03 510.25L339.03 460.25zM425.63 510.25L468.94 535.25L468.94 585.25L425.63 610.25L382.33 585.25L382.33 535.25zM468.94 135.25L512.24 160.25L512.24 210.25L468.94 235.25L425.63 210.25L425.63 160.25zM468.94 285.25L512.24 310.25L512.24 360.25L468.94 385.25L425.63 360.25L425.63 310.25zM512.24 360.25L555.54 385.25L555.54 435.25L512.24 460.25L468.94 435.25L468.94 385.25zM468.94 435.25L512.24 460.25L512.24 510.25L468.94 535.25L425.63 510.25L425.63 460.25zM598.84 210.25L642.14 235.25L642.14 285.25L598.84 310.25L555.54 285.25L555.54 235.25zM598.84 360.25L642.14 385.25L642.14 435.25L598.84 460.25L555.54 435.25L555.54 385.25zM642.14 135.25L685.45 160.25L685.45 210.25L642.14 235.25L598.84 210.25L598.84 160.25zM685.45 360.25L728.75 385.25L728.75 435.25L685.45 460.25L642.14 435.25L642.14 385.25zM772.05 60.25L815.36 85.25L815.36 135.25L772.05 160.25L728.75 135.25L728.75 85.25zM728.75 285.25L772.05 310.25L772.05 360.25L728.75 385.25L685.45 360.25L685.45 310.25zM728.75 435.25L772.05 460.25L772.05 510.25L728.75 535.25L685.45 510.25L685.45 460.25zM815.36 -14.75L858.66 10.25L858.66 60.25L815.36 85.25L772.05 60.25L772.05 10.25zM858.66 510.25L901.96 535.25L901.96 585.25L858.66 610.25L815.36 585.25L815.36 535.25zM901.96 -14.75L945.26 10.25L945.26 60.25L901.96 85.25L858.66 60.25L858.66 10.25zM901.96 285.25L945.26 310.25L945.26 360.25L901.96 385.25L858.66 360.25L858.66 310.25zM901.96 435.25L945.26 460.25L945.26 510.25L901.96 535.25L858.66 510.25L858.66 460.25zM945.26 510.25L988.57 535.25L988.57 585.25L945.26 610.25L901.96 585.25L901.96 535.25zM988.57 -14.75L1031.87 10.25L1031.87 60.25L988.57 85.25L945.26 60.25L945.26 10.25zM1031.87 60.25L1075.17 85.25L1075.17 135.25L1031.87 160.25L988.57 135.25L988.57 85.25zM1031.87 510.25L1075.17 535.25L1075.17 585.25L1031.87 610.25L988.57 585.25L988.57 535.25zM1118.47 60.25L1161.78 85.25L1161.78 135.25L1118.47 160.25L1075.17 135.25L1075.17 85.25zM1075.17 135.25L1118.47 160.25L1118.47 210.25L1075.17 235.25L1031.87 210.25L1031.87 160.25zM1118.47 210.25L1161.78 235.25L1161.78 285.25L1118.47 310.25L1075.17 285.25L1075.17 235.25zM1205.08 60.25L1248.38 85.25L1248.38 135.25L1205.08 160.25L1161.78 135.25L1161.78 85.25zM1161.78 135.25L1205.08 160.25L1205.08 210.25L1161.78 235.25L1118.47 210.25L1118.47 160.25zM1205.08 210.25L1248.38 235.25L1248.38 285.25L1205.08 310.25L1161.78 285.25L1161.78 235.25zM1205.08 360.25L1248.38 385.25L1248.38 435.25L1205.08 460.25L1161.78 435.25L1161.78 385.25zM1248.38 135.25L1291.68 160.25L1291.68 210.25L1248.38 235.25L1205.08 210.25L1205.08 160.25zM1291.68 210.25L1334.99 235.25L1334.99 285.25L1291.68 310.25L1248.38 285.25L1248.38 235.25zM1378.29 60.25L1421.59 85.25L1421.59 135.25L1378.29 160.25L1334.99 135.25L1334.99 85.25zM1334.99 135.25L1378.29 160.25L1378.29 210.25L1334.99 235.25L1291.68 210.25L1291.68 160.25zM1378.29 360.25L1421.59 385.25L1421.59 435.25L1378.29 460.25L1334.99 435.25L1334.99 385.25zM1464.89 210.25L1508.2 235.25L1508.2 285.25L1464.89 310.25L1421.59 285.25L1421.59 235.25zM1464.89 510.25L1508.2 535.25L1508.2 585.25L1464.89 610.25L1421.59 585.25L1421.59 535.25z" stroke="rgba(225, 247, 1, 0.93)" stroke-width="2"></path></g><defs><mask id="SvgjsMask1008"><rect width="1440" height="560" fill="#ffffff"></rect></mask></defs></svg>