<svg xmlns="http://www.w3.org/2000/svg" version="1.1" xmlns:xlink="http://www.w3.org/1999/xlink" xmlns:svgjs="http://svgjs.com/svgjs" width="1440" height="560" preserveAspectRatio="none" viewBox="0 0 1440 560"><g mask="url(&quot;#SvgjsMask1011&quot;)" fill="none"><path d="M91.73 104.98L156.69 142.48L156.69 217.48L91.73 254.98L26.78 217.48L26.78 142.48zM91.73 329.98L156.69 367.48L156.69 442.48L91.73 479.98L26.78 442.48L26.78 367.48zM156.69 442.48L221.64 479.98L221.64 554.98L156.69 592.48L91.73 554.98L91.73 479.98zM286.6 217.48L351.55 254.98L351.55 329.98L286.6 367.48L221.64 329.98L221.64 254.98zM286.6 442.48L351.55 479.98L351.55 554.98L286.6 592.48L221.64 554.98L221.64 479.98zM351.55 554.98L416.5 592.48L416.5 667.48L351.55 704.98L286.6 667.48L286.6 592.48zM416.5 217.48L481.46 254.98L481.46 329.98L416.5 367.48L351.55 329.98L351.55 254.98zM481.46 329.98L546.41 367.48L546.41 442.48L481.46 479.98L416.5 442.48L416.5 367.48zM416.5 442.48L481.46 479.98L481.46 554.98L416.5 592.48L351.55 554.98L351.55 479.98zM546.41 -7.52L611.36 29.98L611.36 104.98L546.41 142.48L481.46 104.98L481.46 29.98zM546.41 217.48L611.36 254.98L611.36 329.98L546.41 367.48L481.46 329.98L481.46 254.98zM546.41 442.48L611.36 479.98L611.36 554.98L546.41 592.48L481.46 554.98L481.46 479.98zM611.36 554.98L676.32 592.48L676.32 667.48L611.36 704.98L546.41 667.48L546.41 592.48zM871.18 104.98L936.13 142.48L936.13 217.48L871.18 254.98L806.22 217.48L806.22 142.48zM806.22 442.48L871.18 479.98L871.18 554.98L806.22 592.48L741.27 554.98L741.27 479.98zM936.13 -7.52L1001.09 29.98L1001.09 104.98L936.13 142.48L871.18 104.98L871.18 29.98zM1001.09 104.98L1066.04 142.48L1066.04 217.48L1001.09 254.98L936.13 217.48L936.13 142.48zM1130.99 104.98L1195.95 142.48L1195.95 217.48L1130.99 254.98L1066.04 217.48L1066.04 142.48zM1066.04 442.48L1130.99 479.98L1130.99 554.98L1066.04 592.48L1001.09 554.98L1001.09 479.98zM1260.9 104.98L1325.85 142.48L1325.85 217.48L1260.9 254.98L1195.95 217.48L1195.95 142.48zM1260.9 329.98L1325.85 367.48L1325.85 442.48L1260.9 479.98L1195.95 442.48L1195.95 367.48zM1325.86 -7.52L1390.81 29.98L1390.81 104.98L1325.86 142.48L1260.9 104.98L1260.9 29.98zM1390.81 104.98L1455.76 142.48L1455.76 217.48L1390.81 254.98L1325.86 217.48L1325.86 142.48zM1325.86 442.48L1390.81 479.98L1390.81 554.98L1325.86 592.48L1260.9 554.98L1260.9 479.98zM1455.76 -7.52L1520.72 29.98L1520.72 104.98L1455.76 142.48L1390.81 104.98L1390.81 29.98zM1520.72 104.98L1585.67 142.48L1585.67 217.48L1520.72 254.98L1455.76 217.48L1455.76 142.48z" stroke="rgba(228, 241, 249, 1)" stroke-width="2"></path><path d="M84.23 104.98 a7.5 7.5 0 1 0 15 0 a7.5 7.5 0 1 0 -15 0zM149.19 142.48 a7.5 7.5 0 1 0 15 0 a7.5 7.5 0 1 0 -15 0zM149.19 217.48 a7.5 7.5 0 1 0 15 0 a7.5 7.5 0 1 0 -15 0zM84.23 254.98 a7.5 7.5 0 1 0 15 0 a7.5 7.5 0 1 0 -15 0zM19.28 217.48 a7.5 7.5 0 1 0 15 0 a7.5 7.5 0 1 0 -15 0zM19.28 142.48 a7.5 7.5 0 1 0 15 0 a7.5 7.5 0 1 0 -15 0zM84.23 329.98 a7.5 7.5 0 1 0 15 0 a7.5 7.5 0 1 0 -15 0zM149.19 367.48 a7.5 7.5 0 1 0 15 0 a7.5 7.5 0 1 0 -15 0zM149.19 442.48 a7.5 7.5 0 1 0 15 0 a7.5 7.5 0 1 0 -15 0zM84.23 479.98 a7.5 7.5 0 1 0 15 0 a7.5 7.5 0 1 0 -15 0zM19.28 442.48 a7.5 7.5 0 1 0 15 0 a7.5 7.5 0 1 0 -15 0zM19.28 367.48 a7.5 7.5 0 1 0 15 0 a7.5 7.5 0 1 0 -15 0zM214.14 479.98 a7.5 7.5 0 1 0 15 0 a7.5 7.5 0 1 0 -15 0zM214.14 554.98 a7.5 7.5 0 1 0 15 0 a7.5 7.5 0 1 0 -15 0zM149.19 592.48 a7.5 7.5 0 1 0 15 0 a7.5 7.5 0 1 0 -15 0zM84.23 554.98 a7.5 7.5 0 1 0 15 0 a7.5 7.5 0 1 0 -15 0zM279.1 217.48 a7.5 7.5 0 1 0 15 0 a7.5 7.5 0 1 0 -15 0zM344.05 254.98 a7.5 7.5 0 1 0 15 0 a7.5 7.5 0 1 0 -15 0zM344.05 329.98 a7.5 7.5 0 1 0 15 0 a7.5 7.5 0 1 0 -15 0zM279.1 367.48 a7.5 7.5 0 1 0 15 0 a7.5 7.5 0 1 0 -15 0zM214.14 329.98 a7.5 7.5 0 1 0 15 0 a7.5 7.5 0 1 0 -15 0zM214.14 254.98 a7.5 7.5 0 1 0 15 0 a7.5 7.5 0 1 0 -15 0zM279.1 442.48 a7.5 7.5 0 1 0 15 0 a7.5 7.5 0 1 0 -15 0zM344.05 479.98 a7.5 7.5 0 1 0 15 0 a7.5 7.5 0 1 0 -15 0zM344.05 554.98 a7.5 7.5 0 1 0 15 0 a7.5 7.5 0 1 0 -15 0zM279.1 592.48 a7.5 7.5 0 1 0 15 0 a7.5 7.5 0 1 0 -15 0zM409 592.48 a7.5 7.5 0 1 0 15 0 a7.5 7.5 0 1 0 -15 0zM409 667.48 a7.5 7.5 0 1 0 15 0 a7.5 7.5 0 1 0 -15 0zM344.05 704.98 a7.5 7.5 0 1 0 15 0 a7.5 7.5 0 1 0 -15 0zM279.1 667.48 a7.5 7.5 0 1 0 15 0 a7.5 7.5 0 1 0 -15 0zM409 217.48 a7.5 7.5 0 1 0 15 0 a7.5 7.5 0 1 0 -15 0zM473.96 254.98 a7.5 7.5 0 1 0 15 0 a7.5 7.5 0 1 0 -15 0zM473.96 329.98 a7.5 7.5 0 1 0 15 0 a7.5 7.5 0 1 0 -15 0zM409 367.48 a7.5 7.5 0 1 0 15 0 a7.5 7.5 0 1 0 -15 0zM538.91 367.48 a7.5 7.5 0 1 0 15 0 a7.5 7.5 0 1 0 -15 0zM538.91 442.48 a7.5 7.5 0 1 0 15 0 a7.5 7.5 0 1 0 -15 0zM473.96 479.98 a7.5 7.5 0 1 0 15 0 a7.5 7.5 0 1 0 -15 0zM409 442.48 a7.5 7.5 0 1 0 15 0 a7.5 7.5 0 1 0 -15 0zM473.96 554.98 a7.5 7.5 0 1 0 15 0 a7.5 7.5 0 1 0 -15 0zM538.91 -7.52 a7.5 7.5 0 1 0 15 0 a7.5 7.5 0 1 0 -15 0zM603.86 29.98 a7.5 7.5 0 1 0 15 0 a7.5 7.5 0 1 0 -15 0zM603.86 104.98 a7.5 7.5 0 1 0 15 0 a7.5 7.5 0 1 0 -15 0zM538.91 142.48 a7.5 7.5 0 1 0 15 0 a7.5 7.5 0 1 0 -15 0zM473.96 104.98 a7.5 7.5 0 1 0 15 0 a7.5 7.5 0 1 0 -15 0zM473.96 29.98 a7.5 7.5 0 1 0 15 0 a7.5 7.5 0 1 0 -15 0zM538.91 217.48 a7.5 7.5 0 1 0 15 0 a7.5 7.5 0 1 0 -15 0zM603.86 254.98 a7.5 7.5 0 1 0 15 0 a7.5 7.5 0 1 0 -15 0zM603.86 329.98 a7.5 7.5 0 1 0 15 0 a7.5 7.5 0 1 0 -15 0zM603.86 479.98 a7.5 7.5 0 1 0 15 0 a7.5 7.5 0 1 0 -15 0zM603.86 554.98 a7.5 7.5 0 1 0 15 0 a7.5 7.5 0 1 0 -15 0zM538.91 592.48 a7.5 7.5 0 1 0 15 0 a7.5 7.5 0 1 0 -15 0zM668.82 592.48 a7.5 7.5 0 1 0 15 0 a7.5 7.5 0 1 0 -15 0zM668.82 667.48 a7.5 7.5 0 1 0 15 0 a7.5 7.5 0 1 0 -15 0zM603.86 704.98 a7.5 7.5 0 1 0 15 0 a7.5 7.5 0 1 0 -15 0zM538.91 667.48 a7.5 7.5 0 1 0 15 0 a7.5 7.5 0 1 0 -15 0zM863.68 104.98 a7.5 7.5 0 1 0 15 0 a7.5 7.5 0 1 0 -15 0zM928.63 142.48 a7.5 7.5 0 1 0 15 0 a7.5 7.5 0 1 0 -15 0zM928.63 217.48 a7.5 7.5 0 1 0 15 0 a7.5 7.5 0 1 0 -15 0zM863.68 254.98 a7.5 7.5 0 1 0 15 0 a7.5 7.5 0 1 0 -15 0zM798.72 217.48 a7.5 7.5 0 1 0 15 0 a7.5 7.5 0 1 0 -15 0zM798.72 142.48 a7.5 7.5 0 1 0 15 0 a7.5 7.5 0 1 0 -15 0zM798.72 442.48 a7.5 7.5 0 1 0 15 0 a7.5 7.5 0 1 0 -15 0zM863.68 479.98 a7.5 7.5 0 1 0 15 0 a7.5 7.5 0 1 0 -15 0zM863.68 554.98 a7.5 7.5 0 1 0 15 0 a7.5 7.5 0 1 0 -15 0zM798.72 592.48 a7.5 7.5 0 1 0 15 0 a7.5 7.5 0 1 0 -15 0zM733.77 554.98 a7.5 7.5 0 1 0 15 0 a7.5 7.5 0 1 0 -15 0zM733.77 479.98 a7.5 7.5 0 1 0 15 0 a7.5 7.5 0 1 0 -15 0zM928.63 -7.52 a7.5 7.5 0 1 0 15 0 a7.5 7.5 0 1 0 -15 0zM993.59 29.98 a7.5 7.5 0 1 0 15 0 a7.5 7.5 0 1 0 -15 0zM993.59 104.98 a7.5 7.5 0 1 0 15 0 a7.5 7.5 0 1 0 -15 0zM863.68 29.98 a7.5 7.5 0 1 0 15 0 a7.5 7.5 0 1 0 -15 0zM1058.54 142.48 a7.5 7.5 0 1 0 15 0 a7.5 7.5 0 1 0 -15 0zM1058.54 217.48 a7.5 7.5 0 1 0 15 0 a7.5 7.5 0 1 0 -15 0zM993.59 254.98 a7.5 7.5 0 1 0 15 0 a7.5 7.5 0 1 0 -15 0zM1123.49 104.98 a7.5 7.5 0 1 0 15 0 a7.5 7.5 0 1 0 -15 0zM1188.45 142.48 a7.5 7.5 0 1 0 15 0 a7.5 7.5 0 1 0 -15 0zM1188.45 217.48 a7.5 7.5 0 1 0 15 0 a7.5 7.5 0 1 0 -15 0zM1123.49 254.98 a7.5 7.5 0 1 0 15 0 a7.5 7.5 0 1 0 -15 0zM1058.54 442.48 a7.5 7.5 0 1 0 15 0 a7.5 7.5 0 1 0 -15 0zM1123.49 479.98 a7.5 7.5 0 1 0 15 0 a7.5 7.5 0 1 0 -15 0zM1123.49 554.98 a7.5 7.5 0 1 0 15 0 a7.5 7.5 0 1 0 -15 0zM1058.54 592.48 a7.5 7.5 0 1 0 15 0 a7.5 7.5 0 1 0 -15 0zM993.59 554.98 a7.5 7.5 0 1 0 15 0 a7.5 7.5 0 1 0 -15 0zM993.59 479.98 a7.5 7.5 0 1 0 15 0 a7.5 7.5 0 1 0 -15 0zM1253.4 104.98 a7.5 7.5 0 1 0 15 0 a7.5 7.5 0 1 0 -15 0zM1318.35 142.48 a7.5 7.5 0 1 0 15 0 a7.5 7.5 0 1 0 -15 0zM1318.35 217.48 a7.5 7.5 0 1 0 15 0 a7.5 7.5 0 1 0 -15 0zM1253.4 254.98 a7.5 7.5 0 1 0 15 0 a7.5 7.5 0 1 0 -15 0zM1253.4 329.98 a7.5 7.5 0 1 0 15 0 a7.5 7.5 0 1 0 -15 0zM1318.35 367.48 a7.5 7.5 0 1 0 15 0 a7.5 7.5 0 1 0 -15 0zM1318.35 442.48 a7.5 7.5 0 1 0 15 0 a7.5 7.5 0 1 0 -15 0zM1253.4 479.98 a7.5 7.5 0 1 0 15 0 a7.5 7.5 0 1 0 -15 0zM1188.45 442.48 a7.5 7.5 0 1 0 15 0 a7.5 7.5 0 1 0 -15 0zM1188.45 367.48 a7.5 7.5 0 1 0 15 0 a7.5 7.5 0 1 0 -15 0zM1318.36 -7.52 a7.5 7.5 0 1 0 15 0 a7.5 7.5 0 1 0 -15 0zM1383.31 29.98 a7.5 7.5 0 1 0 15 0 a7.5 7.5 0 1 0 -15 0zM1383.31 104.98 a7.5 7.5 0 1 0 15 0 a7.5 7.5 0 1 0 -15 0zM1318.36 142.48 a7.5 7.5 0 1 0 15 0 a7.5 7.5 0 1 0 -15 0zM1253.4 29.98 a7.5 7.5 0 1 0 15 0 a7.5 7.5 0 1 0 -15 0zM1448.26 142.48 a7.5 7.5 0 1 0 15 0 a7.5 7.5 0 1 0 -15 0zM1448.26 217.48 a7.5 7.5 0 1 0 15 0 a7.5 7.5 0 1 0 -15 0zM1383.31 254.98 a7.5 7.5 0 1 0 15 0 a7.5 7.5 0 1 0 -15 0zM1318.36 217.48 a7.5 7.5 0 1 0 15 0 a7.5 7.5 0 1 0 -15 0zM1318.36 442.48 a7.5 7.5 0 1 0 15 0 a7.5 7.5 0 1 0 -15 0zM1383.31 479.98 a7.5 7.5 0 1 0 15 0 a7.5 7.5 0 1 0 -15 0zM1383.31 554.98 a7.5 7.5 0 1 0 15 0 a7.5 7.5 0 1 0 -15 0zM1318.36 592.48 a7.5 7.5 0 1 0 15 0 a7.5 7.5 0 1 0 -15 0zM1253.4 554.98 a7.5 7.5 0 1 0 15 0 a7.5 7.5 0 1 0 -15 0zM1448.26 -7.52 a7.5 7.5 0 1 0 15 0 a7.5 7.5 0 1 0 -15 0zM1513.22 29.98 a7.5 7.5 0 1 0 15 0 a7.5 7.5 0 1 0 -15 0zM1513.22 104.98 a7.5 7.5 0 1 0 15 0 a7.5 7.5 0 1 0 -15 0zM1578.17 142.48 a7.5 7.5 0 1 0 15 0 a7.5 7.5 0 1 0 -15 0zM1578.17 217.48 a7.5 7.5 0 1 0 15 0 a7.5 7.5 0 1 0 -15 0zM1513.22 254.98 a7.5 7.5 0 1 0 15 0 a7.5 7.5 0 1 0 -15 0z" fill="rgba(228, 241, 249, 1)"></path><path d="M26.88 437.43L70.18 462.43L70.18 512.43L26.88 537.43L-16.42 512.43L-16.42 462.43zM200.09 437.43L243.39 462.43L243.39 512.43L200.09 537.43L156.79 512.43L156.79 462.43zM503.21 512.43L546.51 537.43L546.51 587.43L503.21 612.43L459.91 587.43L459.91 537.43zM633.12 137.43L676.42 162.43L676.42 212.43L633.12 237.43L589.81 212.43L589.81 162.43zM719.72 287.43L763.02 312.43L763.02 362.43L719.72 387.43L676.42 362.43L676.42 312.43zM763.02 362.43L806.33 387.43L806.33 437.43L763.02 462.43L719.72 437.43L719.72 387.43zM763.02 512.43L806.33 537.43L806.33 587.43L763.02 612.43L719.72 587.43L719.72 537.43zM1022.84 362.43L1066.14 387.43L1066.14 437.43L1022.84 462.43L979.54 437.43L979.54 387.43zM1109.44 512.43L1152.75 537.43L1152.75 587.43L1109.44 612.43L1066.14 587.43L1066.14 537.43zM1239.35 437.43L1282.65 462.43L1282.65 512.43L1239.35 537.43L1196.05 512.43L1196.05 462.43zM1369.26 362.43L1412.56 387.43L1412.56 437.43L1369.26 462.43L1325.96 437.43L1325.96 387.43zM1455.86 512.43L1499.17 537.43L1499.17 587.43L1455.86 612.43L1412.56 587.43L1412.56 537.43z" stroke="rgba(255, 255, 255, 0.93)" stroke-width="2"></path></g><defs><mask id="SvgjsMask1011"><rect width="1440" height="560" fill="#ffffff"></rect></mask></defs></svg>