<svg xmlns="http://www.w3.org/2000/svg" version="1.1" xmlns:xlink="http://www.w3.org/1999/xlink" xmlns:svgjs="http://svgjs.com/svgjs" width="1440" height="560" preserveAspectRatio="none" viewBox="0 0 1440 560"><g mask="url(&quot;#SvgjsMask1004&quot;)" fill="none"><path d="M68.72 337.19L133.68 374.69L133.68 449.69L68.72 487.19L3.77 449.69L3.77 374.69zM133.68 449.69L198.63 487.19L198.63 562.19L133.68 599.69L68.72 562.19L68.72 487.19zM198.63 562.19L263.58 599.69L263.58 674.69L198.63 712.19L133.68 674.69L133.68 599.69zM328.54 112.19L393.49 149.69L393.49 224.69L328.54 262.19L263.58 224.69L263.58 149.69zM393.49 -0.31L458.45 37.19L458.45 112.19L393.49 149.69L328.54 112.19L328.54 37.19zM393.49 224.69L458.45 262.19L458.45 337.19L393.49 374.69L328.54 337.19L328.54 262.19zM393.49 449.69L458.45 487.19L458.45 562.19L393.49 599.69L328.54 562.19L328.54 487.19zM523.4 -0.31L588.35 37.19L588.35 112.19L523.4 149.69L458.45 112.19L458.45 37.19zM588.35 112.19L653.31 149.69L653.31 224.69L588.35 262.19L523.4 224.69L523.4 149.69zM523.4 224.69L588.35 262.19L588.35 337.19L523.4 374.69L458.45 337.19L458.45 262.19zM718.26 337.19L783.22 374.69L783.22 449.69L718.26 487.19L653.31 449.69L653.31 374.69zM783.21 224.69L848.17 262.19L848.17 337.19L783.21 374.69L718.26 337.19L718.26 262.19zM848.17 337.19L913.12 374.69L913.12 449.69L848.17 487.19L783.21 449.69L783.21 374.69zM913.12 -0.31L978.08 37.19L978.08 112.19L913.12 149.69L848.17 112.19L848.17 37.19zM1043.03 -0.31L1107.98 37.19L1107.98 112.19L1043.03 149.69L978.08 112.19L978.08 37.19zM1107.98 112.19L1172.94 149.69L1172.94 224.69L1107.98 262.19L1043.03 224.69L1043.03 149.69zM1172.94 224.69L1237.89 262.19L1237.89 337.19L1172.94 374.69L1107.98 337.19L1107.98 262.19zM1237.89 337.19L1302.84 374.69L1302.84 449.69L1237.89 487.19L1172.94 449.69L1172.94 374.69zM1237.89 562.19L1302.84 599.69L1302.84 674.69L1237.89 712.19L1172.94 674.69L1172.94 599.69zM1367.8 112.19L1432.75 149.69L1432.75 224.69L1367.8 262.19L1302.85 224.69L1302.85 149.69zM1367.8 337.19L1432.75 374.69L1432.75 449.69L1367.8 487.19L1302.85 449.69L1302.85 374.69z" stroke="rgba(45, 3, 93, 1)" stroke-width="2"></path><path d="M61.22 337.19 a7.5 7.5 0 1 0 15 0 a7.5 7.5 0 1 0 -15 0zM126.18 374.69 a7.5 7.5 0 1 0 15 0 a7.5 7.5 0 1 0 -15 0zM126.18 449.69 a7.5 7.5 0 1 0 15 0 a7.5 7.5 0 1 0 -15 0zM61.22 487.19 a7.5 7.5 0 1 0 15 0 a7.5 7.5 0 1 0 -15 0zM-3.73 449.69 a7.5 7.5 0 1 0 15 0 a7.5 7.5 0 1 0 -15 0zM-3.73 374.69 a7.5 7.5 0 1 0 15 0 a7.5 7.5 0 1 0 -15 0zM191.13 487.19 a7.5 7.5 0 1 0 15 0 a7.5 7.5 0 1 0 -15 0zM191.13 562.19 a7.5 7.5 0 1 0 15 0 a7.5 7.5 0 1 0 -15 0zM126.18 599.69 a7.5 7.5 0 1 0 15 0 a7.5 7.5 0 1 0 -15 0zM61.22 562.19 a7.5 7.5 0 1 0 15 0 a7.5 7.5 0 1 0 -15 0zM256.08 599.69 a7.5 7.5 0 1 0 15 0 a7.5 7.5 0 1 0 -15 0zM256.08 674.69 a7.5 7.5 0 1 0 15 0 a7.5 7.5 0 1 0 -15 0zM191.13 712.19 a7.5 7.5 0 1 0 15 0 a7.5 7.5 0 1 0 -15 0zM126.18 674.69 a7.5 7.5 0 1 0 15 0 a7.5 7.5 0 1 0 -15 0zM321.04 112.19 a7.5 7.5 0 1 0 15 0 a7.5 7.5 0 1 0 -15 0zM385.99 149.69 a7.5 7.5 0 1 0 15 0 a7.5 7.5 0 1 0 -15 0zM385.99 224.69 a7.5 7.5 0 1 0 15 0 a7.5 7.5 0 1 0 -15 0zM321.04 262.19 a7.5 7.5 0 1 0 15 0 a7.5 7.5 0 1 0 -15 0zM256.08 224.69 a7.5 7.5 0 1 0 15 0 a7.5 7.5 0 1 0 -15 0zM256.08 149.69 a7.5 7.5 0 1 0 15 0 a7.5 7.5 0 1 0 -15 0zM385.99 -0.31 a7.5 7.5 0 1 0 15 0 a7.5 7.5 0 1 0 -15 0zM450.95 37.19 a7.5 7.5 0 1 0 15 0 a7.5 7.5 0 1 0 -15 0zM450.95 112.19 a7.5 7.5 0 1 0 15 0 a7.5 7.5 0 1 0 -15 0zM321.04 37.19 a7.5 7.5 0 1 0 15 0 a7.5 7.5 0 1 0 -15 0zM450.95 262.19 a7.5 7.5 0 1 0 15 0 a7.5 7.5 0 1 0 -15 0zM450.95 337.19 a7.5 7.5 0 1 0 15 0 a7.5 7.5 0 1 0 -15 0zM385.99 374.69 a7.5 7.5 0 1 0 15 0 a7.5 7.5 0 1 0 -15 0zM321.04 337.19 a7.5 7.5 0 1 0 15 0 a7.5 7.5 0 1 0 -15 0zM385.99 449.69 a7.5 7.5 0 1 0 15 0 a7.5 7.5 0 1 0 -15 0zM450.95 487.19 a7.5 7.5 0 1 0 15 0 a7.5 7.5 0 1 0 -15 0zM450.95 562.19 a7.5 7.5 0 1 0 15 0 a7.5 7.5 0 1 0 -15 0zM385.99 599.69 a7.5 7.5 0 1 0 15 0 a7.5 7.5 0 1 0 -15 0zM321.04 562.19 a7.5 7.5 0 1 0 15 0 a7.5 7.5 0 1 0 -15 0zM321.04 487.19 a7.5 7.5 0 1 0 15 0 a7.5 7.5 0 1 0 -15 0zM515.9 -0.31 a7.5 7.5 0 1 0 15 0 a7.5 7.5 0 1 0 -15 0zM580.85 37.19 a7.5 7.5 0 1 0 15 0 a7.5 7.5 0 1 0 -15 0zM580.85 112.19 a7.5 7.5 0 1 0 15 0 a7.5 7.5 0 1 0 -15 0zM515.9 149.69 a7.5 7.5 0 1 0 15 0 a7.5 7.5 0 1 0 -15 0zM645.81 149.69 a7.5 7.5 0 1 0 15 0 a7.5 7.5 0 1 0 -15 0zM645.81 224.69 a7.5 7.5 0 1 0 15 0 a7.5 7.5 0 1 0 -15 0zM580.85 262.19 a7.5 7.5 0 1 0 15 0 a7.5 7.5 0 1 0 -15 0zM515.9 224.69 a7.5 7.5 0 1 0 15 0 a7.5 7.5 0 1 0 -15 0zM580.85 337.19 a7.5 7.5 0 1 0 15 0 a7.5 7.5 0 1 0 -15 0zM515.9 374.69 a7.5 7.5 0 1 0 15 0 a7.5 7.5 0 1 0 -15 0zM710.76 337.19 a7.5 7.5 0 1 0 15 0 a7.5 7.5 0 1 0 -15 0zM775.72 374.69 a7.5 7.5 0 1 0 15 0 a7.5 7.5 0 1 0 -15 0zM775.72 449.69 a7.5 7.5 0 1 0 15 0 a7.5 7.5 0 1 0 -15 0zM710.76 487.19 a7.5 7.5 0 1 0 15 0 a7.5 7.5 0 1 0 -15 0zM645.81 449.69 a7.5 7.5 0 1 0 15 0 a7.5 7.5 0 1 0 -15 0zM645.81 374.69 a7.5 7.5 0 1 0 15 0 a7.5 7.5 0 1 0 -15 0zM775.71 224.69 a7.5 7.5 0 1 0 15 0 a7.5 7.5 0 1 0 -15 0zM840.67 262.19 a7.5 7.5 0 1 0 15 0 a7.5 7.5 0 1 0 -15 0zM840.67 337.19 a7.5 7.5 0 1 0 15 0 a7.5 7.5 0 1 0 -15 0zM775.71 374.69 a7.5 7.5 0 1 0 15 0 a7.5 7.5 0 1 0 -15 0zM710.76 262.19 a7.5 7.5 0 1 0 15 0 a7.5 7.5 0 1 0 -15 0zM905.62 374.69 a7.5 7.5 0 1 0 15 0 a7.5 7.5 0 1 0 -15 0zM905.62 449.69 a7.5 7.5 0 1 0 15 0 a7.5 7.5 0 1 0 -15 0zM840.67 487.19 a7.5 7.5 0 1 0 15 0 a7.5 7.5 0 1 0 -15 0zM775.71 449.69 a7.5 7.5 0 1 0 15 0 a7.5 7.5 0 1 0 -15 0zM905.62 -0.31 a7.5 7.5 0 1 0 15 0 a7.5 7.5 0 1 0 -15 0zM970.58 37.19 a7.5 7.5 0 1 0 15 0 a7.5 7.5 0 1 0 -15 0zM970.58 112.19 a7.5 7.5 0 1 0 15 0 a7.5 7.5 0 1 0 -15 0zM905.62 149.69 a7.5 7.5 0 1 0 15 0 a7.5 7.5 0 1 0 -15 0zM840.67 112.19 a7.5 7.5 0 1 0 15 0 a7.5 7.5 0 1 0 -15 0zM840.67 37.19 a7.5 7.5 0 1 0 15 0 a7.5 7.5 0 1 0 -15 0zM1035.53 -0.31 a7.5 7.5 0 1 0 15 0 a7.5 7.5 0 1 0 -15 0zM1100.48 37.19 a7.5 7.5 0 1 0 15 0 a7.5 7.5 0 1 0 -15 0zM1100.48 112.19 a7.5 7.5 0 1 0 15 0 a7.5 7.5 0 1 0 -15 0zM1035.53 149.69 a7.5 7.5 0 1 0 15 0 a7.5 7.5 0 1 0 -15 0zM1165.44 149.69 a7.5 7.5 0 1 0 15 0 a7.5 7.5 0 1 0 -15 0zM1165.44 224.69 a7.5 7.5 0 1 0 15 0 a7.5 7.5 0 1 0 -15 0zM1100.48 262.19 a7.5 7.5 0 1 0 15 0 a7.5 7.5 0 1 0 -15 0zM1035.53 224.69 a7.5 7.5 0 1 0 15 0 a7.5 7.5 0 1 0 -15 0zM1230.39 262.19 a7.5 7.5 0 1 0 15 0 a7.5 7.5 0 1 0 -15 0zM1230.39 337.19 a7.5 7.5 0 1 0 15 0 a7.5 7.5 0 1 0 -15 0zM1165.44 374.69 a7.5 7.5 0 1 0 15 0 a7.5 7.5 0 1 0 -15 0zM1100.48 337.19 a7.5 7.5 0 1 0 15 0 a7.5 7.5 0 1 0 -15 0zM1295.34 374.69 a7.5 7.5 0 1 0 15 0 a7.5 7.5 0 1 0 -15 0zM1295.34 449.69 a7.5 7.5 0 1 0 15 0 a7.5 7.5 0 1 0 -15 0zM1230.39 487.19 a7.5 7.5 0 1 0 15 0 a7.5 7.5 0 1 0 -15 0zM1165.44 449.69 a7.5 7.5 0 1 0 15 0 a7.5 7.5 0 1 0 -15 0zM1230.39 562.19 a7.5 7.5 0 1 0 15 0 a7.5 7.5 0 1 0 -15 0zM1295.34 599.69 a7.5 7.5 0 1 0 15 0 a7.5 7.5 0 1 0 -15 0zM1295.34 674.69 a7.5 7.5 0 1 0 15 0 a7.5 7.5 0 1 0 -15 0zM1230.39 712.19 a7.5 7.5 0 1 0 15 0 a7.5 7.5 0 1 0 -15 0zM1165.44 674.69 a7.5 7.5 0 1 0 15 0 a7.5 7.5 0 1 0 -15 0zM1165.44 599.69 a7.5 7.5 0 1 0 15 0 a7.5 7.5 0 1 0 -15 0zM1360.3 112.19 a7.5 7.5 0 1 0 15 0 a7.5 7.5 0 1 0 -15 0zM1425.25 149.69 a7.5 7.5 0 1 0 15 0 a7.5 7.5 0 1 0 -15 0zM1425.25 224.69 a7.5 7.5 0 1 0 15 0 a7.5 7.5 0 1 0 -15 0zM1360.3 262.19 a7.5 7.5 0 1 0 15 0 a7.5 7.5 0 1 0 -15 0zM1295.35 224.69 a7.5 7.5 0 1 0 15 0 a7.5 7.5 0 1 0 -15 0zM1295.35 149.69 a7.5 7.5 0 1 0 15 0 a7.5 7.5 0 1 0 -15 0zM1360.3 337.19 a7.5 7.5 0 1 0 15 0 a7.5 7.5 0 1 0 -15 0zM1425.25 374.69 a7.5 7.5 0 1 0 15 0 a7.5 7.5 0 1 0 -15 0zM1425.25 449.69 a7.5 7.5 0 1 0 15 0 a7.5 7.5 0 1 0 -15 0zM1360.3 487.19 a7.5 7.5 0 1 0 15 0 a7.5 7.5 0 1 0 -15 0zM1295.35 449.69 a7.5 7.5 0 1 0 15 0 a7.5 7.5 0 1 0 -15 0zM1295.35 374.69 a7.5 7.5 0 1 0 15 0 a7.5 7.5 0 1 0 -15 0z" fill="rgba(45, 3, 93, 1)"></path><path d="M137.17 221.3L180.47 246.3L180.47 296.3L137.17 321.3L93.87 296.3L93.87 246.3zM93.87 296.3L137.17 321.3L137.17 371.3L93.87 396.3L50.56 371.3L50.56 321.3zM137.17 371.3L180.47 396.3L180.47 446.3L137.17 471.3L93.87 446.3L93.87 396.3zM223.77 371.3L267.07 396.3L267.07 446.3L223.77 471.3L180.47 446.3L180.47 396.3zM180.47 446.3L223.77 471.3L223.77 521.3L180.47 546.3L137.17 521.3L137.17 471.3zM223.77 521.3L267.07 546.3L267.07 596.3L223.77 621.3L180.47 596.3L180.47 546.3zM267.07 -3.7L310.38 21.3L310.38 71.3L267.07 96.3L223.77 71.3L223.77 21.3zM483.59 71.3L526.89 96.3L526.89 146.3L483.59 171.3L440.29 146.3L440.29 96.3zM440.29 146.3L483.59 171.3L483.59 221.3L440.29 246.3L396.98 221.3L396.98 171.3zM570.19 221.3L613.5 246.3L613.5 296.3L570.19 321.3L526.89 296.3L526.89 246.3zM570.19 521.3L613.5 546.3L613.5 596.3L570.19 621.3L526.89 596.3L526.89 546.3zM656.8 221.3L700.1 246.3L700.1 296.3L656.8 321.3L613.5 296.3L613.5 246.3zM656.8 371.3L700.1 396.3L700.1 446.3L656.8 471.3L613.5 446.3L613.5 396.3zM743.4 371.3L786.71 396.3L786.71 446.3L743.4 471.3L700.1 446.3L700.1 396.3zM1089.82 71.3L1133.13 96.3L1133.13 146.3L1089.82 171.3L1046.52 146.3L1046.52 96.3zM1176.43 521.3L1219.73 546.3L1219.73 596.3L1176.43 621.3L1133.13 596.3L1133.13 546.3zM1263.03 521.3L1306.34 546.3L1306.34 596.3L1263.03 621.3L1219.73 596.3L1219.73 546.3zM1306.34 146.3L1349.64 171.3L1349.64 221.3L1306.34 246.3L1263.03 221.3L1263.03 171.3zM1306.34 296.3L1349.64 321.3L1349.64 371.3L1306.34 396.3L1263.03 371.3L1263.03 321.3z" stroke="rgba(61, 6, 156, 0.93)" stroke-width="2"></path></g><defs><mask id="SvgjsMask1004"><rect width="1440" height="560" fill="#ffffff"></rect></mask></defs></svg>