<svg xmlns="http://www.w3.org/2000/svg" version="1.1" xmlns:xlink="http://www.w3.org/1999/xlink" xmlns:svgjs="http://svgjs.com/svgjs" width="1440" height="560" preserveAspectRatio="none" viewBox="0 0 1440 560"><g clip-path="url(&quot;#SvgjsClipPath1056&quot;)" fill="none"><rect width="1440" height="560" x="0" y="0" fill="url(#SvgjsLinearGradient1057)"></rect><circle r="93.335" cx="52.51" cy="-33.51" stroke="#ffffff" stroke-opacity="1" stroke-width="2"></circle><circle r="93.335" cx="403.81" cy="291.64" stroke="#ffffff" stroke-opacity="1" stroke-width="2"></circle><circle r="93.335" cx="762.92" cy="798.42" stroke="#ffffff" stroke-opacity="1" stroke-width="2"></circle><circle r="124.625" cx="949.13" cy="265.54" stroke="#ffffff" stroke-opacity="1" stroke-width="2"></circle><circle r="74.13" cx="44.97" cy="342.27" stroke="#ffffff" stroke-opacity="1" stroke-width="2"></circle><circle r="171.315" cx="562.35" cy="433.25" stroke="#ffffff" stroke-opacity="1" stroke-width="2"></circle><circle r="61.125" cx="757.57" cy="428.95" stroke="#ffffff" stroke-opacity="1" stroke-width="2"></circle><circle r="108.375" cx="503.37" cy="138.12" stroke="#ffffff" stroke-opacity="1" stroke-width="2"></circle><circle r="107.55" cx="972.98" cy="122.68" stroke="#ffffff" stroke-opacity="1" stroke-width="2"></circle><circle r="181.55" cx="847.2" cy="156.49" stroke="#ffffff" stroke-opacity="1" stroke-width="2"></circle><circle r="178.345" cx="941.65" cy="519.42" stroke="#ffffff" stroke-opacity="1" stroke-width="2"></circle><circle r="150.375" cx="17.22" cy="323.17" stroke="#ffffff" stroke-opacity="1" stroke-width="2"></circle><circle r="85" cx="452.2" cy="549.79" stroke="#ffffff" stroke-opacity="1" stroke-width="2"></circle><circle r="165.295" cx="765.85" cy="151.85" stroke="#ffffff" stroke-opacity="1" stroke-width="2"></circle><circle r="77.85" cx="261.59" cy="259.13" stroke="#ffffff" stroke-opacity="1" stroke-width="2"></circle><circle r="131.135" cx="1107.49" cy="254.04" stroke="#ffffff" stroke-opacity="1" stroke-width="2"></circle><circle r="92.315" cx="719.8" cy="467.25" stroke="#ffffff" stroke-opacity="1" stroke-width="2"></circle><circle r="186.5" cx="346.98" cy="200.26" stroke="#ffffff" stroke-opacity="1" stroke-width="2"></circle><circle r="82.815" cx="579.98" cy="533.73" stroke="#ffffff" stroke-opacity="1" stroke-width="2"></circle><circle r="51.365" cx="861.28" cy="182.3" stroke="#ffffff" stroke-opacity="1" stroke-width="2"></circle><circle r="144.075" cx="666.76" cy="499.99" stroke="#ffffff" stroke-opacity="1" stroke-width="2"></circle><circle r="185.515" cx="1205.02" cy="295.59" stroke="#ffffff" stroke-opacity="1" stroke-width="2"></circle><circle r="125.815" cx="988.62" cy="492.93" stroke="#ffffff" stroke-opacity="1" stroke-width="2"></circle><circle r="158.65" cx="408.88" cy="194.58" stroke="#ffffff" stroke-opacity="1" stroke-width="2"></circle><circle r="128.94" cx="1112.02" cy="89.41" stroke="#ffffff" stroke-opacity="1" stroke-width="2"></circle><circle r="151.255" cx="1058.91" cy="183.65" stroke="#ffffff" stroke-opacity="1" stroke-width="2"></circle><circle r="164.6" cx="686.19" cy="89.65" stroke="#ffffff" stroke-opacity="1" stroke-width="2"></circle><circle r="52.245" cx="1414.95" cy="421.51" stroke="#ffffff" stroke-opacity="1" stroke-width="2"></circle><circle r="179.43" cx="110.03" cy="299.54" stroke="#ffffff" stroke-opacity="1" stroke-width="2"></circle><circle r="160.415" cx="915.98" cy="307.57" stroke="#ffffff" stroke-opacity="1" stroke-width="2"></circle><circle r="75.41" cx="776.92" cy="158.06" stroke="#ffffff" stroke-opacity="1" stroke-width="2"></circle><circle r="127.285" cx="363.43" cy="475.1" stroke="#ffffff" stroke-opacity="1" stroke-width="2"></circle><circle r="89.475" cx="228.21" cy="336.37" stroke="#ffffff" stroke-opacity="1" stroke-width="2"></circle><circle r="56.095" cx="75.42" cy="134.32" stroke="#ffffff" stroke-opacity="1" stroke-width="2"></circle><circle r="79.815" cx="923.72" cy="515.77" stroke="#ffffff" stroke-opacity="1" stroke-width="2"></circle><circle r="179.19" cx="1384.8" cy="350.84" stroke="#ffffff" stroke-opacity="1" stroke-width="2"></circle><circle r="70.145" cx="781.38" cy="2.36" stroke="#ffffff" stroke-opacity="1" stroke-width="2"></circle><circle r="160.105" cx="651.48" cy="552.08" stroke="#ffffff" stroke-opacity="1" stroke-width="2"></circle><circle r="63.52" cx="471.55" cy="203.67" stroke="#ffffff" stroke-opacity="1" stroke-width="2"></circle><circle r="81.765" cx="271.82" cy="289.68" stroke="#ffffff" stroke-opacity="1" stroke-width="2"></circle></g><defs><clipPath id="SvgjsClipPath1056"><rect width="1440" height="560" x="0" y="0"></rect></clipPath><linearGradient x1="15.28%" y1="-39.29%" x2="84.72%" y2="139.29%" gradientUnits="userSpaceOnUse" id="SvgjsLinearGradient1057"><stop stop-color="#0e2a47" offset="0"></stop><stop stop-color="rgba(0, 69, 158, 0)" offset="0"></stop></linearGradient></defs></svg>