<svg xmlns="http://www.w3.org/2000/svg" version="1.1" xmlns:xlink="http://www.w3.org/1999/xlink" xmlns:svgjs="http://svgjs.com/svgjs" width="1440" height="560" preserveAspectRatio="none" viewBox="0 0 1440 560"><g mask="url(&quot;#SvgjsMask1076&quot;)" fill="none"><rect width="1440" height="560" x="0" y="0" fill="url(#SvgjsLinearGradient1077)"></rect><path d="M225 544L224 910" stroke-width="6" stroke="url(#SvgjsLinearGradient1078)" stroke-linecap="round" class="Down"></path><path d="M933 322L932 688" stroke-width="10" stroke="url(#SvgjsLinearGradient1079)" stroke-linecap="round" class="Up"></path><path d="M446 22L445 396" stroke-width="8" stroke="url(#SvgjsLinearGradient1079)" stroke-linecap="round" class="Up"></path><path d="M644 267L643 98" stroke-width="10" stroke="url(#SvgjsLinearGradient1078)" stroke-linecap="round" class="Down"></path><path d="M361 96L360 437" stroke-width="8" stroke="url(#SvgjsLinearGradient1078)" stroke-linecap="round" class="Down"></path><path d="M412 528L411 382" stroke-width="10" stroke="url(#SvgjsLinearGradient1079)" stroke-linecap="round" class="Up"></path><path d="M81 73L80 -72" stroke-width="6" stroke="url(#SvgjsLinearGradient1079)" stroke-linecap="round" class="Up"></path><path d="M730 334L729 602" stroke-width="6" stroke="url(#SvgjsLinearGradient1078)" stroke-linecap="round" class="Down"></path><path d="M51 111L50 363" stroke-width="8" stroke="url(#SvgjsLinearGradient1078)" stroke-linecap="round" class="Down"></path><path d="M1043 408L1042 658" stroke-width="8" stroke="url(#SvgjsLinearGradient1078)" stroke-linecap="round" class="Down"></path><path d="M727 257L726 81" stroke-width="10" stroke="url(#SvgjsLinearGradient1079)" stroke-linecap="round" class="Up"></path><path d="M138 154L137 315" stroke-width="10" stroke="url(#SvgjsLinearGradient1079)" stroke-linecap="round" class="Up"></path><path d="M184 356L183 738" stroke-width="10" stroke="url(#SvgjsLinearGradient1078)" stroke-linecap="round" class="Down"></path><path d="M472 466L471 641" stroke-width="6" stroke="url(#SvgjsLinearGradient1078)" stroke-linecap="round" class="Down"></path><path d="M363 335L362 719" stroke-width="6" stroke="url(#SvgjsLinearGradient1078)" stroke-linecap="round" class="Down"></path><path d="M309 187L308 431" stroke-width="6" stroke="url(#SvgjsLinearGradient1079)" stroke-linecap="round" class="Up"></path><path d="M1288 78L1287 492" stroke-width="8" stroke="url(#SvgjsLinearGradient1078)" stroke-linecap="round" class="Down"></path><path d="M487 45L486 199" stroke-width="6" stroke="url(#SvgjsLinearGradient1078)" stroke-linecap="round" class="Down"></path><path d="M113 48L112 -165" stroke-width="6" stroke="url(#SvgjsLinearGradient1078)" stroke-linecap="round" class="Down"></path><path d="M427 508L426 827" stroke-width="8" stroke="url(#SvgjsLinearGradient1079)" stroke-linecap="round" class="Up"></path><path d="M657 352L656 163" stroke-width="10" stroke="url(#SvgjsLinearGradient1079)" stroke-linecap="round" class="Up"></path><path d="M835 168L834 553" stroke-width="10" stroke="url(#SvgjsLinearGradient1079)" stroke-linecap="round" class="Up"></path><path d="M862 313L861 666" stroke-width="8" stroke="url(#SvgjsLinearGradient1078)" stroke-linecap="round" class="Down"></path><path d="M630 17L629 259" stroke-width="8" stroke="url(#SvgjsLinearGradient1078)" stroke-linecap="round" class="Down"></path><path d="M120 559L119 815" stroke-width="10" stroke="url(#SvgjsLinearGradient1079)" stroke-linecap="round" class="Up"></path><path d="M1079 67L1078 244" stroke-width="8" stroke="url(#SvgjsLinearGradient1079)" stroke-linecap="round" class="Up"></path><path d="M1269 175L1268 -130" stroke-width="8" stroke="url(#SvgjsLinearGradient1079)" stroke-linecap="round" class="Up"></path><path d="M509 209L508 -183" stroke-width="6" stroke="url(#SvgjsLinearGradient1079)" stroke-linecap="round" class="Up"></path><path d="M1119 170L1118 -165" stroke-width="6" stroke="url(#SvgjsLinearGradient1079)" stroke-linecap="round" class="Up"></path><path d="M805 200L804 361" stroke-width="6" stroke="url(#SvgjsLinearGradient1078)" stroke-linecap="round" class="Down"></path><path d="M1176 120L1175 -136" stroke-width="6" stroke="url(#SvgjsLinearGradient1078)" stroke-linecap="round" class="Down"></path><path d="M1439 328L1438 3" stroke-width="8" stroke="url(#SvgjsLinearGradient1078)" stroke-linecap="round" class="Down"></path><path d="M957 266L956 511" stroke-width="10" stroke="url(#SvgjsLinearGradient1078)" stroke-linecap="round" class="Down"></path><path d="M85 345L84 688" stroke-width="8" stroke="url(#SvgjsLinearGradient1078)" stroke-linecap="round" class="Down"></path><path d="M904 531L903 771" stroke-width="10" stroke="url(#SvgjsLinearGradient1079)" stroke-linecap="round" class="Up"></path><path d="M193 423L192 100" stroke-width="10" stroke="url(#SvgjsLinearGradient1078)" stroke-linecap="round" class="Down"></path></g><defs><mask id="SvgjsMask1076"><rect width="1440" height="560" fill="#ffffff"></rect></mask><linearGradient x1="15.28%" y1="-39.29%" x2="84.72%" y2="139.29%" gradientUnits="userSpaceOnUse" id="SvgjsLinearGradient1077"><stop stop-color="rgba(0, 0, 0, 1)" offset="0"></stop><stop stop-color="rgba(255, 255, 255, 0)" offset="0"></stop><stop stop-color="rgba(255, 255, 255, 0)" offset="0.37"></stop><stop stop-color="rgba(255, 255, 255, 0)" offset="1"></stop></linearGradient><linearGradient x1="0%" y1="0%" x2="0%" y2="100%" id="SvgjsLinearGradient1078"><stop stop-color="rgba(255, 199, 0, 0)" offset="0"></stop><stop stop-color="rgba(255, 199, 0, 1)" offset="1"></stop></linearGradient><linearGradient x1="0%" y1="100%" x2="0%" y2="0%" id="SvgjsLinearGradient1079"><stop stop-color="rgba(255, 199, 0, 0)" offset="0"></stop><stop stop-color="rgba(255, 199, 0, 1)" offset="1"></stop></linearGradient></defs></svg>