<svg xmlns="http://www.w3.org/2000/svg" version="1.1" xmlns:xlink="http://www.w3.org/1999/xlink" xmlns:svgjs="http://svgjs.com/svgjs" width="1440" height="560" preserveAspectRatio="none" viewBox="0 0 1440 560"><g mask="url(&quot;#SvgjsMask1036&quot;)" fill="none"><rect width="1440" height="560" x="0" y="0" fill="url(#SvgjsLinearGradient1037)"></rect><path d="M30 122L29 -25" stroke-width="8" stroke="url(#SvgjsLinearGradient1038)" stroke-linecap="round" class="Up"></path><path d="M1365 225L1364 483" stroke-width="8" stroke="url(#SvgjsLinearGradient1038)" stroke-linecap="round" class="Up"></path><path d="M589 440L588 200" stroke-width="6" stroke="url(#SvgjsLinearGradient1039)" stroke-linecap="round" class="Down"></path><path d="M625 97L624 349" stroke-width="10" stroke="url(#SvgjsLinearGradient1038)" stroke-linecap="round" class="Up"></path><path d="M893 383L892 93" stroke-width="10" stroke="url(#SvgjsLinearGradient1038)" stroke-linecap="round" class="Up"></path><path d="M197 181L196 323" stroke-width="6" stroke="url(#SvgjsLinearGradient1038)" stroke-linecap="round" class="Up"></path><path d="M812 2L811 -295" stroke-width="8" stroke="url(#SvgjsLinearGradient1038)" stroke-linecap="round" class="Up"></path><path d="M820 531L819 228" stroke-width="6" stroke="url(#SvgjsLinearGradient1038)" stroke-linecap="round" class="Up"></path><path d="M703 182L702 483" stroke-width="8" stroke="url(#SvgjsLinearGradient1038)" stroke-linecap="round" class="Up"></path><path d="M1083 240L1082 54" stroke-width="8" stroke="url(#SvgjsLinearGradient1039)" stroke-linecap="round" class="Down"></path><path d="M1210 35L1209 350" stroke-width="6" stroke="url(#SvgjsLinearGradient1038)" stroke-linecap="round" class="Up"></path><path d="M1430 81L1429 322" stroke-width="8" stroke="url(#SvgjsLinearGradient1038)" stroke-linecap="round" class="Up"></path><path d="M1161 480L1160 753" stroke-width="8" stroke="url(#SvgjsLinearGradient1038)" stroke-linecap="round" class="Up"></path><path d="M847 381L846 125" stroke-width="6" stroke="url(#SvgjsLinearGradient1038)" stroke-linecap="round" class="Up"></path><path d="M1113 166L1112 13" stroke-width="6" stroke="url(#SvgjsLinearGradient1039)" stroke-linecap="round" class="Down"></path><path d="M353 24L352 -317" stroke-width="10" stroke="url(#SvgjsLinearGradient1038)" stroke-linecap="round" class="Up"></path><path d="M409 187L408 -95" stroke-width="10" stroke="url(#SvgjsLinearGradient1038)" stroke-linecap="round" class="Up"></path><path d="M386 354L385 652" stroke-width="10" stroke="url(#SvgjsLinearGradient1039)" stroke-linecap="round" class="Down"></path><path d="M1271 130L1270 -168" stroke-width="8" stroke="url(#SvgjsLinearGradient1038)" stroke-linecap="round" class="Up"></path><path d="M146 433L145 840" stroke-width="6" stroke="url(#SvgjsLinearGradient1039)" stroke-linecap="round" class="Down"></path><path d="M764 405L763 260" stroke-width="6" stroke="url(#SvgjsLinearGradient1039)" stroke-linecap="round" class="Down"></path><path d="M897 260L896 -20" stroke-width="10" stroke="url(#SvgjsLinearGradient1038)" stroke-linecap="round" class="Up"></path><path d="M779 176L778 -205" stroke-width="6" stroke="url(#SvgjsLinearGradient1038)" stroke-linecap="round" class="Up"></path><path d="M1062 209L1061 361" stroke-width="8" stroke="url(#SvgjsLinearGradient1039)" stroke-linecap="round" class="Down"></path><path d="M239 212L238 588" stroke-width="10" stroke="url(#SvgjsLinearGradient1038)" stroke-linecap="round" class="Up"></path><path d="M1335 33L1334 -128" stroke-width="10" stroke="url(#SvgjsLinearGradient1039)" stroke-linecap="round" class="Down"></path><path d="M1110 280L1109 675" stroke-width="10" stroke="url(#SvgjsLinearGradient1039)" stroke-linecap="round" class="Down"></path><path d="M838 196L837 -36" stroke-width="6" stroke="url(#SvgjsLinearGradient1039)" stroke-linecap="round" class="Down"></path><path d="M857 462L856 830" stroke-width="8" stroke="url(#SvgjsLinearGradient1038)" stroke-linecap="round" class="Up"></path><path d="M318 103L317 262" stroke-width="6" stroke="url(#SvgjsLinearGradient1038)" stroke-linecap="round" class="Up"></path><path d="M1204 1L1203 -202" stroke-width="10" stroke="url(#SvgjsLinearGradient1039)" stroke-linecap="round" class="Down"></path><path d="M263 199L262 394" stroke-width="6" stroke="url(#SvgjsLinearGradient1038)" stroke-linecap="round" class="Up"></path><path d="M895 438L894 849" stroke-width="8" stroke="url(#SvgjsLinearGradient1038)" stroke-linecap="round" class="Up"></path><path d="M183 214L182 -179" stroke-width="8" stroke="url(#SvgjsLinearGradient1039)" stroke-linecap="round" class="Down"></path><path d="M1234 110L1233 -135" stroke-width="10" stroke="url(#SvgjsLinearGradient1038)" stroke-linecap="round" class="Up"></path><path d="M942 499L941 683" stroke-width="8" stroke="url(#SvgjsLinearGradient1038)" stroke-linecap="round" class="Up"></path></g><defs><mask id="SvgjsMask1036"><rect width="1440" height="560" fill="#ffffff"></rect></mask><linearGradient x1="15.28%" y1="-39.29%" x2="84.72%" y2="139.29%" gradientUnits="userSpaceOnUse" id="SvgjsLinearGradient1037"><stop stop-color="rgba(0, 0, 0, 1)" offset="0"></stop><stop stop-color="rgba(255, 255, 255, 0)" offset="0"></stop><stop stop-color="rgba(255, 255, 255, 0)" offset="0.37"></stop><stop stop-color="rgba(255, 255, 255, 0)" offset="1"></stop></linearGradient><linearGradient x1="0%" y1="100%" x2="0%" y2="0%" id="SvgjsLinearGradient1038"><stop stop-color="rgba(0, 0, 0, 0)" offset="0"></stop><stop stop-color="rgba(0, 0, 0, 1)" offset="1"></stop></linearGradient><linearGradient x1="0%" y1="0%" x2="0%" y2="100%" id="SvgjsLinearGradient1039"><stop stop-color="rgba(0, 0, 0, 0)" offset="0"></stop><stop stop-color="rgba(0, 0, 0, 1)" offset="1"></stop></linearGradient></defs></svg>