<svg xmlns="http://www.w3.org/2000/svg" version="1.1" xmlns:xlink="http://www.w3.org/1999/xlink" xmlns:svgjs="http://svgjs.com/svgjs" width="1440" height="560" preserveAspectRatio="none" viewBox="0 0 1440 560"><g mask="url(&quot;#SvgjsMask1032&quot;)" fill="none"><rect width="1440" height="560" x="0" y="0" fill="url(#SvgjsLinearGradient1033)"></rect><path d="M335 109L334 -130" stroke-width="8" stroke="url(#SvgjsLinearGradient1034)" stroke-linecap="round" class="Up"></path><path d="M349 336L348 142" stroke-width="6" stroke="url(#SvgjsLinearGradient1034)" stroke-linecap="round" class="Up"></path><path d="M895 510L894 825" stroke-width="6" stroke="url(#SvgjsLinearGradient1035)" stroke-linecap="round" class="Down"></path><path d="M1280 30L1279 249" stroke-width="8" stroke="url(#SvgjsLinearGradient1035)" stroke-linecap="round" class="Down"></path><path d="M1397 148L1396 -253" stroke-width="10" stroke="url(#SvgjsLinearGradient1034)" stroke-linecap="round" class="Up"></path><path d="M476 134L475 533" stroke-width="6" stroke="url(#SvgjsLinearGradient1035)" stroke-linecap="round" class="Down"></path><path d="M724 368L723 25" stroke-width="10" stroke="url(#SvgjsLinearGradient1035)" stroke-linecap="round" class="Down"></path><path d="M1093 359L1092 190" stroke-width="8" stroke="url(#SvgjsLinearGradient1034)" stroke-linecap="round" class="Up"></path><path d="M194 42L193 445" stroke-width="6" stroke="url(#SvgjsLinearGradient1034)" stroke-linecap="round" class="Up"></path><path d="M936 380L935 60" stroke-width="6" stroke="url(#SvgjsLinearGradient1034)" stroke-linecap="round" class="Up"></path><path d="M1358 303L1357 513" stroke-width="6" stroke="url(#SvgjsLinearGradient1034)" stroke-linecap="round" class="Up"></path><path d="M685 223L684 525" stroke-width="10" stroke="url(#SvgjsLinearGradient1034)" stroke-linecap="round" class="Up"></path><path d="M754 555L753 318" stroke-width="8" stroke="url(#SvgjsLinearGradient1035)" stroke-linecap="round" class="Down"></path><path d="M677 160L676 -84" stroke-width="10" stroke="url(#SvgjsLinearGradient1035)" stroke-linecap="round" class="Down"></path><path d="M390 361L389 52" stroke-width="6" stroke="url(#SvgjsLinearGradient1034)" stroke-linecap="round" class="Up"></path><path d="M1083 116L1082 367" stroke-width="8" stroke="url(#SvgjsLinearGradient1034)" stroke-linecap="round" class="Up"></path><path d="M674 457L673 667" stroke-width="8" stroke="url(#SvgjsLinearGradient1034)" stroke-linecap="round" class="Up"></path><path d="M874 467L873 104" stroke-width="6" stroke="url(#SvgjsLinearGradient1034)" stroke-linecap="round" class="Up"></path><path d="M214 344L213 705" stroke-width="8" stroke="url(#SvgjsLinearGradient1034)" stroke-linecap="round" class="Up"></path><path d="M17 192L16 -48" stroke-width="6" stroke="url(#SvgjsLinearGradient1035)" stroke-linecap="round" class="Down"></path><path d="M981 405L980 62" stroke-width="8" stroke="url(#SvgjsLinearGradient1034)" stroke-linecap="round" class="Up"></path><path d="M637 141L636 -274" stroke-width="10" stroke="url(#SvgjsLinearGradient1035)" stroke-linecap="round" class="Down"></path><path d="M842 496L841 834" stroke-width="8" stroke="url(#SvgjsLinearGradient1034)" stroke-linecap="round" class="Up"></path><path d="M1254 357L1253 94" stroke-width="8" stroke="url(#SvgjsLinearGradient1035)" stroke-linecap="round" class="Down"></path><path d="M270 387L269 -21" stroke-width="10" stroke="url(#SvgjsLinearGradient1034)" stroke-linecap="round" class="Up"></path><path d="M1433 439L1432 200" stroke-width="8" stroke="url(#SvgjsLinearGradient1034)" stroke-linecap="round" class="Up"></path><path d="M340 151L339 -162" stroke-width="10" stroke="url(#SvgjsLinearGradient1035)" stroke-linecap="round" class="Down"></path><path d="M1272 441L1271 161" stroke-width="10" stroke="url(#SvgjsLinearGradient1034)" stroke-linecap="round" class="Up"></path><path d="M458 18L457 -291" stroke-width="8" stroke="url(#SvgjsLinearGradient1034)" stroke-linecap="round" class="Up"></path><path d="M1105 117L1104 482" stroke-width="6" stroke="url(#SvgjsLinearGradient1035)" stroke-linecap="round" class="Down"></path><path d="M413 337L412 645" stroke-width="10" stroke="url(#SvgjsLinearGradient1035)" stroke-linecap="round" class="Down"></path><path d="M1346 408L1345 824" stroke-width="10" stroke="url(#SvgjsLinearGradient1034)" stroke-linecap="round" class="Up"></path><path d="M680 358L679 570" stroke-width="10" stroke="url(#SvgjsLinearGradient1034)" stroke-linecap="round" class="Up"></path><path d="M275 369L274 556" stroke-width="8" stroke="url(#SvgjsLinearGradient1034)" stroke-linecap="round" class="Up"></path><path d="M309 63L308 -197" stroke-width="6" stroke="url(#SvgjsLinearGradient1035)" stroke-linecap="round" class="Down"></path><path d="M1288 439L1287 203" stroke-width="6" stroke="url(#SvgjsLinearGradient1034)" stroke-linecap="round" class="Up"></path></g><defs><mask id="SvgjsMask1032"><rect width="1440" height="560" fill="#ffffff"></rect></mask><linearGradient x1="15.28%" y1="-39.29%" x2="84.72%" y2="139.29%" gradientUnits="userSpaceOnUse" id="SvgjsLinearGradient1033"><stop stop-color="rgba(0, 0, 0, 1)" offset="0"></stop><stop stop-color="rgba(255, 255, 255, 0)" offset="0"></stop><stop stop-color="rgba(255, 255, 255, 0)" offset="0.37"></stop><stop stop-color="rgba(255, 255, 255, 0)" offset="1"></stop></linearGradient><linearGradient x1="0%" y1="100%" x2="0%" y2="0%" id="SvgjsLinearGradient1034"><stop stop-color="rgba(255, 64, 0, 0)" offset="0"></stop><stop stop-color="rgba(255, 64, 0, 1)" offset="1"></stop></linearGradient><linearGradient x1="0%" y1="0%" x2="0%" y2="100%" id="SvgjsLinearGradient1035"><stop stop-color="rgba(255, 64, 0, 0)" offset="0"></stop><stop stop-color="rgba(255, 64, 0, 1)" offset="1"></stop></linearGradient></defs></svg>