<svg xmlns="http://www.w3.org/2000/svg" version="1.1" xmlns:xlink="http://www.w3.org/1999/xlink" xmlns:svgjs="http://svgjs.com/svgjs" width="1440" height="560" preserveAspectRatio="none" viewBox="0 0 1440 560"><g mask="url(&quot;#SvgjsMask1573&quot;)" fill="none"><rect width="1440" height="560" x="0" y="0" fill="url(#SvgjsLinearGradient1574)"></rect><path d="M1267 51L1266 -106" stroke-width="10" stroke="url(#SvgjsLinearGradient1575)" stroke-linecap="round" class="Up"></path><path d="M847 368L846 126" stroke-width="8" stroke="url(#SvgjsLinearGradient1575)" stroke-linecap="round" class="Up"></path><path d="M791 529L790 143" stroke-width="10" stroke="url(#SvgjsLinearGradient1575)" stroke-linecap="round" class="Up"></path><path d="M1107 201L1106 481" stroke-width="8" stroke="url(#SvgjsLinearGradient1576)" stroke-linecap="round" class="Down"></path><path d="M953 126L952 -253" stroke-width="8" stroke="url(#SvgjsLinearGradient1576)" stroke-linecap="round" class="Down"></path><path d="M1129 146L1128 -262" stroke-width="6" stroke="url(#SvgjsLinearGradient1575)" stroke-linecap="round" class="Up"></path><path d="M379 331L378 634" stroke-width="8" stroke="url(#SvgjsLinearGradient1575)" stroke-linecap="round" class="Up"></path><path d="M1222 188L1221 -169" stroke-width="6" stroke="url(#SvgjsLinearGradient1575)" stroke-linecap="round" class="Up"></path><path d="M1384 506L1383 253" stroke-width="8" stroke="url(#SvgjsLinearGradient1575)" stroke-linecap="round" class="Up"></path><path d="M268 486L267 82" stroke-width="10" stroke="url(#SvgjsLinearGradient1576)" stroke-linecap="round" class="Down"></path><path d="M231 511L230 812" stroke-width="6" stroke="url(#SvgjsLinearGradient1576)" stroke-linecap="round" class="Down"></path><path d="M1076 157L1075 341" stroke-width="10" stroke="url(#SvgjsLinearGradient1576)" stroke-linecap="round" class="Down"></path><path d="M59 329L58 525" stroke-width="10" stroke="url(#SvgjsLinearGradient1575)" stroke-linecap="round" class="Up"></path><path d="M1369 428L1368 682" stroke-width="6" stroke="url(#SvgjsLinearGradient1575)" stroke-linecap="round" class="Up"></path><path d="M1314 201L1313 -192" stroke-width="10" stroke="url(#SvgjsLinearGradient1576)" stroke-linecap="round" class="Down"></path><path d="M52 76L51 -251" stroke-width="8" stroke="url(#SvgjsLinearGradient1576)" stroke-linecap="round" class="Down"></path><path d="M209 42L208 -283" stroke-width="6" stroke="url(#SvgjsLinearGradient1576)" stroke-linecap="round" class="Down"></path><path d="M465 30L464 354" stroke-width="10" stroke="url(#SvgjsLinearGradient1576)" stroke-linecap="round" class="Down"></path><path d="M280 58L279 -331" stroke-width="8" stroke="url(#SvgjsLinearGradient1575)" stroke-linecap="round" class="Up"></path><path d="M1284 360L1283 576" stroke-width="6" stroke="url(#SvgjsLinearGradient1576)" stroke-linecap="round" class="Down"></path><path d="M1160 46L1159 -336" stroke-width="6" stroke="url(#SvgjsLinearGradient1576)" stroke-linecap="round" class="Down"></path><path d="M705 295L704 593" stroke-width="6" stroke="url(#SvgjsLinearGradient1576)" stroke-linecap="round" class="Down"></path><path d="M923 41L922 -135" stroke-width="10" stroke="url(#SvgjsLinearGradient1576)" stroke-linecap="round" class="Down"></path><path d="M290 551L289 967" stroke-width="8" stroke="url(#SvgjsLinearGradient1575)" stroke-linecap="round" class="Up"></path><path d="M586 508L585 333" stroke-width="8" stroke="url(#SvgjsLinearGradient1576)" stroke-linecap="round" class="Down"></path><path d="M1367 350L1366 200" stroke-width="8" stroke="url(#SvgjsLinearGradient1575)" stroke-linecap="round" class="Up"></path><path d="M204 473L203 314" stroke-width="6" stroke="url(#SvgjsLinearGradient1576)" stroke-linecap="round" class="Down"></path><path d="M341 201L340 -137" stroke-width="6" stroke="url(#SvgjsLinearGradient1576)" stroke-linecap="round" class="Down"></path><path d="M713 398L712 546" stroke-width="6" stroke="url(#SvgjsLinearGradient1576)" stroke-linecap="round" class="Down"></path><path d="M998 177L997 477" stroke-width="6" stroke="url(#SvgjsLinearGradient1576)" stroke-linecap="round" class="Down"></path><path d="M536 344L535 125" stroke-width="8" stroke="url(#SvgjsLinearGradient1576)" stroke-linecap="round" class="Down"></path><path d="M1048 383L1047 611" stroke-width="6" stroke="url(#SvgjsLinearGradient1575)" stroke-linecap="round" class="Up"></path><path d="M463 450L462 820" stroke-width="10" stroke="url(#SvgjsLinearGradient1576)" stroke-linecap="round" class="Down"></path><path d="M119 287L118 -127" stroke-width="8" stroke="url(#SvgjsLinearGradient1575)" stroke-linecap="round" class="Up"></path><path d="M879 273L878 112" stroke-width="6" stroke="url(#SvgjsLinearGradient1576)" stroke-linecap="round" class="Down"></path><path d="M103 560L102 942" stroke-width="10" stroke="url(#SvgjsLinearGradient1575)" stroke-linecap="round" class="Up"></path></g><defs><mask id="SvgjsMask1573"><rect width="1440" height="560" fill="#ffffff"></rect></mask><linearGradient x1="15.28%" y1="-39.29%" x2="84.72%" y2="139.29%" gradientUnits="userSpaceOnUse" id="SvgjsLinearGradient1574"><stop stop-color="rgba(0, 0, 0, 1)" offset="0"></stop><stop stop-color="rgba(255, 255, 255, 0)" offset="0.37"></stop><stop stop-color="rgba(255, 255, 255, 0)" offset="0.37"></stop><stop stop-color="rgba(255, 255, 255, 0)" offset="1"></stop></linearGradient><linearGradient x1="0%" y1="100%" x2="0%" y2="0%" id="SvgjsLinearGradient1575"><stop stop-color="rgba(255, 68, 0, 0)" offset="0"></stop><stop stop-color="rgba(255, 68, 0, 1)" offset="1"></stop></linearGradient><linearGradient x1="0%" y1="0%" x2="0%" y2="100%" id="SvgjsLinearGradient1576"><stop stop-color="rgba(255, 68, 0, 0)" offset="0"></stop><stop stop-color="rgba(255, 68, 0, 1)" offset="1"></stop></linearGradient></defs></svg>