<svg xmlns="http://www.w3.org/2000/svg" version="1.1" xmlns:xlink="http://www.w3.org/1999/xlink" xmlns:svgjs="http://svgjs.com/svgjs" width="1440" height="560" preserveAspectRatio="none" viewBox="0 0 1440 560"><g mask="url(&quot;#SvgjsMask1052&quot;)" fill="none"><rect width="1440" height="560" x="0" y="0" fill="url(#SvgjsLinearGradient1053)"></rect><path d="M1000 197L1242 439" stroke-width="10" stroke="url(#SvgjsLinearGradient1054)" stroke-linecap="round" class="BottomRight"></path><path d="M954 251L764 61" stroke-width="10" stroke="url(#SvgjsLinearGradient1055)" stroke-linecap="round" class="TopLeft"></path><path d="M659 276L979 596" stroke-width="6" stroke="url(#SvgjsLinearGradient1055)" stroke-linecap="round" class="TopLeft"></path><path d="M1085 504L914 333" stroke-width="10" stroke="url(#SvgjsLinearGradient1055)" stroke-linecap="round" class="TopLeft"></path><path d="M1288 132L1489 333" stroke-width="10" stroke="url(#SvgjsLinearGradient1054)" stroke-linecap="round" class="BottomRight"></path><path d="M762 306L546 90" stroke-width="10" stroke="url(#SvgjsLinearGradient1055)" stroke-linecap="round" class="TopLeft"></path><path d="M1007 21L685 -301" stroke-width="8" stroke="url(#SvgjsLinearGradient1054)" stroke-linecap="round" class="BottomRight"></path><path d="M899 299L1207 607" stroke-width="6" stroke="url(#SvgjsLinearGradient1055)" stroke-linecap="round" class="TopLeft"></path><path d="M1338 340L1739 741" stroke-width="6" stroke="url(#SvgjsLinearGradient1054)" stroke-linecap="round" class="BottomRight"></path><path d="M327 90L82 -155" stroke-width="8" stroke="url(#SvgjsLinearGradient1055)" stroke-linecap="round" class="TopLeft"></path><path d="M821 295L667 141" stroke-width="8" stroke="url(#SvgjsLinearGradient1054)" stroke-linecap="round" class="BottomRight"></path><path d="M822 94L1036 308" stroke-width="8" stroke="url(#SvgjsLinearGradient1055)" stroke-linecap="round" class="TopLeft"></path><path d="M372 222L781 631" stroke-width="8" stroke="url(#SvgjsLinearGradient1055)" stroke-linecap="round" class="TopLeft"></path><path d="M265 191L586 512" stroke-width="10" stroke="url(#SvgjsLinearGradient1054)" stroke-linecap="round" class="BottomRight"></path><path d="M589 432L265 108" stroke-width="8" stroke="url(#SvgjsLinearGradient1055)" stroke-linecap="round" class="TopLeft"></path><path d="M529 147L138 -244" stroke-width="8" stroke="url(#SvgjsLinearGradient1054)" stroke-linecap="round" class="BottomRight"></path><path d="M1176 387L814 25" stroke-width="10" stroke="url(#SvgjsLinearGradient1054)" stroke-linecap="round" class="BottomRight"></path><path d="M595 546L865 816" stroke-width="10" stroke="url(#SvgjsLinearGradient1054)" stroke-linecap="round" class="BottomRight"></path><path d="M1032 3L1309 280" stroke-width="6" stroke="url(#SvgjsLinearGradient1054)" stroke-linecap="round" class="BottomRight"></path><path d="M631 274L863 506" stroke-width="10" stroke="url(#SvgjsLinearGradient1054)" stroke-linecap="round" class="BottomRight"></path><path d="M657 434L1067 844" stroke-width="8" stroke="url(#SvgjsLinearGradient1054)" stroke-linecap="round" class="BottomRight"></path><path d="M632 367L480 215" stroke-width="10" stroke="url(#SvgjsLinearGradient1055)" stroke-linecap="round" class="TopLeft"></path><path d="M1028 24L1241 237" stroke-width="8" stroke="url(#SvgjsLinearGradient1054)" stroke-linecap="round" class="BottomRight"></path><path d="M958 404L547 -7" stroke-width="8" stroke="url(#SvgjsLinearGradient1054)" stroke-linecap="round" class="BottomRight"></path><path d="M1033 118L1417 502" stroke-width="6" stroke="url(#SvgjsLinearGradient1054)" stroke-linecap="round" class="BottomRight"></path><path d="M1004 41L626 -337" stroke-width="10" stroke="url(#SvgjsLinearGradient1055)" stroke-linecap="round" class="TopLeft"></path><path d="M808 516L441 149" stroke-width="8" stroke="url(#SvgjsLinearGradient1054)" stroke-linecap="round" class="BottomRight"></path><path d="M125 46L-107 -186" stroke-width="10" stroke="url(#SvgjsLinearGradient1054)" stroke-linecap="round" class="BottomRight"></path><path d="M98 147L-156 -107" stroke-width="8" stroke="url(#SvgjsLinearGradient1054)" stroke-linecap="round" class="BottomRight"></path><path d="M529 252L298 21" stroke-width="10" stroke="url(#SvgjsLinearGradient1054)" stroke-linecap="round" class="BottomRight"></path><path d="M1263 174L1647 558" stroke-width="6" stroke="url(#SvgjsLinearGradient1054)" stroke-linecap="round" class="BottomRight"></path><path d="M919 399L1074 554" stroke-width="10" stroke="url(#SvgjsLinearGradient1055)" stroke-linecap="round" class="TopLeft"></path><path d="M778 346L1034 602" stroke-width="10" stroke="url(#SvgjsLinearGradient1055)" stroke-linecap="round" class="TopLeft"></path><path d="M330 246L486 402" stroke-width="6" stroke="url(#SvgjsLinearGradient1054)" stroke-linecap="round" class="BottomRight"></path><path d="M378 76L722 420" stroke-width="8" stroke="url(#SvgjsLinearGradient1055)" stroke-linecap="round" class="TopLeft"></path><path d="M518 138L177 -203" stroke-width="6" stroke="url(#SvgjsLinearGradient1055)" stroke-linecap="round" class="TopLeft"></path><path d="M447 466L152 171" stroke-width="6" stroke="url(#SvgjsLinearGradient1054)" stroke-linecap="round" class="BottomRight"></path><path d="M972 47L668 -257" stroke-width="10" stroke="url(#SvgjsLinearGradient1054)" stroke-linecap="round" class="BottomRight"></path><path d="M668 518L963 813" stroke-width="6" stroke="url(#SvgjsLinearGradient1055)" stroke-linecap="round" class="TopLeft"></path></g><defs><mask id="SvgjsMask1052"><rect width="1440" height="560" fill="#ffffff"></rect></mask><linearGradient x1="15.28%" y1="-39.29%" x2="84.72%" y2="139.29%" gradientUnits="userSpaceOnUse" id="SvgjsLinearGradient1053"><stop stop-color="rgba(0, 0, 0, 1)" offset="0"></stop><stop stop-color="rgba(255, 255, 255, 0)" offset="0"></stop><stop stop-color="rgba(255, 255, 255, 0)" offset="0.37"></stop><stop stop-color="rgba(255, 255, 255, 0)" offset="1"></stop></linearGradient><linearGradient x1="0%" y1="0%" x2="100%" y2="100%" id="SvgjsLinearGradient1054"><stop stop-color="rgba(195, 230, 221, 0)" offset="0"></stop><stop stop-color="rgba(195, 230, 221, 1)" offset="1"></stop></linearGradient><linearGradient x1="100%" y1="100%" x2="0%" y2="0%" id="SvgjsLinearGradient1055"><stop stop-color="rgba(195, 230, 221, 0)" offset="0"></stop><stop stop-color="rgba(195, 230, 221, 1)" offset="1"></stop></linearGradient></defs></svg>