<svg xmlns="http://www.w3.org/2000/svg" version="1.1" xmlns:xlink="http://www.w3.org/1999/xlink" xmlns:svgjs="http://svgjs.com/svgjs" width="1440" height="560" preserveAspectRatio="none" viewBox="0 0 1440 560"><g mask="url(&quot;#SvgjsMask1056&quot;)" fill="none"><rect width="1440" height="560" x="0" y="0" fill="url(#SvgjsLinearGradient1057)"></rect><path d="M747 467L1053 161" stroke-width="6" stroke="url(#SvgjsLinearGradient1058)" stroke-linecap="round" class="TopRight"></path><path d="M1433 232L1015 650" stroke-width="10" stroke="url(#SvgjsLinearGradient1058)" stroke-linecap="round" class="TopRight"></path><path d="M51 501L-194 746" stroke-width="10" stroke="url(#SvgjsLinearGradient1058)" stroke-linecap="round" class="TopRight"></path><path d="M736 503L1067 172" stroke-width="10" stroke="url(#SvgjsLinearGradient1058)" stroke-linecap="round" class="TopRight"></path><path d="M1386 534L1051 869" stroke-width="8" stroke="url(#SvgjsLinearGradient1059)" stroke-linecap="round" class="BottomLeft"></path><path d="M130 558L521 167" stroke-width="8" stroke="url(#SvgjsLinearGradient1059)" stroke-linecap="round" class="BottomLeft"></path><path d="M188 545L-218 951" stroke-width="6" stroke="url(#SvgjsLinearGradient1059)" stroke-linecap="round" class="BottomLeft"></path><path d="M709 335L907 137" stroke-width="8" stroke="url(#SvgjsLinearGradient1059)" stroke-linecap="round" class="BottomLeft"></path><path d="M154 71L328 -103" stroke-width="8" stroke="url(#SvgjsLinearGradient1059)" stroke-linecap="round" class="BottomLeft"></path><path d="M627 282L299 610" stroke-width="6" stroke="url(#SvgjsLinearGradient1058)" stroke-linecap="round" class="TopRight"></path><path d="M318 228L18 528" stroke-width="6" stroke="url(#SvgjsLinearGradient1059)" stroke-linecap="round" class="BottomLeft"></path><path d="M653 519L1052 120" stroke-width="6" stroke="url(#SvgjsLinearGradient1059)" stroke-linecap="round" class="BottomLeft"></path><path d="M357 35L147 245" stroke-width="10" stroke="url(#SvgjsLinearGradient1059)" stroke-linecap="round" class="BottomLeft"></path><path d="M1291 30L908 413" stroke-width="10" stroke="url(#SvgjsLinearGradient1059)" stroke-linecap="round" class="BottomLeft"></path><path d="M313 359L472 200" stroke-width="6" stroke="url(#SvgjsLinearGradient1058)" stroke-linecap="round" class="TopRight"></path><path d="M596 228L267 557" stroke-width="8" stroke="url(#SvgjsLinearGradient1059)" stroke-linecap="round" class="BottomLeft"></path><path d="M1317 156L1694 -221" stroke-width="6" stroke="url(#SvgjsLinearGradient1058)" stroke-linecap="round" class="TopRight"></path><path d="M197 377L-151 725" stroke-width="8" stroke="url(#SvgjsLinearGradient1059)" stroke-linecap="round" class="BottomLeft"></path><path d="M912 313L733 492" stroke-width="10" stroke="url(#SvgjsLinearGradient1058)" stroke-linecap="round" class="TopRight"></path><path d="M1086 215L1274 27" stroke-width="10" stroke="url(#SvgjsLinearGradient1058)" stroke-linecap="round" class="TopRight"></path><path d="M1255 31L1660 -374" stroke-width="6" stroke="url(#SvgjsLinearGradient1058)" stroke-linecap="round" class="TopRight"></path><path d="M590 336L299 627" stroke-width="10" stroke="url(#SvgjsLinearGradient1058)" stroke-linecap="round" class="TopRight"></path><path d="M1243 270L930 583" stroke-width="10" stroke="url(#SvgjsLinearGradient1058)" stroke-linecap="round" class="TopRight"></path><path d="M732 96L561 267" stroke-width="8" stroke="url(#SvgjsLinearGradient1059)" stroke-linecap="round" class="BottomLeft"></path><path d="M1025 269L778 516" stroke-width="6" stroke="url(#SvgjsLinearGradient1058)" stroke-linecap="round" class="TopRight"></path><path d="M726 173L480 419" stroke-width="8" stroke="url(#SvgjsLinearGradient1058)" stroke-linecap="round" class="TopRight"></path><path d="M863 16L502 377" stroke-width="10" stroke="url(#SvgjsLinearGradient1058)" stroke-linecap="round" class="TopRight"></path><path d="M1293 213L912 594" stroke-width="10" stroke="url(#SvgjsLinearGradient1059)" stroke-linecap="round" class="BottomLeft"></path><path d="M1063 298L1393 -32" stroke-width="6" stroke="url(#SvgjsLinearGradient1059)" stroke-linecap="round" class="BottomLeft"></path><path d="M150 30L-221 401" stroke-width="8" stroke="url(#SvgjsLinearGradient1058)" stroke-linecap="round" class="TopRight"></path><path d="M1163 191L1510 -156" stroke-width="8" stroke="url(#SvgjsLinearGradient1058)" stroke-linecap="round" class="TopRight"></path><path d="M529 543L906 166" stroke-width="10" stroke="url(#SvgjsLinearGradient1059)" stroke-linecap="round" class="BottomLeft"></path><path d="M980 276L730 526" stroke-width="10" stroke="url(#SvgjsLinearGradient1058)" stroke-linecap="round" class="TopRight"></path><path d="M1384 524L1701 207" stroke-width="8" stroke="url(#SvgjsLinearGradient1058)" stroke-linecap="round" class="TopRight"></path><path d="M915 388L1055 248" stroke-width="10" stroke="url(#SvgjsLinearGradient1059)" stroke-linecap="round" class="BottomLeft"></path><path d="M349 376L557 168" stroke-width="6" stroke="url(#SvgjsLinearGradient1058)" stroke-linecap="round" class="TopRight"></path><path d="M119 156L-101 376" stroke-width="10" stroke="url(#SvgjsLinearGradient1058)" stroke-linecap="round" class="TopRight"></path><path d="M521 8L754 -225" stroke-width="10" stroke="url(#SvgjsLinearGradient1059)" stroke-linecap="round" class="BottomLeft"></path><path d="M766 458L1097 127" stroke-width="6" stroke="url(#SvgjsLinearGradient1059)" stroke-linecap="round" class="BottomLeft"></path></g><defs><mask id="SvgjsMask1056"><rect width="1440" height="560" fill="#ffffff"></rect></mask><linearGradient x1="15.28%" y1="-39.29%" x2="84.72%" y2="139.29%" gradientUnits="userSpaceOnUse" id="SvgjsLinearGradient1057"><stop stop-color="rgba(0, 0, 0, 1)" offset="0"></stop><stop stop-color="rgba(255, 255, 255, 0)" offset="0"></stop><stop stop-color="rgba(255, 255, 255, 0)" offset="0.37"></stop><stop stop-color="rgba(255, 255, 255, 0)" offset="1"></stop></linearGradient><linearGradient x1="0%" y1="100%" x2="100%" y2="0%" id="SvgjsLinearGradient1058"><stop stop-color="rgba(195, 230, 221, 0)" offset="0"></stop><stop stop-color="rgba(195, 230, 221, 1)" offset="1"></stop></linearGradient><linearGradient x1="100%" y1="0%" x2="0%" y2="100%" id="SvgjsLinearGradient1059"><stop stop-color="rgba(195, 230, 221, 0)" offset="0"></stop><stop stop-color="rgba(195, 230, 221, 1)" offset="1"></stop></linearGradient></defs></svg>