<svg xmlns="http://www.w3.org/2000/svg" version="1.1" xmlns:xlink="http://www.w3.org/1999/xlink" xmlns:svgjs="http://svgjs.com/svgjs" width="1440" height="560" preserveAspectRatio="none" viewBox="0 0 1440 560"><g mask="url(&quot;#SvgjsMask1048&quot;)" fill="none"><rect width="1440" height="560" x="0" y="0" fill="url(#SvgjsLinearGradient1049)"></rect><path d="M679 14L678 -309" stroke-width="6" stroke="url(#SvgjsLinearGradient1050)" stroke-linecap="round" class="Down"></path><path d="M753 231L752 407" stroke-width="8" stroke="url(#SvgjsLinearGradient1050)" stroke-linecap="round" class="Down"></path><path d="M968 47L967 -200" stroke-width="8" stroke="url(#SvgjsLinearGradient1050)" stroke-linecap="round" class="Down"></path><path d="M206 400L205 613" stroke-width="6" stroke="url(#SvgjsLinearGradient1051)" stroke-linecap="round" class="Up"></path><path d="M1414 411L1413 652" stroke-width="8" stroke="url(#SvgjsLinearGradient1051)" stroke-linecap="round" class="Up"></path><path d="M48 118L47 451" stroke-width="8" stroke="url(#SvgjsLinearGradient1051)" stroke-linecap="round" class="Up"></path><path d="M179 152L178 -25" stroke-width="10" stroke="url(#SvgjsLinearGradient1050)" stroke-linecap="round" class="Down"></path><path d="M49 328L48 744" stroke-width="8" stroke="url(#SvgjsLinearGradient1050)" stroke-linecap="round" class="Down"></path><path d="M201 477L200 152" stroke-width="6" stroke="url(#SvgjsLinearGradient1050)" stroke-linecap="round" class="Down"></path><path d="M1138 96L1137 -275" stroke-width="6" stroke="url(#SvgjsLinearGradient1050)" stroke-linecap="round" class="Down"></path><path d="M1303 348L1302 752" stroke-width="10" stroke="url(#SvgjsLinearGradient1050)" stroke-linecap="round" class="Down"></path><path d="M1169 407L1168 614" stroke-width="8" stroke="url(#SvgjsLinearGradient1051)" stroke-linecap="round" class="Up"></path><path d="M1262 98L1261 471" stroke-width="6" stroke="url(#SvgjsLinearGradient1051)" stroke-linecap="round" class="Up"></path><path d="M392 56L391 -115" stroke-width="8" stroke="url(#SvgjsLinearGradient1050)" stroke-linecap="round" class="Down"></path><path d="M504 417L503 607" stroke-width="10" stroke="url(#SvgjsLinearGradient1051)" stroke-linecap="round" class="Up"></path><path d="M1090 527L1089 883" stroke-width="10" stroke="url(#SvgjsLinearGradient1051)" stroke-linecap="round" class="Up"></path><path d="M1265 301L1264 486" stroke-width="10" stroke="url(#SvgjsLinearGradient1050)" stroke-linecap="round" class="Down"></path><path d="M1073 235L1072 467" stroke-width="8" stroke="url(#SvgjsLinearGradient1050)" stroke-linecap="round" class="Down"></path><path d="M425 28L424 -113" stroke-width="8" stroke="url(#SvgjsLinearGradient1050)" stroke-linecap="round" class="Down"></path><path d="M945 462L944 641" stroke-width="8" stroke="url(#SvgjsLinearGradient1050)" stroke-linecap="round" class="Down"></path><path d="M1234 465L1233 164" stroke-width="10" stroke="url(#SvgjsLinearGradient1051)" stroke-linecap="round" class="Up"></path><path d="M976 176L975 320" stroke-width="10" stroke="url(#SvgjsLinearGradient1050)" stroke-linecap="round" class="Down"></path><path d="M111 54L110 469" stroke-width="6" stroke="url(#SvgjsLinearGradient1050)" stroke-linecap="round" class="Down"></path><path d="M57 413L56 669" stroke-width="6" stroke="url(#SvgjsLinearGradient1051)" stroke-linecap="round" class="Up"></path><path d="M864 27L863 295" stroke-width="6" stroke="url(#SvgjsLinearGradient1051)" stroke-linecap="round" class="Up"></path><path d="M204 370L203 739" stroke-width="10" stroke="url(#SvgjsLinearGradient1050)" stroke-linecap="round" class="Down"></path><path d="M245 133L244 -221" stroke-width="8" stroke="url(#SvgjsLinearGradient1050)" stroke-linecap="round" class="Down"></path><path d="M287 150L286 -189" stroke-width="10" stroke="url(#SvgjsLinearGradient1051)" stroke-linecap="round" class="Up"></path><path d="M1049 544L1048 687" stroke-width="6" stroke="url(#SvgjsLinearGradient1051)" stroke-linecap="round" class="Up"></path><path d="M345 142L344 -62" stroke-width="6" stroke="url(#SvgjsLinearGradient1050)" stroke-linecap="round" class="Down"></path><path d="M450 453L449 785" stroke-width="10" stroke="url(#SvgjsLinearGradient1050)" stroke-linecap="round" class="Down"></path><path d="M1261 377L1260 639" stroke-width="10" stroke="url(#SvgjsLinearGradient1051)" stroke-linecap="round" class="Up"></path><path d="M647 323L646 -67" stroke-width="10" stroke="url(#SvgjsLinearGradient1050)" stroke-linecap="round" class="Down"></path><path d="M838 245L837 444" stroke-width="8" stroke="url(#SvgjsLinearGradient1050)" stroke-linecap="round" class="Down"></path><path d="M293 35L292 -368" stroke-width="6" stroke="url(#SvgjsLinearGradient1051)" stroke-linecap="round" class="Up"></path><path d="M658 329L657 112" stroke-width="6" stroke="url(#SvgjsLinearGradient1050)" stroke-linecap="round" class="Down"></path></g><defs><mask id="SvgjsMask1048"><rect width="1440" height="560" fill="#ffffff"></rect></mask><linearGradient x1="15.28%" y1="-39.29%" x2="84.72%" y2="139.29%" gradientUnits="userSpaceOnUse" id="SvgjsLinearGradient1049"><stop stop-color="rgba(0, 0, 0, 1)" offset="0"></stop><stop stop-color="rgba(255, 255, 255, 0)" offset="0"></stop><stop stop-color="rgba(255, 255, 255, 0)" offset="0.37"></stop><stop stop-color="rgba(255, 255, 255, 0)" offset="1"></stop></linearGradient><linearGradient x1="0%" y1="0%" x2="0%" y2="100%" id="SvgjsLinearGradient1050"><stop stop-color="rgba(195, 230, 221, 0)" offset="0"></stop><stop stop-color="rgba(195, 230, 221, 1)" offset="1"></stop></linearGradient><linearGradient x1="0%" y1="100%" x2="0%" y2="0%" id="SvgjsLinearGradient1051"><stop stop-color="rgba(195, 230, 221, 0)" offset="0"></stop><stop stop-color="rgba(195, 230, 221, 1)" offset="1"></stop></linearGradient></defs></svg>