<svg xmlns="http://www.w3.org/2000/svg" version="1.1" xmlns:xlink="http://www.w3.org/1999/xlink" xmlns:svgjs="http://svgjs.com/svgjs" width="1440" height="560" preserveAspectRatio="none" viewBox="0 0 1440 560"><g mask="url(&quot;#SvgjsMask1080&quot;)" fill="none"><rect width="1440" height="560" x="0" y="0" fill="url(#SvgjsLinearGradient1081)"></rect><path d="M1257 64L922 399" stroke-width="6" stroke="url(#SvgjsLinearGradient1082)" stroke-linecap="round" class="TopRight"></path><path d="M275 493L80 688" stroke-width="6" stroke="url(#SvgjsLinearGradient1083)" stroke-linecap="round" class="BottomLeft"></path><path d="M1029 52L1399 -318" stroke-width="6" stroke="url(#SvgjsLinearGradient1082)" stroke-linecap="round" class="TopRight"></path><path d="M464 360L686 138" stroke-width="10" stroke="url(#SvgjsLinearGradient1082)" stroke-linecap="round" class="TopRight"></path><path d="M437 195L854 -222" stroke-width="10" stroke="url(#SvgjsLinearGradient1083)" stroke-linecap="round" class="BottomLeft"></path><path d="M1022 242L1192 72" stroke-width="8" stroke="url(#SvgjsLinearGradient1083)" stroke-linecap="round" class="BottomLeft"></path><path d="M879 167L678 368" stroke-width="6" stroke="url(#SvgjsLinearGradient1082)" stroke-linecap="round" class="TopRight"></path><path d="M219 226L28 417" stroke-width="10" stroke="url(#SvgjsLinearGradient1083)" stroke-linecap="round" class="BottomLeft"></path><path d="M1305 439L1478 266" stroke-width="8" stroke="url(#SvgjsLinearGradient1083)" stroke-linecap="round" class="BottomLeft"></path><path d="M1121 414L736 799" stroke-width="8" stroke="url(#SvgjsLinearGradient1082)" stroke-linecap="round" class="TopRight"></path><path d="M142 433L-120 695" stroke-width="10" stroke="url(#SvgjsLinearGradient1083)" stroke-linecap="round" class="BottomLeft"></path><path d="M1195 228L1549 -126" stroke-width="6" stroke="url(#SvgjsLinearGradient1083)" stroke-linecap="round" class="BottomLeft"></path><path d="M582 545L225 902" stroke-width="6" stroke="url(#SvgjsLinearGradient1082)" stroke-linecap="round" class="TopRight"></path><path d="M894 306L1253 -53" stroke-width="8" stroke="url(#SvgjsLinearGradient1083)" stroke-linecap="round" class="BottomLeft"></path><path d="M1046 427L1241 232" stroke-width="6" stroke="url(#SvgjsLinearGradient1083)" stroke-linecap="round" class="BottomLeft"></path><path d="M1140 417L1465 92" stroke-width="6" stroke="url(#SvgjsLinearGradient1083)" stroke-linecap="round" class="BottomLeft"></path><path d="M191 260L27 424" stroke-width="6" stroke="url(#SvgjsLinearGradient1083)" stroke-linecap="round" class="BottomLeft"></path><path d="M445 372L620 197" stroke-width="8" stroke="url(#SvgjsLinearGradient1082)" stroke-linecap="round" class="TopRight"></path><path d="M264 158L-95 517" stroke-width="6" stroke="url(#SvgjsLinearGradient1082)" stroke-linecap="round" class="TopRight"></path><path d="M661 33L393 301" stroke-width="8" stroke="url(#SvgjsLinearGradient1082)" stroke-linecap="round" class="TopRight"></path><path d="M1170 186L986 370" stroke-width="8" stroke="url(#SvgjsLinearGradient1082)" stroke-linecap="round" class="TopRight"></path><path d="M892 108L626 374" stroke-width="8" stroke="url(#SvgjsLinearGradient1083)" stroke-linecap="round" class="BottomLeft"></path><path d="M93 72L363 -198" stroke-width="6" stroke="url(#SvgjsLinearGradient1082)" stroke-linecap="round" class="TopRight"></path><path d="M591 130L736 -15" stroke-width="10" stroke="url(#SvgjsLinearGradient1083)" stroke-linecap="round" class="BottomLeft"></path><path d="M175 146L-51 372" stroke-width="8" stroke="url(#SvgjsLinearGradient1083)" stroke-linecap="round" class="BottomLeft"></path><path d="M1078 410L833 655" stroke-width="10" stroke="url(#SvgjsLinearGradient1083)" stroke-linecap="round" class="BottomLeft"></path><path d="M76 100L-318 494" stroke-width="6" stroke="url(#SvgjsLinearGradient1083)" stroke-linecap="round" class="BottomLeft"></path><path d="M986 296L662 620" stroke-width="8" stroke="url(#SvgjsLinearGradient1082)" stroke-linecap="round" class="TopRight"></path><path d="M199 192L544 -153" stroke-width="8" stroke="url(#SvgjsLinearGradient1083)" stroke-linecap="round" class="BottomLeft"></path><path d="M1286 467L1113 640" stroke-width="6" stroke="url(#SvgjsLinearGradient1083)" stroke-linecap="round" class="BottomLeft"></path><path d="M907 469L1080 296" stroke-width="6" stroke="url(#SvgjsLinearGradient1082)" stroke-linecap="round" class="TopRight"></path><path d="M368 384L-7 759" stroke-width="6" stroke="url(#SvgjsLinearGradient1083)" stroke-linecap="round" class="BottomLeft"></path><path d="M1126 11L840 297" stroke-width="8" stroke="url(#SvgjsLinearGradient1082)" stroke-linecap="round" class="TopRight"></path><path d="M1370 317L1110 577" stroke-width="8" stroke="url(#SvgjsLinearGradient1082)" stroke-linecap="round" class="TopRight"></path><path d="M580 32L417 195" stroke-width="6" stroke="url(#SvgjsLinearGradient1083)" stroke-linecap="round" class="BottomLeft"></path><path d="M987 376L1374 -11" stroke-width="10" stroke="url(#SvgjsLinearGradient1082)" stroke-linecap="round" class="TopRight"></path><path d="M1207 72L1576 -297" stroke-width="10" stroke="url(#SvgjsLinearGradient1082)" stroke-linecap="round" class="TopRight"></path><path d="M40 218L-143 401" stroke-width="10" stroke="url(#SvgjsLinearGradient1083)" stroke-linecap="round" class="BottomLeft"></path><path d="M907 34L649 292" stroke-width="8" stroke="url(#SvgjsLinearGradient1083)" stroke-linecap="round" class="BottomLeft"></path></g><defs><mask id="SvgjsMask1080"><rect width="1440" height="560" fill="#ffffff"></rect></mask><linearGradient x1="15.28%" y1="-39.29%" x2="84.72%" y2="139.29%" gradientUnits="userSpaceOnUse" id="SvgjsLinearGradient1081"><stop stop-color="rgba(0, 0, 0, 1)" offset="0"></stop><stop stop-color="rgba(255, 255, 255, 0)" offset="0"></stop><stop stop-color="rgba(255, 255, 255, 0)" offset="0.37"></stop><stop stop-color="rgba(255, 255, 255, 0)" offset="1"></stop></linearGradient><linearGradient x1="0%" y1="100%" x2="100%" y2="0%" id="SvgjsLinearGradient1082"><stop stop-color="rgba(255, 199, 0, 0)" offset="0"></stop><stop stop-color="rgba(255, 199, 0, 1)" offset="1"></stop></linearGradient><linearGradient x1="100%" y1="0%" x2="0%" y2="100%" id="SvgjsLinearGradient1083"><stop stop-color="rgba(255, 199, 0, 0)" offset="0"></stop><stop stop-color="rgba(255, 199, 0, 1)" offset="1"></stop></linearGradient></defs></svg>