<svg xmlns="http://www.w3.org/2000/svg" version="1.1" xmlns:xlink="http://www.w3.org/1999/xlink" xmlns:svgjs="http://svgjs.com/svgjs" width="1440" height="560" preserveAspectRatio="none" viewBox="0 0 1440 560"><g mask="url(&quot;#SvgjsMask1020&quot;)" fill="none"><path d="M-51.24 395.23L-51.24 395.23" stroke="rgba(255, 255, 255, 1)" stroke-width="1.5"></path><path d="M-51.24 395.23L57.36 397.82" stroke="rgba(255, 255, 255, 1)" stroke-width="1.5"></path><path d="M-51.24 395.23L47.19 499.98" stroke="rgba(255, 255, 255, 1)" stroke-width="1.5"></path><path d="M-51.24 395.23L208.59 395.12" stroke="rgba(255, 255, 255, 1)" stroke-width="1.5"></path><path d="M-101.08 658.65L-101.08 658.65" stroke="rgba(255, 255, 255, 1)" stroke-width="1.5"></path><path d="M-101.08 658.65L48.54 672.21" stroke="rgba(255, 255, 255, 1)" stroke-width="1.5"></path><path d="M-101.08 658.65L47.19 499.98" stroke="rgba(255, 255, 255, 1)" stroke-width="1.5"></path><path d="M57.36 397.82L57.36 397.82" stroke="rgba(255, 255, 255, 1)" stroke-width="1.5"></path><path d="M57.36 397.82L47.19 499.98" stroke="rgba(255, 255, 255, 1)" stroke-width="1.5"></path><path d="M47.19 499.98L47.19 499.98" stroke="rgba(255, 255, 255, 1)" stroke-width="1.5"></path><path d="M47.19 499.98L48.54 672.21" stroke="rgba(255, 255, 255, 1)" stroke-width="1.5"></path><path d="M48.54 672.21L48.54 672.21" stroke="rgba(255, 255, 255, 1)" stroke-width="1.5"></path><path d="M48.54 672.21L217.46 701.02" stroke="rgba(255, 255, 255, 1)" stroke-width="1.5"></path><path d="M48.54 672.21L222.43 502.76" stroke="rgba(255, 255, 255, 1)" stroke-width="1.5"></path><path d="M208.59 395.12L208.59 395.12" stroke="rgba(255, 255, 255, 1)" stroke-width="1.5"></path><path d="M208.59 395.12L222.43 502.76" stroke="rgba(255, 255, 255, 1)" stroke-width="1.5"></path><path d="M208.59 395.12L57.36 397.82" stroke="rgba(255, 255, 255, 1)" stroke-width="1.5"></path><path d="M222.43 502.76L222.43 502.76" stroke="rgba(255, 255, 255, 1)" stroke-width="1.5"></path><path d="M222.43 502.76L348.6 502.78" stroke="rgba(255, 255, 255, 1)" stroke-width="1.5"></path><path d="M222.43 502.76L47.19 499.98" stroke="rgba(255, 255, 255, 1)" stroke-width="1.5"></path><path d="M222.43 502.76L57.36 397.82" stroke="rgba(255, 255, 255, 1)" stroke-width="1.5"></path><path d="M222.43 502.76L217.46 701.02" stroke="rgba(255, 255, 255, 1)" stroke-width="1.5"></path><path d="M217.46 701.02L217.46 701.02" stroke="rgba(255, 255, 255, 1)" stroke-width="1.5"></path><path d="M217.46 701.02L383.9 663.33" stroke="rgba(255, 255, 255, 1)" stroke-width="1.5"></path><path d="M217.46 701.02L348.6 502.78" stroke="rgba(255, 255, 255, 1)" stroke-width="1.5"></path><path d="M217.46 701.02L47.19 499.98" stroke="rgba(255, 255, 255, 1)" stroke-width="1.5"></path><path d="M217.46 701.02L208.59 395.12" stroke="rgba(255, 255, 255, 1)" stroke-width="1.5"></path><path d="M398.1 344.02L398.1 344.02" stroke="rgba(255, 255, 255, 1)" stroke-width="1.5"></path><path d="M398.1 344.02L505.19 357.41" stroke="rgba(255, 255, 255, 1)" stroke-width="1.5"></path><path d="M398.1 344.02L348.6 502.78" stroke="rgba(255, 255, 255, 1)" stroke-width="1.5"></path><path d="M398.1 344.02L208.59 395.12" stroke="rgba(255, 255, 255, 1)" stroke-width="1.5"></path><path d="M398.1 344.02L222.43 502.76" stroke="rgba(255, 255, 255, 1)" stroke-width="1.5"></path><path d="M348.6 502.78L348.6 502.78" stroke="rgba(255, 255, 255, 1)" stroke-width="1.5"></path><path d="M348.6 502.78L383.9 663.33" stroke="rgba(255, 255, 255, 1)" stroke-width="1.5"></path><path d="M348.6 502.78L208.59 395.12" stroke="rgba(255, 255, 255, 1)" stroke-width="1.5"></path><path d="M348.6 502.78L545.95 557.46" stroke="rgba(255, 255, 255, 1)" stroke-width="1.5"></path><path d="M383.9 663.33L383.9 663.33" stroke="rgba(255, 255, 255, 1)" stroke-width="1.5"></path><path d="M383.9 663.33L545.18 707.53" stroke="rgba(255, 255, 255, 1)" stroke-width="1.5"></path><path d="M383.9 663.33L545.95 557.46" stroke="rgba(255, 255, 255, 1)" stroke-width="1.5"></path><path d="M505.19 357.41L505.19 357.41" stroke="rgba(255, 255, 255, 1)" stroke-width="1.5"></path><path d="M505.19 357.41L671.46 378.91" stroke="rgba(255, 255, 255, 1)" stroke-width="1.5"></path><path d="M545.95 557.46L545.95 557.46" stroke="rgba(255, 255, 255, 1)" stroke-width="1.5"></path><path d="M545.95 557.46L664.49 538.98" stroke="rgba(255, 255, 255, 1)" stroke-width="1.5"></path><path d="M545.95 557.46L545.18 707.53" stroke="rgba(255, 255, 255, 1)" stroke-width="1.5"></path><path d="M545.18 707.53L545.18 707.53" stroke="rgba(255, 255, 255, 1)" stroke-width="1.5"></path><path d="M545.18 707.53L710.86 678.06" stroke="rgba(255, 255, 255, 1)" stroke-width="1.5"></path><path d="M545.18 707.53L664.49 538.98" stroke="rgba(255, 255, 255, 1)" stroke-width="1.5"></path><path d="M545.18 707.53L810.37 711.22" stroke="rgba(255, 255, 255, 1)" stroke-width="1.5"></path><path d="M545.18 707.53L348.6 502.78" stroke="rgba(255, 255, 255, 1)" stroke-width="1.5"></path><path d="M711.34 225.4L711.34 225.4" stroke="rgba(255, 255, 255, 1)" stroke-width="1.5"></path><path d="M711.34 225.4L789.26 259.05" stroke="rgba(255, 255, 255, 1)" stroke-width="1.5"></path><path d="M711.34 225.4L671.46 378.91" stroke="rgba(255, 255, 255, 1)" stroke-width="1.5"></path><path d="M711.34 225.4L840.27 370.02" stroke="rgba(255, 255, 255, 1)" stroke-width="1.5"></path><path d="M671.46 378.91L671.46 378.91" stroke="rgba(255, 255, 255, 1)" stroke-width="1.5"></path><path d="M671.46 378.91L664.49 538.98" stroke="rgba(255, 255, 255, 1)" stroke-width="1.5"></path><path d="M664.49 538.98L664.49 538.98" stroke="rgba(255, 255, 255, 1)" stroke-width="1.5"></path><path d="M664.49 538.98L710.86 678.06" stroke="rgba(255, 255, 255, 1)" stroke-width="1.5"></path><path d="M664.49 538.98L819.34 535.94" stroke="rgba(255, 255, 255, 1)" stroke-width="1.5"></path><path d="M664.49 538.98L810.37 711.22" stroke="rgba(255, 255, 255, 1)" stroke-width="1.5"></path><path d="M710.86 678.06L710.86 678.06" stroke="rgba(255, 255, 255, 1)" stroke-width="1.5"></path><path d="M710.86 678.06L810.37 711.22" stroke="rgba(255, 255, 255, 1)" stroke-width="1.5"></path><path d="M710.86 678.06L819.34 535.94" stroke="rgba(255, 255, 255, 1)" stroke-width="1.5"></path><path d="M710.86 678.06L545.95 557.46" stroke="rgba(255, 255, 255, 1)" stroke-width="1.5"></path><path d="M710.86 678.06L989.1 699.01" stroke="rgba(255, 255, 255, 1)" stroke-width="1.5"></path><path d="M789.26 259.05L789.26 259.05" stroke="rgba(255, 255, 255, 1)" stroke-width="1.5"></path><path d="M840.27 370.02L840.27 370.02" stroke="rgba(255, 255, 255, 1)" stroke-width="1.5"></path><path d="M840.27 370.02L789.26 259.05" stroke="rgba(255, 255, 255, 1)" stroke-width="1.5"></path><path d="M840.27 370.02L819.34 535.94" stroke="rgba(255, 255, 255, 1)" stroke-width="1.5"></path><path d="M840.27 370.02L671.46 378.91" stroke="rgba(255, 255, 255, 1)" stroke-width="1.5"></path><path d="M819.34 535.94L819.34 535.94" stroke="rgba(255, 255, 255, 1)" stroke-width="1.5"></path><path d="M819.34 535.94L810.37 711.22" stroke="rgba(255, 255, 255, 1)" stroke-width="1.5"></path><path d="M810.37 711.22L810.37 711.22" stroke="rgba(255, 255, 255, 1)" stroke-width="1.5"></path><path d="M810.37 711.22L989.1 699.01" stroke="rgba(255, 255, 255, 1)" stroke-width="1.5"></path><path d="M1009.57 89.42L1009.57 89.42" stroke="rgba(255, 255, 255, 1)" stroke-width="1.5"></path><path d="M1009.57 89.42L1115.89 95.72" stroke="rgba(255, 255, 255, 1)" stroke-width="1.5"></path><path d="M1009.57 89.42L953.89 203.56" stroke="rgba(255, 255, 255, 1)" stroke-width="1.5"></path><path d="M1009.57 89.42L1123.46 211.02" stroke="rgba(255, 255, 255, 1)" stroke-width="1.5"></path><path d="M953.89 203.56L953.89 203.56" stroke="rgba(255, 255, 255, 1)" stroke-width="1.5"></path><path d="M953.89 203.56L1123.46 211.02" stroke="rgba(255, 255, 255, 1)" stroke-width="1.5"></path><path d="M953.89 203.56L789.26 259.05" stroke="rgba(255, 255, 255, 1)" stroke-width="1.5"></path><path d="M953.89 203.56L1010.4 387.88" stroke="rgba(255, 255, 255, 1)" stroke-width="1.5"></path><path d="M953.89 203.56L1115.89 95.72" stroke="rgba(255, 255, 255, 1)" stroke-width="1.5"></path><path d="M953.89 203.56L840.27 370.02" stroke="rgba(255, 255, 255, 1)" stroke-width="1.5"></path><path d="M1010.4 387.88L1010.4 387.88" stroke="rgba(255, 255, 255, 1)" stroke-width="1.5"></path><path d="M1010.4 387.88L997.73 505.08" stroke="rgba(255, 255, 255, 1)" stroke-width="1.5"></path><path d="M1010.4 387.88L840.27 370.02" stroke="rgba(255, 255, 255, 1)" stroke-width="1.5"></path><path d="M997.73 505.08L997.73 505.08" stroke="rgba(255, 255, 255, 1)" stroke-width="1.5"></path><path d="M997.73 505.08L1128.3 559.7" stroke="rgba(255, 255, 255, 1)" stroke-width="1.5"></path><path d="M997.73 505.08L819.34 535.94" stroke="rgba(255, 255, 255, 1)" stroke-width="1.5"></path><path d="M997.73 505.08L1111.73 655.75" stroke="rgba(255, 255, 255, 1)" stroke-width="1.5"></path><path d="M997.73 505.08L989.1 699.01" stroke="rgba(255, 255, 255, 1)" stroke-width="1.5"></path><path d="M997.73 505.08L840.27 370.02" stroke="rgba(255, 255, 255, 1)" stroke-width="1.5"></path><path d="M989.1 699.01L989.1 699.01" stroke="rgba(255, 255, 255, 1)" stroke-width="1.5"></path><path d="M989.1 699.01L1111.73 655.75" stroke="rgba(255, 255, 255, 1)" stroke-width="1.5"></path><path d="M1140.26 -82.42L1140.26 -82.42" stroke="rgba(255, 255, 255, 1)" stroke-width="1.5"></path><path d="M1140.26 -82.42L1274.55 -67.12" stroke="rgba(255, 255, 255, 1)" stroke-width="1.5"></path><path d="M1140.26 -82.42L1250.06 58.83" stroke="rgba(255, 255, 255, 1)" stroke-width="1.5"></path><path d="M1115.89 95.72L1115.89 95.72" stroke="rgba(255, 255, 255, 1)" stroke-width="1.5"></path><path d="M1115.89 95.72L1123.46 211.02" stroke="rgba(255, 255, 255, 1)" stroke-width="1.5"></path><path d="M1115.89 95.72L1250.06 58.83" stroke="rgba(255, 255, 255, 1)" stroke-width="1.5"></path><path d="M1115.89 95.72L1140.26 -82.42" stroke="rgba(255, 255, 255, 1)" stroke-width="1.5"></path><path d="M1123.46 211.02L1123.46 211.02" stroke="rgba(255, 255, 255, 1)" stroke-width="1.5"></path><path d="M1123.46 211.02L1271.18 235.2" stroke="rgba(255, 255, 255, 1)" stroke-width="1.5"></path><path d="M1123.46 211.02L1250.06 58.83" stroke="rgba(255, 255, 255, 1)" stroke-width="1.5"></path><path d="M1128.3 559.7L1128.3 559.7" stroke="rgba(255, 255, 255, 1)" stroke-width="1.5"></path><path d="M1128.3 559.7L1111.73 655.75" stroke="rgba(255, 255, 255, 1)" stroke-width="1.5"></path><path d="M1128.3 559.7L1285.93 534.21" stroke="rgba(255, 255, 255, 1)" stroke-width="1.5"></path><path d="M1111.73 655.75L1111.73 655.75" stroke="rgba(255, 255, 255, 1)" stroke-width="1.5"></path><path d="M1111.73 655.75L1309.74 680.96" stroke="rgba(255, 255, 255, 1)" stroke-width="1.5"></path><path d="M1274.55 -67.12L1274.55 -67.12" stroke="rgba(255, 255, 255, 1)" stroke-width="1.5"></path><path d="M1274.55 -67.12L1396.89 -66.87" stroke="rgba(255, 255, 255, 1)" stroke-width="1.5"></path><path d="M1274.55 -67.12L1250.06 58.83" stroke="rgba(255, 255, 255, 1)" stroke-width="1.5"></path><path d="M1250.06 58.83L1250.06 58.83" stroke="rgba(255, 255, 255, 1)" stroke-width="1.5"></path><path d="M1250.06 58.83L1424.17 49.55" stroke="rgba(255, 255, 255, 1)" stroke-width="1.5"></path><path d="M1250.06 58.83L1271.18 235.2" stroke="rgba(255, 255, 255, 1)" stroke-width="1.5"></path><path d="M1271.18 235.2L1271.18 235.2" stroke="rgba(255, 255, 255, 1)" stroke-width="1.5"></path><path d="M1271.18 235.2L1295.17 379.95" stroke="rgba(255, 255, 255, 1)" stroke-width="1.5"></path><path d="M1295.17 379.95L1295.17 379.95" stroke="rgba(255, 255, 255, 1)" stroke-width="1.5"></path><path d="M1295.17 379.95L1387.85 376.1" stroke="rgba(255, 255, 255, 1)" stroke-width="1.5"></path><path d="M1285.93 534.21L1285.93 534.21" stroke="rgba(255, 255, 255, 1)" stroke-width="1.5"></path><path d="M1285.93 534.21L1309.74 680.96" stroke="rgba(255, 255, 255, 1)" stroke-width="1.5"></path><path d="M1309.74 680.96L1309.74 680.96" stroke="rgba(255, 255, 255, 1)" stroke-width="1.5"></path><path d="M1309.74 680.96L1397.63 665.44" stroke="rgba(255, 255, 255, 1)" stroke-width="1.5"></path><path d="M1396.89 -66.87L1396.89 -66.87" stroke="rgba(255, 255, 255, 1)" stroke-width="1.5"></path><path d="M1396.89 -66.87L1424.17 49.55" stroke="rgba(255, 255, 255, 1)" stroke-width="1.5"></path><path d="M1396.89 -66.87L1250.06 58.83" stroke="rgba(255, 255, 255, 1)" stroke-width="1.5"></path><path d="M1424.17 49.55L1424.17 49.55" stroke="rgba(255, 255, 255, 1)" stroke-width="1.5"></path><path d="M1424.17 49.55L1579.14 64.22" stroke="rgba(255, 255, 255, 1)" stroke-width="1.5"></path><path d="M1444.34 256.01L1444.34 256.01" stroke="rgba(255, 255, 255, 1)" stroke-width="1.5"></path><path d="M1444.34 256.01L1551.68 259.96" stroke="rgba(255, 255, 255, 1)" stroke-width="1.5"></path><path d="M1444.34 256.01L1387.85 376.1" stroke="rgba(255, 255, 255, 1)" stroke-width="1.5"></path><path d="M1444.34 256.01L1579.7 349.51" stroke="rgba(255, 255, 255, 1)" stroke-width="1.5"></path><path d="M1444.34 256.01L1271.18 235.2" stroke="rgba(255, 255, 255, 1)" stroke-width="1.5"></path><path d="M1444.34 256.01L1295.17 379.95" stroke="rgba(255, 255, 255, 1)" stroke-width="1.5"></path><path d="M1444.34 256.01L1424.17 49.55" stroke="rgba(255, 255, 255, 1)" stroke-width="1.5"></path><path d="M1387.85 376.1L1387.85 376.1" stroke="rgba(255, 255, 255, 1)" stroke-width="1.5"></path><path d="M1397.63 665.44L1397.63 665.44" stroke="rgba(255, 255, 255, 1)" stroke-width="1.5"></path><path d="M1397.63 665.44L1285.93 534.21" stroke="rgba(255, 255, 255, 1)" stroke-width="1.5"></path><path d="M1397.63 665.44L1594.76 686.02" stroke="rgba(255, 255, 255, 1)" stroke-width="1.5"></path><path d="M1397.63 665.44L1111.73 655.75" stroke="rgba(255, 255, 255, 1)" stroke-width="1.5"></path><path d="M1579.14 64.22L1579.14 64.22" stroke="rgba(255, 255, 255, 1)" stroke-width="1.5"></path><path d="M1579.14 64.22L1551.68 259.96" stroke="rgba(255, 255, 255, 1)" stroke-width="1.5"></path><path d="M1579.14 64.22L1396.89 -66.87" stroke="rgba(255, 255, 255, 1)" stroke-width="1.5"></path><path d="M1579.14 64.22L1444.34 256.01" stroke="rgba(255, 255, 255, 1)" stroke-width="1.5"></path><path d="M1579.14 64.22L1579.7 349.51" stroke="rgba(255, 255, 255, 1)" stroke-width="1.5"></path><path d="M1551.68 259.96L1551.68 259.96" stroke="rgba(255, 255, 255, 1)" stroke-width="1.5"></path><path d="M1551.68 259.96L1579.7 349.51" stroke="rgba(255, 255, 255, 1)" stroke-width="1.5"></path><path d="M1551.68 259.96L1387.85 376.1" stroke="rgba(255, 255, 255, 1)" stroke-width="1.5"></path><path d="M1551.68 259.96L1424.17 49.55" stroke="rgba(255, 255, 255, 1)" stroke-width="1.5"></path><path d="M1551.68 259.96L1271.18 235.2" stroke="rgba(255, 255, 255, 1)" stroke-width="1.5"></path><path d="M1579.7 349.51L1579.7 349.51" stroke="rgba(255, 255, 255, 1)" stroke-width="1.5"></path><path d="M1579.7 349.51L1387.85 376.1" stroke="rgba(255, 255, 255, 1)" stroke-width="1.5"></path><path d="M1594.76 686.02L1594.76 686.02" stroke="rgba(255, 255, 255, 1)" stroke-width="1.5"></path><path d="M1594.76 686.02L1309.74 680.96" stroke="rgba(255, 255, 255, 1)" stroke-width="1.5"></path><path d="M1594.76 686.02L1579.7 349.51" stroke="rgba(255, 255, 255, 1)" stroke-width="1.5"></path><path d="M1594.76 686.02L1285.93 534.21" stroke="rgba(255, 255, 255, 1)" stroke-width="1.5"></path><path d="M1594.76 686.02L1387.85 376.1" stroke="rgba(255, 255, 255, 1)" stroke-width="1.5"></path><circle r="5" cx="-51.24" cy="395.23" fill="rgba(255, 255, 255, 1)"></circle><circle r="5" cx="-101.08" cy="658.65" fill="rgba(255, 255, 255, 1)"></circle><circle r="5" cx="57.36" cy="397.82" fill="rgba(255, 255, 255, 1)"></circle><circle r="5" cx="47.19" cy="499.98" fill="rgba(255, 255, 255, 1)"></circle><circle r="5" cx="48.54" cy="672.21" fill="rgba(255, 255, 255, 1)"></circle><circle r="5" cx="208.59" cy="395.12" fill="rgba(255, 255, 255, 1)"></circle><circle r="5" cx="222.43" cy="502.76" fill="rgba(255, 255, 255, 1)"></circle><circle r="5" cx="217.46" cy="701.02" fill="rgba(255, 255, 255, 1)"></circle><circle r="5" cx="398.1" cy="344.02" fill="rgba(255, 255, 255, 1)"></circle><circle r="5" cx="348.6" cy="502.78" fill="rgba(255, 255, 255, 1)"></circle><circle r="5" cx="383.9" cy="663.33" fill="rgba(255, 255, 255, 1)"></circle><circle r="5" cx="505.19" cy="357.41" fill="rgba(255, 255, 255, 1)"></circle><circle r="5" cx="545.95" cy="557.46" fill="rgba(255, 255, 255, 1)"></circle><circle r="5" cx="545.18" cy="707.53" fill="rgba(255, 255, 255, 1)"></circle><circle r="5" cx="711.34" cy="225.4" fill="rgba(255, 255, 255, 1)"></circle><circle r="5" cx="671.46" cy="378.91" fill="rgba(255, 255, 255, 1)"></circle><circle r="5" cx="664.49" cy="538.98" fill="rgba(255, 255, 255, 1)"></circle><circle r="5" cx="710.86" cy="678.06" fill="rgba(255, 255, 255, 1)"></circle><circle r="5" cx="789.26" cy="259.05" fill="rgba(255, 255, 255, 1)"></circle><circle r="5" cx="840.27" cy="370.02" fill="rgba(255, 255, 255, 1)"></circle><circle r="5" cx="819.34" cy="535.94" fill="rgba(255, 255, 255, 1)"></circle><circle r="5" cx="810.37" cy="711.22" fill="rgba(255, 255, 255, 1)"></circle><circle r="5" cx="1009.57" cy="89.42" fill="rgba(255, 255, 255, 1)"></circle><circle r="5" cx="953.89" cy="203.56" fill="rgba(255, 255, 255, 1)"></circle><circle r="5" cx="1010.4" cy="387.88" fill="rgba(255, 255, 255, 1)"></circle><circle r="5" cx="997.73" cy="505.08" fill="rgba(255, 255, 255, 1)"></circle><circle r="5" cx="989.1" cy="699.01" fill="rgba(255, 255, 255, 1)"></circle><circle r="5" cx="1140.26" cy="-82.42" fill="rgba(255, 255, 255, 1)"></circle><circle r="5" cx="1115.89" cy="95.72" fill="rgba(255, 255, 255, 1)"></circle><circle r="5" cx="1123.46" cy="211.02" fill="rgba(255, 255, 255, 1)"></circle><circle r="5" cx="1128.3" cy="559.7" fill="rgba(255, 255, 255, 1)"></circle><circle r="5" cx="1111.73" cy="655.75" fill="rgba(255, 255, 255, 1)"></circle><circle r="5" cx="1274.55" cy="-67.12" fill="rgba(255, 255, 255, 1)"></circle><circle r="5" cx="1250.06" cy="58.83" fill="rgba(255, 255, 255, 1)"></circle><circle r="5" cx="1271.18" cy="235.2" fill="rgba(255, 255, 255, 1)"></circle><circle r="5" cx="1295.17" cy="379.95" fill="rgba(255, 255, 255, 1)"></circle><circle r="5" cx="1285.93" cy="534.21" fill="rgba(255, 255, 255, 1)"></circle><circle r="5" cx="1309.74" cy="680.96" fill="rgba(255, 255, 255, 1)"></circle><circle r="5" cx="1396.89" cy="-66.87" fill="rgba(255, 255, 255, 1)"></circle><circle r="5" cx="1424.17" cy="49.55" fill="rgba(255, 255, 255, 1)"></circle><circle r="5" cx="1444.34" cy="256.01" fill="rgba(255, 255, 255, 1)"></circle><circle r="5" cx="1387.85" cy="376.1" fill="rgba(255, 255, 255, 1)"></circle><circle r="5" cx="1397.63" cy="665.44" fill="rgba(255, 255, 255, 1)"></circle><circle r="5" cx="1579.14" cy="64.22" fill="rgba(255, 255, 255, 1)"></circle><circle r="5" cx="1551.68" cy="259.96" fill="rgba(255, 255, 255, 1)"></circle><circle r="5" cx="1579.7" cy="349.51" fill="rgba(255, 255, 255, 1)"></circle><circle r="5" cx="1594.76" cy="686.02" fill="rgba(255, 255, 255, 1)"></circle><path d="M532.83 502.2L532.83 502.2" stroke="hsl(121.5, 100%, 63%)" stroke-width="1.5"></path><path d="M532.83 502.2L658.38 515.76" stroke="hsl(121.5, 100%, 63%)" stroke-width="1.5"></path><path d="M532.83 502.2L558.97 650.63" stroke="hsl(121.5, 100%, 63%)" stroke-width="1.5"></path><path d="M532.83 502.2L688.23 376.47" stroke="hsl(121.5, 100%, 63%)" stroke-width="1.5"></path><path d="M532.83 502.2L704.9 670.37" stroke="hsl(121.5, 100%, 63%)" stroke-width="1.5"></path><path d="M532.83 502.2L338.41 649.77" stroke="hsl(121.5, 100%, 63%)" stroke-width="1.5"></path><path d="M532.83 502.2L209.56 516.55" stroke="hsl(121.5, 100%, 63%)" stroke-width="1.5"></path><path d="M658.38 515.76L658.38 515.76" stroke="hsl(121.5, 100%, 63%)" stroke-width="1.5"></path><path d="M658.38 515.76L688.23 376.47" stroke="hsl(121.5, 100%, 63%)" stroke-width="1.5"></path><path d="M658.38 515.76L704.9 670.37" stroke="hsl(121.5, 100%, 63%)" stroke-width="1.5"></path><path d="M658.38 515.76L558.97 650.63" stroke="hsl(121.5, 100%, 63%)" stroke-width="1.5"></path><path d="M658.38 515.76L853.44 654.53" stroke="hsl(121.5, 100%, 63%)" stroke-width="1.5"></path><path d="M1279.68 107.05L1279.68 107.05" stroke="hsl(121.5, 100%, 63%)" stroke-width="1.5"></path><path d="M1279.68 107.05L1237.78 192.62" stroke="hsl(121.5, 100%, 63%)" stroke-width="1.5"></path><path d="M1299.58 547.49L1299.58 547.49" stroke="hsl(121.5, 100%, 63%)" stroke-width="1.5"></path><path d="M1299.58 547.49L1389.13 560.93" stroke="hsl(121.5, 100%, 63%)" stroke-width="1.5"></path><path d="M1299.58 547.49L1265.42 643.4" stroke="hsl(121.5, 100%, 63%)" stroke-width="1.5"></path><path d="M1299.58 547.49L1277.73 404.56" stroke="hsl(121.5, 100%, 63%)" stroke-width="1.5"></path><path d="M1299.58 547.49L1153.17 560.98" stroke="hsl(121.5, 100%, 63%)" stroke-width="1.5"></path><path d="M1299.58 547.49L1404.56 681.43" stroke="hsl(121.5, 100%, 63%)" stroke-width="1.5"></path><path d="M1425.63 213.39L1425.63 213.39" stroke="hsl(121.5, 100%, 63%)" stroke-width="1.5"></path><path d="M1425.63 213.39L1421.35 51.41" stroke="hsl(121.5, 100%, 63%)" stroke-width="1.5"></path><path d="M1425.63 213.39L1589.81 258.28" stroke="hsl(121.5, 100%, 63%)" stroke-width="1.5"></path><path d="M1425.63 213.39L1424.79 392.05" stroke="hsl(121.5, 100%, 63%)" stroke-width="1.5"></path><path d="M1425.63 213.39L1279.68 107.05" stroke="hsl(121.5, 100%, 63%)" stroke-width="1.5"></path><path d="M-73.62 516.09L-73.62 516.09" stroke="hsl(121.5, 100%, 63%)" stroke-width="1.5"></path><path d="M-73.62 516.09L-82.53 675.34" stroke="hsl(121.5, 100%, 63%)" stroke-width="1.5"></path><path d="M-73.62 516.09L110.02 548.17" stroke="hsl(121.5, 100%, 63%)" stroke-width="1.5"></path><path d="M-73.62 516.09L79.37 684.7" stroke="hsl(121.5, 100%, 63%)" stroke-width="1.5"></path><path d="M-73.62 516.09L209.56 516.55" stroke="hsl(121.5, 100%, 63%)" stroke-width="1.5"></path><path d="M-73.62 516.09L239.7 685.88" stroke="hsl(121.5, 100%, 63%)" stroke-width="1.5"></path><path d="M-73.62 516.09L338.41 649.77" stroke="hsl(121.5, 100%, 63%)" stroke-width="1.5"></path><path d="M-82.53 675.34L-82.53 675.34" stroke="hsl(121.5, 100%, 63%)" stroke-width="1.5"></path><path d="M-82.53 675.34L79.37 684.7" stroke="hsl(121.5, 100%, 63%)" stroke-width="1.5"></path><path d="M-82.53 675.34L110.02 548.17" stroke="hsl(121.5, 100%, 63%)" stroke-width="1.5"></path><path d="M110.02 548.17L110.02 548.17" stroke="hsl(121.5, 100%, 63%)" stroke-width="1.5"></path><path d="M110.02 548.17L209.56 516.55" stroke="hsl(121.5, 100%, 63%)" stroke-width="1.5"></path><path d="M110.02 548.17L79.37 684.7" stroke="hsl(121.5, 100%, 63%)" stroke-width="1.5"></path><path d="M79.37 684.7L79.37 684.7" stroke="hsl(121.5, 100%, 63%)" stroke-width="1.5"></path><path d="M79.37 684.7L239.7 685.88" stroke="hsl(121.5, 100%, 63%)" stroke-width="1.5"></path><path d="M79.37 684.7L209.56 516.55" stroke="hsl(121.5, 100%, 63%)" stroke-width="1.5"></path><path d="M79.37 684.7L338.41 649.77" stroke="hsl(121.5, 100%, 63%)" stroke-width="1.5"></path><path d="M209.56 516.55L209.56 516.55" stroke="hsl(121.5, 100%, 63%)" stroke-width="1.5"></path><path d="M209.56 516.55L239.7 685.88" stroke="hsl(121.5, 100%, 63%)" stroke-width="1.5"></path><path d="M209.56 516.55L338.41 649.77" stroke="hsl(121.5, 100%, 63%)" stroke-width="1.5"></path><path d="M239.7 685.88L239.7 685.88" stroke="hsl(121.5, 100%, 63%)" stroke-width="1.5"></path><path d="M239.7 685.88L338.41 649.77" stroke="hsl(121.5, 100%, 63%)" stroke-width="1.5"></path><path d="M338.41 649.77L338.41 649.77" stroke="hsl(121.5, 100%, 63%)" stroke-width="1.5"></path><path d="M558.97 650.63L558.97 650.63" stroke="hsl(121.5, 100%, 63%)" stroke-width="1.5"></path><path d="M558.97 650.63L704.9 670.37" stroke="hsl(121.5, 100%, 63%)" stroke-width="1.5"></path><path d="M558.97 650.63L338.41 649.77" stroke="hsl(121.5, 100%, 63%)" stroke-width="1.5"></path><path d="M558.97 650.63L853.44 654.53" stroke="hsl(121.5, 100%, 63%)" stroke-width="1.5"></path><path d="M558.97 650.63L688.23 376.47" stroke="hsl(121.5, 100%, 63%)" stroke-width="1.5"></path><path d="M688.23 376.47L688.23 376.47" stroke="hsl(121.5, 100%, 63%)" stroke-width="1.5"></path><path d="M688.23 376.47L704.9 670.37" stroke="hsl(121.5, 100%, 63%)" stroke-width="1.5"></path><path d="M704.9 670.37L704.9 670.37" stroke="hsl(121.5, 100%, 63%)" stroke-width="1.5"></path><path d="M704.9 670.37L853.44 654.53" stroke="hsl(121.5, 100%, 63%)" stroke-width="1.5"></path><path d="M853.44 654.53L853.44 654.53" stroke="hsl(121.5, 100%, 63%)" stroke-width="1.5"></path><path d="M853.44 654.53L939.94 675.06" stroke="hsl(121.5, 100%, 63%)" stroke-width="1.5"></path><path d="M957.35 509.28L957.35 509.28" stroke="hsl(121.5, 100%, 63%)" stroke-width="1.5"></path><path d="M957.35 509.28L939.94 675.06" stroke="hsl(121.5, 100%, 63%)" stroke-width="1.5"></path><path d="M957.35 509.28L853.44 654.53" stroke="hsl(121.5, 100%, 63%)" stroke-width="1.5"></path><path d="M957.35 509.28L1153.17 560.98" stroke="hsl(121.5, 100%, 63%)" stroke-width="1.5"></path><path d="M957.35 509.28L1133.66 654.21" stroke="hsl(121.5, 100%, 63%)" stroke-width="1.5"></path><path d="M957.35 509.28L1140.19 355.33" stroke="hsl(121.5, 100%, 63%)" stroke-width="1.5"></path><path d="M957.35 509.28L658.38 515.76" stroke="hsl(121.5, 100%, 63%)" stroke-width="1.5"></path><path d="M939.94 675.06L939.94 675.06" stroke="hsl(121.5, 100%, 63%)" stroke-width="1.5"></path><path d="M1158.68 204.28L1158.68 204.28" stroke="hsl(121.5, 100%, 63%)" stroke-width="1.5"></path><path d="M1158.68 204.28L1237.78 192.62" stroke="hsl(121.5, 100%, 63%)" stroke-width="1.5"></path><path d="M1158.68 204.28L1140.19 355.33" stroke="hsl(121.5, 100%, 63%)" stroke-width="1.5"></path><path d="M1158.68 204.28L1279.68 107.05" stroke="hsl(121.5, 100%, 63%)" stroke-width="1.5"></path><path d="M1140.19 355.33L1140.19 355.33" stroke="hsl(121.5, 100%, 63%)" stroke-width="1.5"></path><path d="M1140.19 355.33L1277.73 404.56" stroke="hsl(121.5, 100%, 63%)" stroke-width="1.5"></path><path d="M1153.17 560.98L1153.17 560.98" stroke="hsl(121.5, 100%, 63%)" stroke-width="1.5"></path><path d="M1153.17 560.98L1133.66 654.21" stroke="hsl(121.5, 100%, 63%)" stroke-width="1.5"></path><path d="M1153.17 560.98L1265.42 643.4" stroke="hsl(121.5, 100%, 63%)" stroke-width="1.5"></path><path d="M1133.66 654.21L1133.66 654.21" stroke="hsl(121.5, 100%, 63%)" stroke-width="1.5"></path><path d="M1133.66 654.21L1265.42 643.4" stroke="hsl(121.5, 100%, 63%)" stroke-width="1.5"></path><path d="M1133.66 654.21L939.94 675.06" stroke="hsl(121.5, 100%, 63%)" stroke-width="1.5"></path><path d="M1133.66 654.21L1299.58 547.49" stroke="hsl(121.5, 100%, 63%)" stroke-width="1.5"></path><path d="M1133.66 654.21L1389.13 560.93" stroke="hsl(121.5, 100%, 63%)" stroke-width="1.5"></path><path d="M1249.52 -58.79L1249.52 -58.79" stroke="hsl(121.5, 100%, 63%)" stroke-width="1.5"></path><path d="M1249.52 -58.79L1279.68 107.05" stroke="hsl(121.5, 100%, 63%)" stroke-width="1.5"></path><path d="M1237.78 192.62L1237.78 192.62" stroke="hsl(121.5, 100%, 63%)" stroke-width="1.5"></path><path d="M1237.78 192.62L1425.63 213.39" stroke="hsl(121.5, 100%, 63%)" stroke-width="1.5"></path><path d="M1237.78 192.62L1140.19 355.33" stroke="hsl(121.5, 100%, 63%)" stroke-width="1.5"></path><path d="M1277.73 404.56L1277.73 404.56" stroke="hsl(121.5, 100%, 63%)" stroke-width="1.5"></path><path d="M1277.73 404.56L1424.79 392.05" stroke="hsl(121.5, 100%, 63%)" stroke-width="1.5"></path><path d="M1277.73 404.56L1389.13 560.93" stroke="hsl(121.5, 100%, 63%)" stroke-width="1.5"></path><path d="M1277.73 404.56L1153.17 560.98" stroke="hsl(121.5, 100%, 63%)" stroke-width="1.5"></path><path d="M1277.73 404.56L1237.78 192.62" stroke="hsl(121.5, 100%, 63%)" stroke-width="1.5"></path><path d="M1265.42 643.4L1265.42 643.4" stroke="hsl(121.5, 100%, 63%)" stroke-width="1.5"></path><path d="M1440.53 -102.42L1440.53 -102.42" stroke="hsl(121.5, 100%, 63%)" stroke-width="1.5"></path><path d="M1440.53 -102.42L1421.35 51.41" stroke="hsl(121.5, 100%, 63%)" stroke-width="1.5"></path><path d="M1440.53 -102.42L1595.59 -103.6" stroke="hsl(121.5, 100%, 63%)" stroke-width="1.5"></path><path d="M1421.35 51.41L1421.35 51.41" stroke="hsl(121.5, 100%, 63%)" stroke-width="1.5"></path><path d="M1421.35 51.41L1279.68 107.05" stroke="hsl(121.5, 100%, 63%)" stroke-width="1.5"></path><path d="M1424.79 392.05L1424.79 392.05" stroke="hsl(121.5, 100%, 63%)" stroke-width="1.5"></path><path d="M1424.79 392.05L1389.13 560.93" stroke="hsl(121.5, 100%, 63%)" stroke-width="1.5"></path><path d="M1424.79 392.05L1607.59 404.87" stroke="hsl(121.5, 100%, 63%)" stroke-width="1.5"></path><path d="M1424.79 392.05L1585.77 489.92" stroke="hsl(121.5, 100%, 63%)" stroke-width="1.5"></path><path d="M1389.13 560.93L1389.13 560.93" stroke="hsl(121.5, 100%, 63%)" stroke-width="1.5"></path><path d="M1389.13 560.93L1404.56 681.43" stroke="hsl(121.5, 100%, 63%)" stroke-width="1.5"></path><path d="M1389.13 560.93L1265.42 643.4" stroke="hsl(121.5, 100%, 63%)" stroke-width="1.5"></path><path d="M1404.56 681.43L1404.56 681.43" stroke="hsl(121.5, 100%, 63%)" stroke-width="1.5"></path><path d="M1404.56 681.43L1265.42 643.4" stroke="hsl(121.5, 100%, 63%)" stroke-width="1.5"></path><path d="M1404.56 681.43L1568.61 677.78" stroke="hsl(121.5, 100%, 63%)" stroke-width="1.5"></path><path d="M1404.56 681.43L1585.77 489.92" stroke="hsl(121.5, 100%, 63%)" stroke-width="1.5"></path><path d="M1595.59 -103.6L1595.59 -103.6" stroke="hsl(121.5, 100%, 63%)" stroke-width="1.5"></path><path d="M1595.59 -103.6L1608.67 99.28" stroke="hsl(121.5, 100%, 63%)" stroke-width="1.5"></path><path d="M1595.59 -103.6L1421.35 51.41" stroke="hsl(121.5, 100%, 63%)" stroke-width="1.5"></path><path d="M1608.67 99.28L1608.67 99.28" stroke="hsl(121.5, 100%, 63%)" stroke-width="1.5"></path><path d="M1608.67 99.28L1589.81 258.28" stroke="hsl(121.5, 100%, 63%)" stroke-width="1.5"></path><path d="M1608.67 99.28L1421.35 51.41" stroke="hsl(121.5, 100%, 63%)" stroke-width="1.5"></path><path d="M1608.67 99.28L1425.63 213.39" stroke="hsl(121.5, 100%, 63%)" stroke-width="1.5"></path><path d="M1608.67 99.28L1440.53 -102.42" stroke="hsl(121.5, 100%, 63%)" stroke-width="1.5"></path><path d="M1589.81 258.28L1589.81 258.28" stroke="hsl(121.5, 100%, 63%)" stroke-width="1.5"></path><path d="M1589.81 258.28L1607.59 404.87" stroke="hsl(121.5, 100%, 63%)" stroke-width="1.5"></path><path d="M1607.59 404.87L1607.59 404.87" stroke="hsl(121.5, 100%, 63%)" stroke-width="1.5"></path><path d="M1607.59 404.87L1585.77 489.92" stroke="hsl(121.5, 100%, 63%)" stroke-width="1.5"></path><path d="M1585.77 489.92L1585.77 489.92" stroke="hsl(121.5, 100%, 63%)" stroke-width="1.5"></path><path d="M1585.77 489.92L1568.61 677.78" stroke="hsl(121.5, 100%, 63%)" stroke-width="1.5"></path><path d="M1585.77 489.92L1389.13 560.93" stroke="hsl(121.5, 100%, 63%)" stroke-width="1.5"></path><path d="M1585.77 489.92L1589.81 258.28" stroke="hsl(121.5, 100%, 63%)" stroke-width="1.5"></path><path d="M1568.61 677.78L1568.61 677.78" stroke="hsl(121.5, 100%, 63%)" stroke-width="1.5"></path><path d="M1568.61 677.78L1389.13 560.93" stroke="hsl(121.5, 100%, 63%)" stroke-width="1.5"></path><path d="M1568.61 677.78L1607.59 404.87" stroke="hsl(121.5, 100%, 63%)" stroke-width="1.5"></path><path d="M1568.61 677.78L1299.58 547.49" stroke="hsl(121.5, 100%, 63%)" stroke-width="1.5"></path><path d="M1568.61 677.78L1265.42 643.4" stroke="hsl(121.5, 100%, 63%)" stroke-width="1.5"></path><circle r="25" cx="532.83" cy="502.2" fill="url(#SvgjsRadialGradient1021)"></circle><circle r="25" cx="658.38" cy="515.76" fill="url(#SvgjsRadialGradient1021)"></circle><circle r="25" cx="1279.68" cy="107.05" fill="url(#SvgjsRadialGradient1021)"></circle><circle r="25" cx="1299.58" cy="547.49" fill="url(#SvgjsRadialGradient1021)"></circle><circle r="25" cx="1425.63" cy="213.39" fill="url(#SvgjsRadialGradient1021)"></circle><circle r="5" cx="-73.62" cy="516.09" fill="#80fb83"></circle><circle r="5" cx="-82.53" cy="675.34" fill="#80fb83"></circle><circle r="5" cx="110.02" cy="548.17" fill="#80fb83"></circle><circle r="5" cx="79.37" cy="684.7" fill="#80fb83"></circle><circle r="5" cx="209.56" cy="516.55" fill="#80fb83"></circle><circle r="5" cx="239.7" cy="685.88" fill="#80fb83"></circle><circle r="5" cx="338.41" cy="649.77" fill="#80fb83"></circle><circle r="5" cx="558.97" cy="650.63" fill="#80fb83"></circle><circle r="5" cx="688.23" cy="376.47" fill="#80fb83"></circle><circle r="5" cx="704.9" cy="670.37" fill="#80fb83"></circle><circle r="5" cx="853.44" cy="654.53" fill="#80fb83"></circle><circle r="5" cx="957.35" cy="509.28" fill="#80fb83"></circle><circle r="5" cx="939.94" cy="675.06" fill="#80fb83"></circle><circle r="5" cx="1158.68" cy="204.28" fill="#80fb83"></circle><circle r="5" cx="1140.19" cy="355.33" fill="#80fb83"></circle><circle r="5" cx="1153.17" cy="560.98" fill="#80fb83"></circle><circle r="5" cx="1133.66" cy="654.21" fill="#80fb83"></circle><circle r="5" cx="1249.52" cy="-58.79" fill="#80fb83"></circle><circle r="5" cx="1237.78" cy="192.62" fill="#80fb83"></circle><circle r="5" cx="1277.73" cy="404.56" fill="#80fb83"></circle><circle r="5" cx="1265.42" cy="643.4" fill="#80fb83"></circle><circle r="5" cx="1440.53" cy="-102.42" fill="#80fb83"></circle><circle r="5" cx="1421.35" cy="51.41" fill="#80fb83"></circle><circle r="5" cx="1424.79" cy="392.05" fill="#80fb83"></circle><circle r="5" cx="1389.13" cy="560.93" fill="#80fb83"></circle><circle r="5" cx="1404.56" cy="681.43" fill="#80fb83"></circle><circle r="5" cx="1595.59" cy="-103.6" fill="#80fb83"></circle><circle r="5" cx="1608.67" cy="99.28" fill="#80fb83"></circle><circle r="5" cx="1589.81" cy="258.28" fill="#80fb83"></circle><circle r="5" cx="1607.59" cy="404.87" fill="#80fb83"></circle><circle r="5" cx="1585.77" cy="489.92" fill="#80fb83"></circle><circle r="5" cx="1568.61" cy="677.78" fill="#80fb83"></circle></g><defs><mask id="SvgjsMask1020"><rect width="1440" height="560" fill="#ffffff"></rect></mask><radialGradient id="SvgjsRadialGradient1021"><stop stop-color="#ffffff" offset="0.1"></stop><stop stop-color="rgba(0, 247, 6, 1)" offset="0.2"></stop><stop stop-color="rgba(0, 247, 6, 0)" offset="1"></stop></radialGradient></defs></svg>