<svg xmlns="http://www.w3.org/2000/svg" version="1.1" xmlns:xlink="http://www.w3.org/1999/xlink" xmlns:svgjs="http://svgjs.com/svgjs" width="1440" height="560" preserveAspectRatio="none" viewBox="0 0 1440 560"><g mask="url(&quot;#SvgjsMask1006&quot;)" fill="none"><path d="M-79.6 379.26L-79.6 379.26" stroke="rgba(207, 0, 247, 1)" stroke-width="1.5"></path><path d="M-79.6 379.26L53.16 375.21" stroke="rgba(207, 0, 247, 1)" stroke-width="1.5"></path><path d="M-79.6 379.26L-104.53 560.64" stroke="rgba(207, 0, 247, 1)" stroke-width="1.5"></path><path d="M-79.6 379.26L234.02 345.54" stroke="rgba(207, 0, 247, 1)" stroke-width="1.5"></path><path d="M-104.53 560.64L-104.53 560.64" stroke="rgba(207, 0, 247, 1)" stroke-width="1.5"></path><path d="M-104.53 560.64L73.42 683.32" stroke="rgba(207, 0, 247, 1)" stroke-width="1.5"></path><path d="M53.16 375.21L53.16 375.21" stroke="rgba(207, 0, 247, 1)" stroke-width="1.5"></path><path d="M53.16 375.21L234.02 345.54" stroke="rgba(207, 0, 247, 1)" stroke-width="1.5"></path><path d="M53.16 375.21L-104.53 560.64" stroke="rgba(207, 0, 247, 1)" stroke-width="1.5"></path><path d="M53.16 375.21L260.34 550.48" stroke="rgba(207, 0, 247, 1)" stroke-width="1.5"></path><path d="M53.16 375.21L73.42 683.32" stroke="rgba(207, 0, 247, 1)" stroke-width="1.5"></path><path d="M53.16 375.21L392.8 367.8" stroke="rgba(207, 0, 247, 1)" stroke-width="1.5"></path><path d="M73.42 683.32L73.42 683.32" stroke="rgba(207, 0, 247, 1)" stroke-width="1.5"></path><path d="M73.42 683.32L257.93 676.71" stroke="rgba(207, 0, 247, 1)" stroke-width="1.5"></path><path d="M73.42 683.32L260.34 550.48" stroke="rgba(207, 0, 247, 1)" stroke-width="1.5"></path><path d="M234.02 345.54L234.02 345.54" stroke="rgba(207, 0, 247, 1)" stroke-width="1.5"></path><path d="M234.02 345.54L392.8 367.8" stroke="rgba(207, 0, 247, 1)" stroke-width="1.5"></path><path d="M234.02 345.54L260.34 550.48" stroke="rgba(207, 0, 247, 1)" stroke-width="1.5"></path><path d="M234.02 345.54L407.34 517.96" stroke="rgba(207, 0, 247, 1)" stroke-width="1.5"></path><path d="M234.02 345.54L511.69 407.25" stroke="rgba(207, 0, 247, 1)" stroke-width="1.5"></path><path d="M260.34 550.48L260.34 550.48" stroke="rgba(207, 0, 247, 1)" stroke-width="1.5"></path><path d="M260.34 550.48L257.93 676.71" stroke="rgba(207, 0, 247, 1)" stroke-width="1.5"></path><path d="M260.34 550.48L407.34 517.96" stroke="rgba(207, 0, 247, 1)" stroke-width="1.5"></path><path d="M260.34 550.48L408.19 678.79" stroke="rgba(207, 0, 247, 1)" stroke-width="1.5"></path><path d="M260.34 550.48L392.8 367.8" stroke="rgba(207, 0, 247, 1)" stroke-width="1.5"></path><path d="M257.93 676.71L257.93 676.71" stroke="rgba(207, 0, 247, 1)" stroke-width="1.5"></path><path d="M257.93 676.71L408.19 678.79" stroke="rgba(207, 0, 247, 1)" stroke-width="1.5"></path><path d="M257.93 676.71L407.34 517.96" stroke="rgba(207, 0, 247, 1)" stroke-width="1.5"></path><path d="M257.93 676.71L542.83 674.73" stroke="rgba(207, 0, 247, 1)" stroke-width="1.5"></path><path d="M392.8 367.8L392.8 367.8" stroke="rgba(207, 0, 247, 1)" stroke-width="1.5"></path><path d="M392.8 367.8L511.69 407.25" stroke="rgba(207, 0, 247, 1)" stroke-width="1.5"></path><path d="M407.34 517.96L407.34 517.96" stroke="rgba(207, 0, 247, 1)" stroke-width="1.5"></path><path d="M407.34 517.96L547.81 489.62" stroke="rgba(207, 0, 247, 1)" stroke-width="1.5"></path><path d="M408.19 678.79L408.19 678.79" stroke="rgba(207, 0, 247, 1)" stroke-width="1.5"></path><path d="M408.19 678.79L542.83 674.73" stroke="rgba(207, 0, 247, 1)" stroke-width="1.5"></path><path d="M408.19 678.79L407.34 517.96" stroke="rgba(207, 0, 247, 1)" stroke-width="1.5"></path><path d="M511.69 407.25L511.69 407.25" stroke="rgba(207, 0, 247, 1)" stroke-width="1.5"></path><path d="M511.69 407.25L547.81 489.62" stroke="rgba(207, 0, 247, 1)" stroke-width="1.5"></path><path d="M511.69 407.25L407.34 517.96" stroke="rgba(207, 0, 247, 1)" stroke-width="1.5"></path><path d="M547.81 489.62L547.81 489.62" stroke="rgba(207, 0, 247, 1)" stroke-width="1.5"></path><path d="M547.81 489.62L668.36 548.01" stroke="rgba(207, 0, 247, 1)" stroke-width="1.5"></path><path d="M542.83 674.73L542.83 674.73" stroke="rgba(207, 0, 247, 1)" stroke-width="1.5"></path><path d="M542.83 674.73L697.67 665.31" stroke="rgba(207, 0, 247, 1)" stroke-width="1.5"></path><path d="M542.83 674.73L668.36 548.01" stroke="rgba(207, 0, 247, 1)" stroke-width="1.5"></path><path d="M542.83 674.73L547.81 489.62" stroke="rgba(207, 0, 247, 1)" stroke-width="1.5"></path><path d="M686.36 218.96L686.36 218.96" stroke="rgba(207, 0, 247, 1)" stroke-width="1.5"></path><path d="M686.36 218.96L793.31 343.64" stroke="rgba(207, 0, 247, 1)" stroke-width="1.5"></path><path d="M686.36 218.96L670.48 393.39" stroke="rgba(207, 0, 247, 1)" stroke-width="1.5"></path><path d="M686.36 218.96L856.45 261.64" stroke="rgba(207, 0, 247, 1)" stroke-width="1.5"></path><path d="M686.36 218.96L511.69 407.25" stroke="rgba(207, 0, 247, 1)" stroke-width="1.5"></path><path d="M686.36 218.96L941.42 373.84" stroke="rgba(207, 0, 247, 1)" stroke-width="1.5"></path><path d="M686.36 218.96L547.81 489.62" stroke="rgba(207, 0, 247, 1)" stroke-width="1.5"></path><path d="M670.48 393.39L670.48 393.39" stroke="rgba(207, 0, 247, 1)" stroke-width="1.5"></path><path d="M670.48 393.39L793.31 343.64" stroke="rgba(207, 0, 247, 1)" stroke-width="1.5"></path><path d="M670.48 393.39L668.36 548.01" stroke="rgba(207, 0, 247, 1)" stroke-width="1.5"></path><path d="M670.48 393.39L547.81 489.62" stroke="rgba(207, 0, 247, 1)" stroke-width="1.5"></path><path d="M668.36 548.01L668.36 548.01" stroke="rgba(207, 0, 247, 1)" stroke-width="1.5"></path><path d="M668.36 548.01L697.67 665.31" stroke="rgba(207, 0, 247, 1)" stroke-width="1.5"></path><path d="M697.67 665.31L697.67 665.31" stroke="rgba(207, 0, 247, 1)" stroke-width="1.5"></path><path d="M697.67 665.31L857.94 648.8" stroke="rgba(207, 0, 247, 1)" stroke-width="1.5"></path><path d="M856.45 261.64L856.45 261.64" stroke="rgba(207, 0, 247, 1)" stroke-width="1.5"></path><path d="M856.45 261.64L793.31 343.64" stroke="rgba(207, 0, 247, 1)" stroke-width="1.5"></path><path d="M856.45 261.64L941.42 373.84" stroke="rgba(207, 0, 247, 1)" stroke-width="1.5"></path><path d="M856.45 261.64L1006.26 219.82" stroke="rgba(207, 0, 247, 1)" stroke-width="1.5"></path><path d="M856.45 261.64L986.04 109.17" stroke="rgba(207, 0, 247, 1)" stroke-width="1.5"></path><path d="M793.31 343.64L793.31 343.64" stroke="rgba(207, 0, 247, 1)" stroke-width="1.5"></path><path d="M793.31 343.64L941.42 373.84" stroke="rgba(207, 0, 247, 1)" stroke-width="1.5"></path><path d="M793.31 343.64L847 498.14" stroke="rgba(207, 0, 247, 1)" stroke-width="1.5"></path><path d="M847 498.14L847 498.14" stroke="rgba(207, 0, 247, 1)" stroke-width="1.5"></path><path d="M847 498.14L857.94 648.8" stroke="rgba(207, 0, 247, 1)" stroke-width="1.5"></path><path d="M847 498.14L941.42 373.84" stroke="rgba(207, 0, 247, 1)" stroke-width="1.5"></path><path d="M847 498.14L1000.95 558.1" stroke="rgba(207, 0, 247, 1)" stroke-width="1.5"></path><path d="M847 498.14L668.36 548.01" stroke="rgba(207, 0, 247, 1)" stroke-width="1.5"></path><path d="M847 498.14L670.48 393.39" stroke="rgba(207, 0, 247, 1)" stroke-width="1.5"></path><path d="M857.94 648.8L857.94 648.8" stroke="rgba(207, 0, 247, 1)" stroke-width="1.5"></path><path d="M857.94 648.8L1000.95 558.1" stroke="rgba(207, 0, 247, 1)" stroke-width="1.5"></path><path d="M857.94 648.8L668.36 548.01" stroke="rgba(207, 0, 247, 1)" stroke-width="1.5"></path><path d="M857.94 648.8L1127.91 706.9" stroke="rgba(207, 0, 247, 1)" stroke-width="1.5"></path><path d="M987.22 -105.99L987.22 -105.99" stroke="rgba(207, 0, 247, 1)" stroke-width="1.5"></path><path d="M987.22 -105.99L1122.91 -92.43" stroke="rgba(207, 0, 247, 1)" stroke-width="1.5"></path><path d="M987.22 -105.99L986.04 109.17" stroke="rgba(207, 0, 247, 1)" stroke-width="1.5"></path><path d="M987.22 -105.99L1154.04 55.4" stroke="rgba(207, 0, 247, 1)" stroke-width="1.5"></path><path d="M986.04 109.17L986.04 109.17" stroke="rgba(207, 0, 247, 1)" stroke-width="1.5"></path><path d="M986.04 109.17L1006.26 219.82" stroke="rgba(207, 0, 247, 1)" stroke-width="1.5"></path><path d="M986.04 109.17L1154.04 55.4" stroke="rgba(207, 0, 247, 1)" stroke-width="1.5"></path><path d="M986.04 109.17L1122.78 221.22" stroke="rgba(207, 0, 247, 1)" stroke-width="1.5"></path><path d="M1006.26 219.82L1006.26 219.82" stroke="rgba(207, 0, 247, 1)" stroke-width="1.5"></path><path d="M1006.26 219.82L1122.78 221.22" stroke="rgba(207, 0, 247, 1)" stroke-width="1.5"></path><path d="M941.42 373.84L941.42 373.84" stroke="rgba(207, 0, 247, 1)" stroke-width="1.5"></path><path d="M941.42 373.84L1006.26 219.82" stroke="rgba(207, 0, 247, 1)" stroke-width="1.5"></path><path d="M1000.95 558.1L1000.95 558.1" stroke="rgba(207, 0, 247, 1)" stroke-width="1.5"></path><path d="M1000.95 558.1L941.42 373.84" stroke="rgba(207, 0, 247, 1)" stroke-width="1.5"></path><path d="M1000.95 558.1L1127.91 706.9" stroke="rgba(207, 0, 247, 1)" stroke-width="1.5"></path><path d="M1000.95 558.1L1122.6 356.02" stroke="rgba(207, 0, 247, 1)" stroke-width="1.5"></path><path d="M1000.95 558.1L1240.45 646.99" stroke="rgba(207, 0, 247, 1)" stroke-width="1.5"></path><path d="M1122.91 -92.43L1122.91 -92.43" stroke="rgba(207, 0, 247, 1)" stroke-width="1.5"></path><path d="M1122.91 -92.43L1154.04 55.4" stroke="rgba(207, 0, 247, 1)" stroke-width="1.5"></path><path d="M1154.04 55.4L1154.04 55.4" stroke="rgba(207, 0, 247, 1)" stroke-width="1.5"></path><path d="M1154.04 55.4L1304.4 60.37" stroke="rgba(207, 0, 247, 1)" stroke-width="1.5"></path><path d="M1154.04 55.4L1122.78 221.22" stroke="rgba(207, 0, 247, 1)" stroke-width="1.5"></path><path d="M1154.04 55.4L1297.73 -60.49" stroke="rgba(207, 0, 247, 1)" stroke-width="1.5"></path><path d="M1122.78 221.22L1122.78 221.22" stroke="rgba(207, 0, 247, 1)" stroke-width="1.5"></path><path d="M1122.78 221.22L1122.6 356.02" stroke="rgba(207, 0, 247, 1)" stroke-width="1.5"></path><path d="M1122.78 221.22L1281.62 203.64" stroke="rgba(207, 0, 247, 1)" stroke-width="1.5"></path><path d="M1122.78 221.22L941.42 373.84" stroke="rgba(207, 0, 247, 1)" stroke-width="1.5"></path><path d="M1122.6 356.02L1122.6 356.02" stroke="rgba(207, 0, 247, 1)" stroke-width="1.5"></path><path d="M1122.6 356.02L1006.26 219.82" stroke="rgba(207, 0, 247, 1)" stroke-width="1.5"></path><path d="M1122.6 356.02L941.42 373.84" stroke="rgba(207, 0, 247, 1)" stroke-width="1.5"></path><path d="M1122.6 356.02L1308.38 381.78" stroke="rgba(207, 0, 247, 1)" stroke-width="1.5"></path><path d="M1122.6 356.02L1281.62 203.64" stroke="rgba(207, 0, 247, 1)" stroke-width="1.5"></path><path d="M1127.91 706.9L1127.91 706.9" stroke="rgba(207, 0, 247, 1)" stroke-width="1.5"></path><path d="M1127.91 706.9L1240.45 646.99" stroke="rgba(207, 0, 247, 1)" stroke-width="1.5"></path><path d="M1297.73 -60.49L1297.73 -60.49" stroke="rgba(207, 0, 247, 1)" stroke-width="1.5"></path><path d="M1297.73 -60.49L1410.91 -62.94" stroke="rgba(207, 0, 247, 1)" stroke-width="1.5"></path><path d="M1297.73 -60.49L1304.4 60.37" stroke="rgba(207, 0, 247, 1)" stroke-width="1.5"></path><path d="M1297.73 -60.49L1122.91 -92.43" stroke="rgba(207, 0, 247, 1)" stroke-width="1.5"></path><path d="M1304.4 60.37L1304.4 60.37" stroke="rgba(207, 0, 247, 1)" stroke-width="1.5"></path><path d="M1304.4 60.37L1281.62 203.64" stroke="rgba(207, 0, 247, 1)" stroke-width="1.5"></path><path d="M1304.4 60.37L1449.72 96.66" stroke="rgba(207, 0, 247, 1)" stroke-width="1.5"></path><path d="M1281.62 203.64L1281.62 203.64" stroke="rgba(207, 0, 247, 1)" stroke-width="1.5"></path><path d="M1281.62 203.64L1431.16 239.68" stroke="rgba(207, 0, 247, 1)" stroke-width="1.5"></path><path d="M1308.38 381.78L1308.38 381.78" stroke="rgba(207, 0, 247, 1)" stroke-width="1.5"></path><path d="M1308.38 381.78L1390.07 378.87" stroke="rgba(207, 0, 247, 1)" stroke-width="1.5"></path><path d="M1308.38 381.78L1281.62 203.64" stroke="rgba(207, 0, 247, 1)" stroke-width="1.5"></path><path d="M1308.38 381.78L1388.06 545.63" stroke="rgba(207, 0, 247, 1)" stroke-width="1.5"></path><path d="M1308.38 381.78L1431.16 239.68" stroke="rgba(207, 0, 247, 1)" stroke-width="1.5"></path><path d="M1240.45 646.99L1240.45 646.99" stroke="rgba(207, 0, 247, 1)" stroke-width="1.5"></path><path d="M1240.45 646.99L1388.06 545.63" stroke="rgba(207, 0, 247, 1)" stroke-width="1.5"></path><path d="M1240.45 646.99L1308.38 381.78" stroke="rgba(207, 0, 247, 1)" stroke-width="1.5"></path><path d="M1410.91 -62.94L1410.91 -62.94" stroke="rgba(207, 0, 247, 1)" stroke-width="1.5"></path><path d="M1410.91 -62.94L1549.79 -69.39" stroke="rgba(207, 0, 247, 1)" stroke-width="1.5"></path><path d="M1410.91 -62.94L1304.4 60.37" stroke="rgba(207, 0, 247, 1)" stroke-width="1.5"></path><path d="M1449.72 96.66L1449.72 96.66" stroke="rgba(207, 0, 247, 1)" stroke-width="1.5"></path><path d="M1449.72 96.66L1579.01 68.07" stroke="rgba(207, 0, 247, 1)" stroke-width="1.5"></path><path d="M1449.72 96.66L1431.16 239.68" stroke="rgba(207, 0, 247, 1)" stroke-width="1.5"></path><path d="M1449.72 96.66L1410.91 -62.94" stroke="rgba(207, 0, 247, 1)" stroke-width="1.5"></path><path d="M1449.72 96.66L1562.38 230.11" stroke="rgba(207, 0, 247, 1)" stroke-width="1.5"></path><path d="M1449.72 96.66L1549.79 -69.39" stroke="rgba(207, 0, 247, 1)" stroke-width="1.5"></path><path d="M1431.16 239.68L1431.16 239.68" stroke="rgba(207, 0, 247, 1)" stroke-width="1.5"></path><path d="M1431.16 239.68L1562.38 230.11" stroke="rgba(207, 0, 247, 1)" stroke-width="1.5"></path><path d="M1431.16 239.68L1390.07 378.87" stroke="rgba(207, 0, 247, 1)" stroke-width="1.5"></path><path d="M1390.07 378.87L1390.07 378.87" stroke="rgba(207, 0, 247, 1)" stroke-width="1.5"></path><path d="M1390.07 378.87L1388.06 545.63" stroke="rgba(207, 0, 247, 1)" stroke-width="1.5"></path><path d="M1390.07 378.87L1570.94 395.23" stroke="rgba(207, 0, 247, 1)" stroke-width="1.5"></path><path d="M1390.07 378.87L1281.62 203.64" stroke="rgba(207, 0, 247, 1)" stroke-width="1.5"></path><path d="M1388.06 545.63L1388.06 545.63" stroke="rgba(207, 0, 247, 1)" stroke-width="1.5"></path><path d="M1549.79 -69.39L1549.79 -69.39" stroke="rgba(207, 0, 247, 1)" stroke-width="1.5"></path><path d="M1549.79 -69.39L1579.01 68.07" stroke="rgba(207, 0, 247, 1)" stroke-width="1.5"></path><path d="M1549.79 -69.39L1297.73 -60.49" stroke="rgba(207, 0, 247, 1)" stroke-width="1.5"></path><path d="M1549.79 -69.39L1304.4 60.37" stroke="rgba(207, 0, 247, 1)" stroke-width="1.5"></path><path d="M1579.01 68.07L1579.01 68.07" stroke="rgba(207, 0, 247, 1)" stroke-width="1.5"></path><path d="M1579.01 68.07L1562.38 230.11" stroke="rgba(207, 0, 247, 1)" stroke-width="1.5"></path><path d="M1579.01 68.07L1410.91 -62.94" stroke="rgba(207, 0, 247, 1)" stroke-width="1.5"></path><path d="M1579.01 68.07L1431.16 239.68" stroke="rgba(207, 0, 247, 1)" stroke-width="1.5"></path><path d="M1579.01 68.07L1304.4 60.37" stroke="rgba(207, 0, 247, 1)" stroke-width="1.5"></path><path d="M1562.38 230.11L1562.38 230.11" stroke="rgba(207, 0, 247, 1)" stroke-width="1.5"></path><path d="M1562.38 230.11L1570.94 395.23" stroke="rgba(207, 0, 247, 1)" stroke-width="1.5"></path><path d="M1570.94 395.23L1570.94 395.23" stroke="rgba(207, 0, 247, 1)" stroke-width="1.5"></path><path d="M1570.94 395.23L1582.29 561.48" stroke="rgba(207, 0, 247, 1)" stroke-width="1.5"></path><path d="M1570.94 395.23L1431.16 239.68" stroke="rgba(207, 0, 247, 1)" stroke-width="1.5"></path><path d="M1570.94 395.23L1388.06 545.63" stroke="rgba(207, 0, 247, 1)" stroke-width="1.5"></path><path d="M1570.94 395.23L1308.38 381.78" stroke="rgba(207, 0, 247, 1)" stroke-width="1.5"></path><path d="M1582.29 561.48L1582.29 561.48" stroke="rgba(207, 0, 247, 1)" stroke-width="1.5"></path><path d="M1582.29 561.48L1573.5 664.42" stroke="rgba(207, 0, 247, 1)" stroke-width="1.5"></path><path d="M1582.29 561.48L1388.06 545.63" stroke="rgba(207, 0, 247, 1)" stroke-width="1.5"></path><path d="M1573.5 664.42L1573.5 664.42" stroke="rgba(207, 0, 247, 1)" stroke-width="1.5"></path><path d="M1573.5 664.42L1388.06 545.63" stroke="rgba(207, 0, 247, 1)" stroke-width="1.5"></path><path d="M1573.5 664.42L1570.94 395.23" stroke="rgba(207, 0, 247, 1)" stroke-width="1.5"></path><circle r="5" cx="-79.6" cy="379.26" fill="rgba(207, 0, 247, 1)"></circle><circle r="5" cx="-104.53" cy="560.64" fill="rgba(207, 0, 247, 1)"></circle><circle r="5" cx="53.16" cy="375.21" fill="rgba(207, 0, 247, 1)"></circle><circle r="5" cx="73.42" cy="683.32" fill="rgba(207, 0, 247, 1)"></circle><circle r="5" cx="234.02" cy="345.54" fill="rgba(207, 0, 247, 1)"></circle><circle r="5" cx="260.34" cy="550.48" fill="rgba(207, 0, 247, 1)"></circle><circle r="5" cx="257.93" cy="676.71" fill="rgba(207, 0, 247, 1)"></circle><circle r="5" cx="392.8" cy="367.8" fill="rgba(207, 0, 247, 1)"></circle><circle r="5" cx="407.34" cy="517.96" fill="rgba(207, 0, 247, 1)"></circle><circle r="5" cx="408.19" cy="678.79" fill="rgba(207, 0, 247, 1)"></circle><circle r="5" cx="511.69" cy="407.25" fill="rgba(207, 0, 247, 1)"></circle><circle r="5" cx="547.81" cy="489.62" fill="rgba(207, 0, 247, 1)"></circle><circle r="5" cx="542.83" cy="674.73" fill="rgba(207, 0, 247, 1)"></circle><circle r="5" cx="686.36" cy="218.96" fill="rgba(207, 0, 247, 1)"></circle><circle r="5" cx="670.48" cy="393.39" fill="rgba(207, 0, 247, 1)"></circle><circle r="5" cx="668.36" cy="548.01" fill="rgba(207, 0, 247, 1)"></circle><circle r="5" cx="697.67" cy="665.31" fill="rgba(207, 0, 247, 1)"></circle><circle r="5" cx="856.45" cy="261.64" fill="rgba(207, 0, 247, 1)"></circle><circle r="5" cx="793.31" cy="343.64" fill="rgba(207, 0, 247, 1)"></circle><circle r="5" cx="847" cy="498.14" fill="rgba(207, 0, 247, 1)"></circle><circle r="5" cx="857.94" cy="648.8" fill="rgba(207, 0, 247, 1)"></circle><circle r="5" cx="987.22" cy="-105.99" fill="rgba(207, 0, 247, 1)"></circle><circle r="5" cx="986.04" cy="109.17" fill="rgba(207, 0, 247, 1)"></circle><circle r="5" cx="1006.26" cy="219.82" fill="rgba(207, 0, 247, 1)"></circle><circle r="5" cx="941.42" cy="373.84" fill="rgba(207, 0, 247, 1)"></circle><circle r="5" cx="1000.95" cy="558.1" fill="rgba(207, 0, 247, 1)"></circle><circle r="5" cx="1122.91" cy="-92.43" fill="rgba(207, 0, 247, 1)"></circle><circle r="5" cx="1154.04" cy="55.4" fill="rgba(207, 0, 247, 1)"></circle><circle r="5" cx="1122.78" cy="221.22" fill="rgba(207, 0, 247, 1)"></circle><circle r="5" cx="1122.6" cy="356.02" fill="rgba(207, 0, 247, 1)"></circle><circle r="5" cx="1127.91" cy="706.9" fill="rgba(207, 0, 247, 1)"></circle><circle r="5" cx="1297.73" cy="-60.49" fill="rgba(207, 0, 247, 1)"></circle><circle r="5" cx="1304.4" cy="60.37" fill="rgba(207, 0, 247, 1)"></circle><circle r="5" cx="1281.62" cy="203.64" fill="rgba(207, 0, 247, 1)"></circle><circle r="5" cx="1308.38" cy="381.78" fill="rgba(207, 0, 247, 1)"></circle><circle r="5" cx="1240.45" cy="646.99" fill="rgba(207, 0, 247, 1)"></circle><circle r="5" cx="1410.91" cy="-62.94" fill="rgba(207, 0, 247, 1)"></circle><circle r="5" cx="1449.72" cy="96.66" fill="rgba(207, 0, 247, 1)"></circle><circle r="5" cx="1431.16" cy="239.68" fill="rgba(207, 0, 247, 1)"></circle><circle r="5" cx="1390.07" cy="378.87" fill="rgba(207, 0, 247, 1)"></circle><circle r="5" cx="1388.06" cy="545.63" fill="rgba(207, 0, 247, 1)"></circle><circle r="5" cx="1549.79" cy="-69.39" fill="rgba(207, 0, 247, 1)"></circle><circle r="5" cx="1579.01" cy="68.07" fill="rgba(207, 0, 247, 1)"></circle><circle r="5" cx="1562.38" cy="230.11" fill="rgba(207, 0, 247, 1)"></circle><circle r="5" cx="1570.94" cy="395.23" fill="rgba(207, 0, 247, 1)"></circle><circle r="5" cx="1582.29" cy="561.48" fill="rgba(207, 0, 247, 1)"></circle><circle r="5" cx="1573.5" cy="664.42" fill="rgba(207, 0, 247, 1)"></circle><path d="M251.34 525.31L251.34 525.31" stroke="hsl(278.79999999999995, 77.2%, 51.5%)" stroke-width="1.5"></path><path d="M251.34 525.31L364.46 539.17" stroke="hsl(278.79999999999995, 77.2%, 51.5%)" stroke-width="1.5"></path><path d="M251.34 525.31L104.19 531.33" stroke="hsl(278.79999999999995, 77.2%, 51.5%)" stroke-width="1.5"></path><path d="M251.34 525.31L196.28 676.68" stroke="hsl(278.79999999999995, 77.2%, 51.5%)" stroke-width="1.5"></path><path d="M791.17 402.62L791.17 402.62" stroke="hsl(278.79999999999995, 77.2%, 51.5%)" stroke-width="1.5"></path><path d="M791.17 402.62L653.05 411.43" stroke="hsl(278.79999999999995, 77.2%, 51.5%)" stroke-width="1.5"></path><path d="M791.17 402.62L861.55 550.22" stroke="hsl(278.79999999999995, 77.2%, 51.5%)" stroke-width="1.5"></path><path d="M791.17 402.62L666.38 508.35" stroke="hsl(278.79999999999995, 77.2%, 51.5%)" stroke-width="1.5"></path><path d="M791.17 402.62L1001.79 390.95" stroke="hsl(278.79999999999995, 77.2%, 51.5%)" stroke-width="1.5"></path><path d="M791.17 402.62L992.49 495.87" stroke="hsl(278.79999999999995, 77.2%, 51.5%)" stroke-width="1.5"></path><path d="M1280.52 539.08L1280.52 539.08" stroke="hsl(278.79999999999995, 77.2%, 51.5%)" stroke-width="1.5"></path><path d="M1280.52 539.08L1290.89 667.33" stroke="hsl(278.79999999999995, 77.2%, 51.5%)" stroke-width="1.5"></path><path d="M1280.52 539.08L1286.52 382.91" stroke="hsl(278.79999999999995, 77.2%, 51.5%)" stroke-width="1.5"></path><path d="M1439.18 343.61L1439.18 343.61" stroke="hsl(278.79999999999995, 77.2%, 51.5%)" stroke-width="1.5"></path><path d="M1439.18 343.61L1560.21 355.27" stroke="hsl(278.79999999999995, 77.2%, 51.5%)" stroke-width="1.5"></path><path d="M-67.46 549.06L-67.46 549.06" stroke="hsl(278.79999999999995, 77.2%, 51.5%)" stroke-width="1.5"></path><path d="M-67.46 549.06L-92.93 704.97" stroke="hsl(278.79999999999995, 77.2%, 51.5%)" stroke-width="1.5"></path><path d="M-67.46 549.06L104.19 531.33" stroke="hsl(278.79999999999995, 77.2%, 51.5%)" stroke-width="1.5"></path><path d="M-67.46 549.06L109.14 698.07" stroke="hsl(278.79999999999995, 77.2%, 51.5%)" stroke-width="1.5"></path><path d="M-92.93 704.97L-92.93 704.97" stroke="hsl(278.79999999999995, 77.2%, 51.5%)" stroke-width="1.5"></path><path d="M-92.93 704.97L109.14 698.07" stroke="hsl(278.79999999999995, 77.2%, 51.5%)" stroke-width="1.5"></path><path d="M104.19 531.33L104.19 531.33" stroke="hsl(278.79999999999995, 77.2%, 51.5%)" stroke-width="1.5"></path><path d="M104.19 531.33L109.14 698.07" stroke="hsl(278.79999999999995, 77.2%, 51.5%)" stroke-width="1.5"></path><path d="M104.19 531.33L196.28 676.68" stroke="hsl(278.79999999999995, 77.2%, 51.5%)" stroke-width="1.5"></path><path d="M104.19 531.33L364.46 539.17" stroke="hsl(278.79999999999995, 77.2%, 51.5%)" stroke-width="1.5"></path><path d="M109.14 698.07L109.14 698.07" stroke="hsl(278.79999999999995, 77.2%, 51.5%)" stroke-width="1.5"></path><path d="M109.14 698.07L196.28 676.68" stroke="hsl(278.79999999999995, 77.2%, 51.5%)" stroke-width="1.5"></path><path d="M196.28 676.68L196.28 676.68" stroke="hsl(278.79999999999995, 77.2%, 51.5%)" stroke-width="1.5"></path><path d="M196.28 676.68L354.06 684.31" stroke="hsl(278.79999999999995, 77.2%, 51.5%)" stroke-width="1.5"></path><path d="M364.46 539.17L364.46 539.17" stroke="hsl(278.79999999999995, 77.2%, 51.5%)" stroke-width="1.5"></path><path d="M364.46 539.17L354.06 684.31" stroke="hsl(278.79999999999995, 77.2%, 51.5%)" stroke-width="1.5"></path><path d="M364.46 539.17L508.25 649.72" stroke="hsl(278.79999999999995, 77.2%, 51.5%)" stroke-width="1.5"></path><path d="M354.06 684.31L354.06 684.31" stroke="hsl(278.79999999999995, 77.2%, 51.5%)" stroke-width="1.5"></path><path d="M550.26 530.69L550.26 530.69" stroke="hsl(278.79999999999995, 77.2%, 51.5%)" stroke-width="1.5"></path><path d="M550.26 530.69L666.38 508.35" stroke="hsl(278.79999999999995, 77.2%, 51.5%)" stroke-width="1.5"></path><path d="M550.26 530.69L508.25 649.72" stroke="hsl(278.79999999999995, 77.2%, 51.5%)" stroke-width="1.5"></path><path d="M550.26 530.69L653.05 411.43" stroke="hsl(278.79999999999995, 77.2%, 51.5%)" stroke-width="1.5"></path><path d="M550.26 530.69L688.99 648.79" stroke="hsl(278.79999999999995, 77.2%, 51.5%)" stroke-width="1.5"></path><path d="M550.26 530.69L364.46 539.17" stroke="hsl(278.79999999999995, 77.2%, 51.5%)" stroke-width="1.5"></path><path d="M508.25 649.72L508.25 649.72" stroke="hsl(278.79999999999995, 77.2%, 51.5%)" stroke-width="1.5"></path><path d="M508.25 649.72L354.06 684.31" stroke="hsl(278.79999999999995, 77.2%, 51.5%)" stroke-width="1.5"></path><path d="M508.25 649.72L688.99 648.79" stroke="hsl(278.79999999999995, 77.2%, 51.5%)" stroke-width="1.5"></path><path d="M653.05 411.43L653.05 411.43" stroke="hsl(278.79999999999995, 77.2%, 51.5%)" stroke-width="1.5"></path><path d="M653.05 411.43L666.38 508.35" stroke="hsl(278.79999999999995, 77.2%, 51.5%)" stroke-width="1.5"></path><path d="M653.05 411.43L688.99 648.79" stroke="hsl(278.79999999999995, 77.2%, 51.5%)" stroke-width="1.5"></path><path d="M666.38 508.35L666.38 508.35" stroke="hsl(278.79999999999995, 77.2%, 51.5%)" stroke-width="1.5"></path><path d="M688.99 648.79L688.99 648.79" stroke="hsl(278.79999999999995, 77.2%, 51.5%)" stroke-width="1.5"></path><path d="M688.99 648.79L801.67 673.58" stroke="hsl(278.79999999999995, 77.2%, 51.5%)" stroke-width="1.5"></path><path d="M688.99 648.79L666.38 508.35" stroke="hsl(278.79999999999995, 77.2%, 51.5%)" stroke-width="1.5"></path><path d="M688.99 648.79L861.55 550.22" stroke="hsl(278.79999999999995, 77.2%, 51.5%)" stroke-width="1.5"></path><path d="M861.55 550.22L861.55 550.22" stroke="hsl(278.79999999999995, 77.2%, 51.5%)" stroke-width="1.5"></path><path d="M861.55 550.22L801.67 673.58" stroke="hsl(278.79999999999995, 77.2%, 51.5%)" stroke-width="1.5"></path><path d="M861.55 550.22L992.49 495.87" stroke="hsl(278.79999999999995, 77.2%, 51.5%)" stroke-width="1.5"></path><path d="M801.67 673.58L801.67 673.58" stroke="hsl(278.79999999999995, 77.2%, 51.5%)" stroke-width="1.5"></path><path d="M801.67 673.58L975.51 685.79" stroke="hsl(278.79999999999995, 77.2%, 51.5%)" stroke-width="1.5"></path><path d="M801.67 673.58L666.38 508.35" stroke="hsl(278.79999999999995, 77.2%, 51.5%)" stroke-width="1.5"></path><path d="M801.67 673.58L992.49 495.87" stroke="hsl(278.79999999999995, 77.2%, 51.5%)" stroke-width="1.5"></path><path d="M1001.79 390.95L1001.79 390.95" stroke="hsl(278.79999999999995, 77.2%, 51.5%)" stroke-width="1.5"></path><path d="M1001.79 390.95L1099.97 371.56" stroke="hsl(278.79999999999995, 77.2%, 51.5%)" stroke-width="1.5"></path><path d="M1001.79 390.95L992.49 495.87" stroke="hsl(278.79999999999995, 77.2%, 51.5%)" stroke-width="1.5"></path><path d="M1001.79 390.95L1136.76 247.37" stroke="hsl(278.79999999999995, 77.2%, 51.5%)" stroke-width="1.5"></path><path d="M1001.79 390.95L861.55 550.22" stroke="hsl(278.79999999999995, 77.2%, 51.5%)" stroke-width="1.5"></path><path d="M1001.79 390.95L1286.52 382.91" stroke="hsl(278.79999999999995, 77.2%, 51.5%)" stroke-width="1.5"></path><path d="M992.49 495.87L992.49 495.87" stroke="hsl(278.79999999999995, 77.2%, 51.5%)" stroke-width="1.5"></path><path d="M992.49 495.87L1099.97 371.56" stroke="hsl(278.79999999999995, 77.2%, 51.5%)" stroke-width="1.5"></path><path d="M992.49 495.87L975.51 685.79" stroke="hsl(278.79999999999995, 77.2%, 51.5%)" stroke-width="1.5"></path><path d="M975.51 685.79L975.51 685.79" stroke="hsl(278.79999999999995, 77.2%, 51.5%)" stroke-width="1.5"></path><path d="M975.51 685.79L1146.92 683.7" stroke="hsl(278.79999999999995, 77.2%, 51.5%)" stroke-width="1.5"></path><path d="M1155.21 -90.36L1155.21 -90.36" stroke="hsl(278.79999999999995, 77.2%, 51.5%)" stroke-width="1.5"></path><path d="M1155.21 -90.36L1272.66 -107.02" stroke="hsl(278.79999999999995, 77.2%, 51.5%)" stroke-width="1.5"></path><path d="M1155.21 -90.36L1295.13 75.76" stroke="hsl(278.79999999999995, 77.2%, 51.5%)" stroke-width="1.5"></path><path d="M1155.21 -90.36L1427.78 -60.94" stroke="hsl(278.79999999999995, 77.2%, 51.5%)" stroke-width="1.5"></path><path d="M1155.21 -90.36L1404.01 45.59" stroke="hsl(278.79999999999995, 77.2%, 51.5%)" stroke-width="1.5"></path><path d="M1155.21 -90.36L1270.34 205.93" stroke="hsl(278.79999999999995, 77.2%, 51.5%)" stroke-width="1.5"></path><path d="M1136.76 247.37L1136.76 247.37" stroke="hsl(278.79999999999995, 77.2%, 51.5%)" stroke-width="1.5"></path><path d="M1136.76 247.37L1099.97 371.56" stroke="hsl(278.79999999999995, 77.2%, 51.5%)" stroke-width="1.5"></path><path d="M1136.76 247.37L1270.34 205.93" stroke="hsl(278.79999999999995, 77.2%, 51.5%)" stroke-width="1.5"></path><path d="M1099.97 371.56L1099.97 371.56" stroke="hsl(278.79999999999995, 77.2%, 51.5%)" stroke-width="1.5"></path><path d="M1099.97 371.56L1286.52 382.91" stroke="hsl(278.79999999999995, 77.2%, 51.5%)" stroke-width="1.5"></path><path d="M1099.97 371.56L1270.34 205.93" stroke="hsl(278.79999999999995, 77.2%, 51.5%)" stroke-width="1.5"></path><path d="M1146.92 683.7L1146.92 683.7" stroke="hsl(278.79999999999995, 77.2%, 51.5%)" stroke-width="1.5"></path><path d="M1146.92 683.7L1290.89 667.33" stroke="hsl(278.79999999999995, 77.2%, 51.5%)" stroke-width="1.5"></path><path d="M1146.92 683.7L1280.52 539.08" stroke="hsl(278.79999999999995, 77.2%, 51.5%)" stroke-width="1.5"></path><path d="M1146.92 683.7L992.49 495.87" stroke="hsl(278.79999999999995, 77.2%, 51.5%)" stroke-width="1.5"></path><path d="M1146.92 683.7L1395.35 681.49" stroke="hsl(278.79999999999995, 77.2%, 51.5%)" stroke-width="1.5"></path><path d="M1146.92 683.7L861.55 550.22" stroke="hsl(278.79999999999995, 77.2%, 51.5%)" stroke-width="1.5"></path><path d="M1272.66 -107.02L1272.66 -107.02" stroke="hsl(278.79999999999995, 77.2%, 51.5%)" stroke-width="1.5"></path><path d="M1272.66 -107.02L1427.78 -60.94" stroke="hsl(278.79999999999995, 77.2%, 51.5%)" stroke-width="1.5"></path><path d="M1272.66 -107.02L1295.13 75.76" stroke="hsl(278.79999999999995, 77.2%, 51.5%)" stroke-width="1.5"></path><path d="M1272.66 -107.02L1404.01 45.59" stroke="hsl(278.79999999999995, 77.2%, 51.5%)" stroke-width="1.5"></path><path d="M1295.13 75.76L1295.13 75.76" stroke="hsl(278.79999999999995, 77.2%, 51.5%)" stroke-width="1.5"></path><path d="M1295.13 75.76L1404.01 45.59" stroke="hsl(278.79999999999995, 77.2%, 51.5%)" stroke-width="1.5"></path><path d="M1295.13 75.76L1270.34 205.93" stroke="hsl(278.79999999999995, 77.2%, 51.5%)" stroke-width="1.5"></path><path d="M1295.13 75.76L1416.69 199.27" stroke="hsl(278.79999999999995, 77.2%, 51.5%)" stroke-width="1.5"></path><path d="M1295.13 75.76L1427.78 -60.94" stroke="hsl(278.79999999999995, 77.2%, 51.5%)" stroke-width="1.5"></path><path d="M1270.34 205.93L1270.34 205.93" stroke="hsl(278.79999999999995, 77.2%, 51.5%)" stroke-width="1.5"></path><path d="M1270.34 205.93L1416.69 199.27" stroke="hsl(278.79999999999995, 77.2%, 51.5%)" stroke-width="1.5"></path><path d="M1270.34 205.93L1286.52 382.91" stroke="hsl(278.79999999999995, 77.2%, 51.5%)" stroke-width="1.5"></path><path d="M1286.52 382.91L1286.52 382.91" stroke="hsl(278.79999999999995, 77.2%, 51.5%)" stroke-width="1.5"></path><path d="M1286.52 382.91L1439.18 343.61" stroke="hsl(278.79999999999995, 77.2%, 51.5%)" stroke-width="1.5"></path><path d="M1286.52 382.91L1434.29 498.14" stroke="hsl(278.79999999999995, 77.2%, 51.5%)" stroke-width="1.5"></path><path d="M1290.89 667.33L1290.89 667.33" stroke="hsl(278.79999999999995, 77.2%, 51.5%)" stroke-width="1.5"></path><path d="M1290.89 667.33L1395.35 681.49" stroke="hsl(278.79999999999995, 77.2%, 51.5%)" stroke-width="1.5"></path><path d="M1290.89 667.33L1434.29 498.14" stroke="hsl(278.79999999999995, 77.2%, 51.5%)" stroke-width="1.5"></path><path d="M1427.78 -60.94L1427.78 -60.94" stroke="hsl(278.79999999999995, 77.2%, 51.5%)" stroke-width="1.5"></path><path d="M1427.78 -60.94L1404.01 45.59" stroke="hsl(278.79999999999995, 77.2%, 51.5%)" stroke-width="1.5"></path><path d="M1427.78 -60.94L1604.05 -47.4" stroke="hsl(278.79999999999995, 77.2%, 51.5%)" stroke-width="1.5"></path><path d="M1404.01 45.59L1404.01 45.59" stroke="hsl(278.79999999999995, 77.2%, 51.5%)" stroke-width="1.5"></path><path d="M1404.01 45.59L1416.69 199.27" stroke="hsl(278.79999999999995, 77.2%, 51.5%)" stroke-width="1.5"></path><path d="M1404.01 45.59L1607.38 56" stroke="hsl(278.79999999999995, 77.2%, 51.5%)" stroke-width="1.5"></path><path d="M1404.01 45.59L1270.34 205.93" stroke="hsl(278.79999999999995, 77.2%, 51.5%)" stroke-width="1.5"></path><path d="M1416.69 199.27L1416.69 199.27" stroke="hsl(278.79999999999995, 77.2%, 51.5%)" stroke-width="1.5"></path><path d="M1416.69 199.27L1560.61 217.76" stroke="hsl(278.79999999999995, 77.2%, 51.5%)" stroke-width="1.5"></path><path d="M1416.69 199.27L1439.18 343.61" stroke="hsl(278.79999999999995, 77.2%, 51.5%)" stroke-width="1.5"></path><path d="M1434.29 498.14L1434.29 498.14" stroke="hsl(278.79999999999995, 77.2%, 51.5%)" stroke-width="1.5"></path><path d="M1434.29 498.14L1439.18 343.61" stroke="hsl(278.79999999999995, 77.2%, 51.5%)" stroke-width="1.5"></path><path d="M1434.29 498.14L1589.37 529.99" stroke="hsl(278.79999999999995, 77.2%, 51.5%)" stroke-width="1.5"></path><path d="M1395.35 681.49L1395.35 681.49" stroke="hsl(278.79999999999995, 77.2%, 51.5%)" stroke-width="1.5"></path><path d="M1395.35 681.49L1542.87 691.62" stroke="hsl(278.79999999999995, 77.2%, 51.5%)" stroke-width="1.5"></path><path d="M1395.35 681.49L1280.52 539.08" stroke="hsl(278.79999999999995, 77.2%, 51.5%)" stroke-width="1.5"></path><path d="M1395.35 681.49L1434.29 498.14" stroke="hsl(278.79999999999995, 77.2%, 51.5%)" stroke-width="1.5"></path><path d="M1604.05 -47.4L1604.05 -47.4" stroke="hsl(278.79999999999995, 77.2%, 51.5%)" stroke-width="1.5"></path><path d="M1604.05 -47.4L1607.38 56" stroke="hsl(278.79999999999995, 77.2%, 51.5%)" stroke-width="1.5"></path><path d="M1607.38 56L1607.38 56" stroke="hsl(278.79999999999995, 77.2%, 51.5%)" stroke-width="1.5"></path><path d="M1607.38 56L1560.61 217.76" stroke="hsl(278.79999999999995, 77.2%, 51.5%)" stroke-width="1.5"></path><path d="M1607.38 56L1427.78 -60.94" stroke="hsl(278.79999999999995, 77.2%, 51.5%)" stroke-width="1.5"></path><path d="M1607.38 56L1416.69 199.27" stroke="hsl(278.79999999999995, 77.2%, 51.5%)" stroke-width="1.5"></path><path d="M1607.38 56L1560.21 355.27" stroke="hsl(278.79999999999995, 77.2%, 51.5%)" stroke-width="1.5"></path><path d="M1560.61 217.76L1560.61 217.76" stroke="hsl(278.79999999999995, 77.2%, 51.5%)" stroke-width="1.5"></path><path d="M1560.61 217.76L1560.21 355.27" stroke="hsl(278.79999999999995, 77.2%, 51.5%)" stroke-width="1.5"></path><path d="M1560.61 217.76L1439.18 343.61" stroke="hsl(278.79999999999995, 77.2%, 51.5%)" stroke-width="1.5"></path><path d="M1560.61 217.76L1404.01 45.59" stroke="hsl(278.79999999999995, 77.2%, 51.5%)" stroke-width="1.5"></path><path d="M1560.21 355.27L1560.21 355.27" stroke="hsl(278.79999999999995, 77.2%, 51.5%)" stroke-width="1.5"></path><path d="M1560.21 355.27L1589.37 529.99" stroke="hsl(278.79999999999995, 77.2%, 51.5%)" stroke-width="1.5"></path><path d="M1589.37 529.99L1589.37 529.99" stroke="hsl(278.79999999999995, 77.2%, 51.5%)" stroke-width="1.5"></path><path d="M1589.37 529.99L1542.87 691.62" stroke="hsl(278.79999999999995, 77.2%, 51.5%)" stroke-width="1.5"></path><path d="M1542.87 691.62L1542.87 691.62" stroke="hsl(278.79999999999995, 77.2%, 51.5%)" stroke-width="1.5"></path><path d="M1542.87 691.62L1434.29 498.14" stroke="hsl(278.79999999999995, 77.2%, 51.5%)" stroke-width="1.5"></path><path d="M1542.87 691.62L1290.89 667.33" stroke="hsl(278.79999999999995, 77.2%, 51.5%)" stroke-width="1.5"></path><path d="M1542.87 691.62L1280.52 539.08" stroke="hsl(278.79999999999995, 77.2%, 51.5%)" stroke-width="1.5"></path><circle r="25" cx="251.34" cy="525.31" fill="url(#SvgjsRadialGradient1007)"></circle><circle r="25" cx="791.17" cy="402.62" fill="url(#SvgjsRadialGradient1007)"></circle><circle r="25" cx="1280.52" cy="539.08" fill="url(#SvgjsRadialGradient1007)"></circle><circle r="25" cx="1439.18" cy="343.61" fill="url(#SvgjsRadialGradient1007)"></circle><circle r="5" cx="-67.46" cy="549.06" fill="#be8bd9"></circle><circle r="5" cx="-92.93" cy="704.97" fill="#be8bd9"></circle><circle r="5" cx="104.19" cy="531.33" fill="#be8bd9"></circle><circle r="5" cx="109.14" cy="698.07" fill="#be8bd9"></circle><circle r="5" cx="196.28" cy="676.68" fill="#be8bd9"></circle><circle r="5" cx="364.46" cy="539.17" fill="#be8bd9"></circle><circle r="5" cx="354.06" cy="684.31" fill="#be8bd9"></circle><circle r="5" cx="550.26" cy="530.69" fill="#be8bd9"></circle><circle r="5" cx="508.25" cy="649.72" fill="#be8bd9"></circle><circle r="5" cx="653.05" cy="411.43" fill="#be8bd9"></circle><circle r="5" cx="666.38" cy="508.35" fill="#be8bd9"></circle><circle r="5" cx="688.99" cy="648.79" fill="#be8bd9"></circle><circle r="5" cx="861.55" cy="550.22" fill="#be8bd9"></circle><circle r="5" cx="801.67" cy="673.58" fill="#be8bd9"></circle><circle r="5" cx="1001.79" cy="390.95" fill="#be8bd9"></circle><circle r="5" cx="992.49" cy="495.87" fill="#be8bd9"></circle><circle r="5" cx="975.51" cy="685.79" fill="#be8bd9"></circle><circle r="5" cx="1155.21" cy="-90.36" fill="#be8bd9"></circle><circle r="5" cx="1136.76" cy="247.37" fill="#be8bd9"></circle><circle r="5" cx="1099.97" cy="371.56" fill="#be8bd9"></circle><circle r="5" cx="1146.92" cy="683.7" fill="#be8bd9"></circle><circle r="5" cx="1272.66" cy="-107.02" fill="#be8bd9"></circle><circle r="5" cx="1295.13" cy="75.76" fill="#be8bd9"></circle><circle r="5" cx="1270.34" cy="205.93" fill="#be8bd9"></circle><circle r="5" cx="1286.52" cy="382.91" fill="#be8bd9"></circle><circle r="5" cx="1290.89" cy="667.33" fill="#be8bd9"></circle><circle r="5" cx="1427.78" cy="-60.94" fill="#be8bd9"></circle><circle r="5" cx="1404.01" cy="45.59" fill="#be8bd9"></circle><circle r="5" cx="1416.69" cy="199.27" fill="#be8bd9"></circle><circle r="5" cx="1434.29" cy="498.14" fill="#be8bd9"></circle><circle r="5" cx="1395.35" cy="681.49" fill="#be8bd9"></circle><circle r="5" cx="1604.05" cy="-47.4" fill="#be8bd9"></circle><circle r="5" cx="1607.38" cy="56" fill="#be8bd9"></circle><circle r="5" cx="1560.61" cy="217.76" fill="#be8bd9"></circle><circle r="5" cx="1560.21" cy="355.27" fill="#be8bd9"></circle><circle r="5" cx="1589.37" cy="529.99" fill="#be8bd9"></circle><circle r="5" cx="1542.87" cy="691.62" fill="#be8bd9"></circle></g><defs><mask id="SvgjsMask1006"><rect width="1440" height="560" fill="#ffffff"></rect></mask><radialGradient id="SvgjsRadialGradient1007"><stop stop-color="#ffffff" offset="0.1"></stop><stop stop-color="rgba(124, 23, 179, 1)" offset="0.2"></stop><stop stop-color="rgba(124, 23, 179, 0)" offset="1"></stop></radialGradient></defs></svg>