<svg xmlns="http://www.w3.org/2000/svg" version="1.1" xmlns:xlink="http://www.w3.org/1999/xlink" xmlns:svgjs="http://svgjs.com/svgjs" width="1440" height="560" preserveAspectRatio="none" viewBox="0 0 1440 560"><g mask="url(&quot;#SvgjsMask1016&quot;)" fill="none"><circle r="9.25" cx="1008.54" cy="30.21" filter="url(#SvgjsFilter1017)" fill="rgba(195, 235, 234, 0.95)"></circle><circle r="5.435" cx="859.125" cy="107.595" filter="url(#SvgjsFilter1017)" fill="rgba(195, 235, 234, 0.95)"></circle><circle r="5.9" cx="763.04" cy="449.37" filter="url(#SvgjsFilter1017)" fill="rgba(195, 235, 234, 0.95)"></circle><circle r="8.28" cx="790.22" cy="171.1" filter="url(#SvgjsFilter1017)" fill="rgba(195, 235, 234, 0.95)"></circle><circle r="5.28" cx="467.03999999999996" cy="189.45" filter="url(#SvgjsFilter1017)" fill="rgba(195, 235, 234, 0.95)"></circle><circle r="7.35" cx="262.41" cy="201.35999999999999" filter="url(#SvgjsFilter1017)" fill="rgba(195, 235, 234, 0.95)"></circle><circle r="7.81" cx="539.65" cy="473.03000000000003" filter="url(#SvgjsFilter1017)" fill="rgba(195, 235, 234, 0.95)"></circle><circle r="7.335" cx="618.2950000000001" cy="489.565" filter="url(#SvgjsFilter1017)" fill="rgba(195, 235, 234, 0.95)"></circle><circle r="6.455" cx="1007.715" cy="111.435" filter="url(#SvgjsFilter1017)" fill="rgba(195, 235, 234, 0.95)"></circle><circle r="7.985" cx="149.06500000000003" cy="144.965" filter="url(#SvgjsFilter1017)" fill="rgba(195, 235, 234, 0.95)"></circle><circle r="6.77" cx="1445.35" cy="549.56" filter="url(#SvgjsFilter1017)" fill="rgba(195, 235, 234, 0.95)"></circle><circle r="7.84" cx="1206.47" cy="29.22" filter="url(#SvgjsFilter1017)" fill="rgba(195, 235, 234, 0.95)"></circle><circle r="7.69" cx="1155.27" cy="389.85" filter="url(#SvgjsFilter1017)" fill="rgba(195, 235, 234, 0.95)"></circle><circle r="7.15" cx="425.47999999999996" cy="18.87" filter="url(#SvgjsFilter1017)" fill="rgba(195, 235, 234, 0.95)"></circle><circle r="5.285" cx="910.245" cy="93.925" filter="url(#SvgjsFilter1017)" fill="rgba(195, 235, 234, 0.95)"></circle><circle r="8.745" cx="628.695" cy="177.705" filter="url(#SvgjsFilter1017)" fill="rgba(195, 235, 234, 0.95)"></circle><circle r="8.075" cx="297.965" cy="403.585" filter="url(#SvgjsFilter1017)" fill="rgba(195, 235, 234, 0.95)"></circle><circle r="7.58" cx="927.61" cy="433.4" filter="url(#SvgjsFilter1017)" fill="rgba(195, 235, 234, 0.95)"></circle><circle r="8.61" cx="1216.4699999999998" cy="364.65000000000003" filter="url(#SvgjsFilter1017)" fill="rgba(195, 235, 234, 0.95)"></circle><circle r="8.305" cx="432.055" cy="449.46500000000003" filter="url(#SvgjsFilter1017)" fill="rgba(195, 235, 234, 0.95)"></circle><path d="M725.5 86.8L701.8 108.1 690.1 107.3 698.2 100.1C699.2 99.5 699 98.3 698.5 97.2 697.8 96.7 696.4 96.5 695.8 97.2L684.6 106.9 673.1 106.4 679.5 96.9 694.2 94C694.2 94 694.6 93.8 694.6 93.8 695.3 93.5 695.6 92.4 695.6 91.5 695.1 90.4 694.4 89.9 693.1 90.1L682.6 92.3 689 82.8 720.1 76C720.1 76 720.6 76.2 720.6 76.2 721.3 75.9 721.7 74.8 721.7 73.9 721.5 72.6 720.3 71.9 719.2 72.5L692 78.1 699.5 66.3 711.7 63.7C711.7 63.7 711.7 63.7 712 63.5 712.7 63.2 713.3 62.5 713.3 61.6 712.7 60.5 711.8 59.6 710.6 59.8L702.5 61.6 708 53C708.9 52.1 708.4 51 707.7 50.5 706.8 49.6 705.5 49.8 704.8 51L699.1 59.3 697.8 51.4C697.3 50.4 696.4 49.5 695.3 50 694.1 50.2 693.6 50.9 693.7 52.2L696.3 64.3 688.6 75.8 682.8 48.2C682.8 47.3 681.6 46.6 680.3 46.8 679.6 47.2 678.7 48.1 678.9 49.3L685.6 80.4 679.2 89.9 677 79.4C676.8 78.1 675.7 77.8 674.5 78 673.6 78 672.9 79.2 672.9 80.1L676.1 94.6 669.9 104.4 664.7 94.1 669.3 80.1C669.7 79 669.1 78 668 77.6 667.3 77.1 665.9 77.8 665.5 78.9L662.2 89.1 657 78.7 667.3 48.5C667.6 47.4 667.1 46.3 666 46 664.9 45.6 663.8 46.1 663.5 47.2L654.4 73.7 648.3 61.6 652.2 49.8C652.6 48.7 652 47.6 651 47.3 649.9 46.9 648.8 47.4 648.5 48.5L645.6 56.2 641.1 47.3C640.6 46.2 639.5 45.9 638.4 46.4 637.4 46.9 637 48 637.6 49.1L642.1 58 634.5 55.5C633.5 55.2 632.4 55.7 632 56.8S632.2 58.9 633.3 59.3L644.6 63 650.9 75.5 624.5 66.8C623.5 66.5 622.4 67 622 68.1 621.7 69.2 622.2 70.2 623.3 70.6L653.4 80.5 658.6 90.9 648.4 87.5C647.3 87.2 646.2 87.7 645.9 88.8 645.5 89.8 646.1 90.9 647.2 91.3L661.1 95.9 666.2 105.9 655.1 105.2 645 94.1C644.3 93.6 642.9 93.4 642.3 94.1 641.4 95 641.4 95.9 642 97L649.2 105 638.1 104.4 616.7 80.6C615.8 79.7 614.9 79.7 613.8 80.3 613 81.2 613.1 82.4 613.5 83.1L632.2 104.2 618.2 103.2 610.1 94.2C609.6 93.2 608.3 93.3 607.3 93.9 606.7 94.6 606.6 96 607.5 96.9L612.7 102.8 602.6 102.5C601.6 102.1 600.7 103 600.5 104.5 600.5 105.4 601.4 106.2 602.3 106.2L612.5 106.9 606.2 112.3C605.4 113.2 605.5 114.5 606.3 115 606.8 116.1 607.7 116.1 608.4 115.7 608.8 115.5 608.8 115.5 609.1 115.3L618 107.3 632 108.3 611.3 126.8C610.2 127.3 610.4 128.6 610.9 129.7 611.7 130.2 612.6 130.2 613.3 129.8 613.6 129.6 613.6 129.6 613.6 129.6L637.9 108.5 649 109.2 641 116.3C640.1 117.2 640.1 118.1 640.6 119.2 641.3 119.7 642.4 120.1 643.1 119.7 643.5 119.5 643.5 119.5 643.8 119.4L654.9 109.3 666 110 659.9 119.3 645.4 122.6C644.2 122.8 643.5 124 643.5 124.9 644 126 644.9 126.9 646 126.3L656.5 124.2 650.7 133.8 619 140.4C618.1 140.4 617.4 141.6 617.4 142.5 618 143.6 618.9 144.5 620.1 144.3L647.3 138.7 639.6 150.1 627.8 152.5C626.6 152.7 625.9 153.9 626.4 155 626.4 155.9 627.3 156.8 628.5 156.6L636.6 154.8 631.1 163.4C630.5 164.1 630.7 165.4 631.6 166.3 632.2 166.4 633 166.4 633.8 166.1 633.8 166.1 634.1 165.9 634.5 165.7L640 157.1 641.8 165.2C641.8 166.1 643.1 166.8 644 166.8 644.3 166.6 644.3 166.6 644.3 166.6 645.4 166.1 645.7 165 645.4 164.3L643 152.5 650.5 140.6 656.3 168.2C656.8 169.2 657.6 169.8 658.8 169.6 658.8 169.6 659.2 169.4 659.2 169.4 659.9 169.1 660.4 168.3 660.2 167.1L653.9 135.8 659.9 126.5 662.1 137C662.7 138.1 663.6 139 664.6 138.5 664.8 138.8 665.2 138.6 665.2 138.6 665.9 138.3 666.2 137.2 666.2 136.3L663 121.8 669.4 112.3 674.4 122.3 669.8 136.3C669.5 137.4 670.2 138.8 671.3 139.1 672.1 139.1 673.2 138.6 673.8 137.9L676.9 127.3 682.2 137.7 672.2 167.8C671.9 168.8 672.4 169.9 673.5 170.3 674.6 170.6 675.6 170.1 676 169L684.7 142.7 691 155.2 687.2 166.5C686.9 167.6 687.4 168.6 688.5 169S690.7 168.8 691 167.7L693.5 160.2 698 169.1C698.5 170.2 699.6 170.6 700.7 170 701.7 169.5 702.1 168.4 701.6 167.3L697.1 158.4 704.9 160.7C705.5 160.9 706 161.1 706.4 160.9 706.7 160.7 707.3 160 707.4 159.4 707.8 158.4 707.3 157.3 706.2 156.9L694.5 153.4 688.3 140.9 714.9 149.4C715.5 149.6 716 149.8 716.4 149.6 716.7 149.4 717.3 148.7 717.4 148.1 717.8 147.1 717.2 146 716.2 145.6L685.7 135.9 680.5 125.5 690.9 129.3C691.4 129.4 692.2 129.1 692.5 128.9 692.9 128.7 693.2 128.5 693.4 128 693.8 126.9 693 125.5 692.1 125.5L678 120.5 673 110.5 684.4 111 694.1 122.3C694.8 122.8 695.9 123.2 696.6 122.8 697 122.6 697 122.6 696.8 122.3 697.9 121.7 698 120.3 697.1 119.4L690 111.4 701.4 111.9 722.6 136.1C723.3 136.7 724.2 136.7 724.9 136.3 725.3 136.1 725.3 136.1 725.3 136.1 726.2 135.2 726.5 134.2 725.6 133.3L707 112.2 720.9 113.3 729 122.2C729.9 123.1 730.8 123.1 731.5 122.7 731.5 122.7 731.8 122.5 731.8 122.5 732.7 121.6 732.6 120.4 732.2 119.7L726.5 113.6 736.7 114.3C737 114.1 737.4 113.9 737.7 113.7 738.1 113.6 738.6 112.9 738.8 112.3 738.6 111.1 738.1 110 736.8 110.2L726.6 109.5 732.9 104.1C733.8 103.2 733.6 102 733.2 101.2 732.3 100.3 731.1 100.5 730 101.1L721.1 109.1 707.3 108.5 728 90C728.9 89.1 729.1 87.7 728.4 87.1 727.5 86.2 726.4 85.9 725.5 86.8Z" fill="rgba(195, 235, 234, 0.95)"></path><path d="M129.3 104.5L103.2 100 98.8 94.1 105.6 79.3 113.1 78.5 133.4 95.5C133.7 95.7 133.7 95.7 134 95.8 134.6 96.1 135.3 96 136 95.3 136.4 94.4 136.3 93.7 135.6 93L117.8 78.2 129.2 77.1 137.1 83.5C137.1 83.5 137.4 83.6 137.4 83.6 138 83.9 138.7 83.9 139.4 83.2 140 82.7 139.8 81.6 139.1 80.9L134 76.5 142.5 75.7C143.2 75.7 143.9 75 144 74S142.9 72.4 141.9 72.3L133.8 73.2 137.9 68C138.6 67.3 138.4 66.1 137.7 65.5 137.1 65.2 136.1 65.1 135.4 65.8L128.9 73.8 117.2 74.7 132.1 56.9C132.8 56.2 132.6 55 132.1 54.5 131.3 54.1 130.3 54 129.6 54.7L112.8 75.2 105.1 75.9 95.9 62.9 99.1 55.9 123.8 46.5C124.7 46.1 125.1 45.3 124.8 44.4S123.6 43.2 122.7 43.5L101 51.8 105.9 41.1 115.2 37.6C116.1 37.3 116.5 36.4 116.3 35.3S115.1 34 114.3 34.3L107.8 37 111.4 29.1C111.8 28.3 111.2 27.3 110.3 26.9 109.4 26.5 108.6 26.8 108.2 27.7L104.6 35.5 102.2 29.2C102 28 101.2 27.6 100.2 28.2 99.3 28.5 98.9 29.4 99.2 30.3L102.7 39.6 97.8 50.4 89.9 28.4C89.6 27.6 88.4 27 87.5 27.4S86.3 28.5 86.6 29.4L95.9 54.4 92.7 61.4 76.6 62.8 72.4 56.7 76.9 30.6C77 29.6 76.3 28.9 75.4 28.5 74.4 28.4 73.7 29.1 73.3 30L69.5 52.9 62.9 43.5 64.7 33.4C64.8 32.4 64.1 31.7 63.2 31.3 62.5 31.4 61.5 32 61.4 33L60.2 39.5 55.2 32.6C54.8 32.1 53.8 31.9 52.9 32.3 52.2 33 52.1 34 52.6 34.6L57.5 41.4 50.6 40.4C49.9 40.4 48.9 41 48.9 41.7 48.5 42.6 49 43.1 49.9 43.5 49.9 43.5 50.2 43.7 50.2 43.7L60.2 45.5 66.9 54.8 44 51C43 50.9 42.1 51.2 42 52.3 41.9 53.3 42.3 53.8 42.9 54.1 43.2 54.2 43.2 54.2 43.2 54.2L69.7 58.6 73.9 64.8 67.1 79.6 59.8 80.1 39.1 63.2C38.6 62.7 37.5 62.9 36.9 63.3 36.2 64 36.4 65.2 37.2 65.9L55 80.7 43.6 81.8 35.6 75.4C34.9 74.7 33.9 74.6 33.5 75.5 32.8 76.2 33 77.3 33.4 77.9L38.9 82.1 30.4 82.9C29.6 83.2 28.9 83.9 28.8 84.9 28.9 85.3 29.4 85.9 30 86.2 30.3 86.3 30.3 86.3 30.7 86.1L39.1 85.4 34.9 90.9C34.2 91.6 34.5 92.5 34.9 93 35.2 93.2 35.2 93.2 35.5 93.3 36.1 93.6 36.8 93.5 37.4 93.1L43.8 85.1 55.3 84 40.4 101.9C40 102.7 39.9 103.7 40.8 104.1 40.9 104.6 40.9 104.6 41.2 104.7 41.8 105 42.6 104.6 43.2 104.2L60.1 83.4 67.4 82.9 76.9 96 73.8 102.7 48.8 112C47.9 112.3 47.4 113.5 47.7 114.3S49.2 115.7 50 115.4L71.8 107.1 67 117.6 57.5 121.3C56.7 121.6 56.3 122.5 56.6 123.4 56.9 124.2 57.8 124.6 58.6 124.3L65 121.9 61.4 129.8C61.1 130.4 61.3 131.5 62.2 131.9 63.1 132.3 64.3 131.8 64.6 131.2L68.2 123.4 70.6 129.7C70.7 130.2 70.9 130.6 71.2 130.7 71.7 131 72.2 130.8 72.6 130.7 73.4 130.4 73.8 129.5 73.5 128.6L70.2 119 75 108.5 82.9 130.5C83.1 130.9 83.3 131 83.9 131.3 84.2 131.4 84.5 131.6 84.9 131.4 85.8 131.1 86.3 129.9 86 129.1L77 104.2 80.1 97.5 95.9 96 100.5 101.9 95.9 128.3C95.9 129 96.2 129.9 96.8 130.1 97.1 130.3 97.1 130.3 97.2 130 98.1 130.4 99.1 129.8 99.2 128.8L103 105.9 109.9 115.4 108.1 125.5C108.1 126.2 108.5 126.7 109.1 127 109.1 127 109.4 127.1 109.4 127.1 110.3 127.5 111.3 126.9 111.4 125.9L112.4 119 117.4 125.9C117.5 126.3 117.8 126.4 118.1 126.6 118.7 126.8 119.4 126.8 119.6 126.5 120.5 125.9 120.7 124.9 120.3 124L115.4 117.2 121.9 118.4C122.9 118.5 123.9 117.9 124 116.9 123.9 116.2 123.3 115.2 122.6 115.2L112.5 113.4 105.9 104.1 128.8 107.9C129.8 108 130.5 107.2 130.9 106.4 130.9 105.6 130.3 104.7 129.3 104.5ZM101.6 79.6L96.4 90.9 95.6 92.7 93.8 92.9 81.7 94 79.5 94.1 78.5 92.5 71.4 82.6 70.3 81.1 71.1 79.3 76.3 68 77.1 66.2 79 66 91.1 64.9 93 64.7 94.3 66.4 101.4 76.3 102.4 77.8 101.6 79.6Z" fill="rgba(195, 235, 234, 0.95)"></path><path d="M1066.6 335.2L1075 314.5 1083.7 324.8C1084.6 326 1086.6 326.3 1088.4 325.4 1089.4 323.9 1089.8 321.9 1088.3 320.9L1077.8 307.6 1083.7 291.1 1105.5 318.8C1107 319.9 1108.9 320.2 1110.1 319.4 1111.8 317.8 1112.2 315.8 1110.7 314.8L1086.5 284.2 1096.2 259.4 1112.6 285.3 1120.3 255.6 1137.1 276.3 1123.3 312.8C1122.7 312.9 1122.8 313.5 1122.9 314.2 1123.1 315.4 1123.9 316.6 1125.3 317 1126.7 317.5 1128.5 316.6 1129.5 315.1L1141.9 282.1 1152.5 296 1146.5 311.8C1146 312.5 1146.1 313.2 1146.2 313.8 1146.3 314.4 1147.1 315.6 1148.4 316 1149.8 316.5 1151.6 315.5 1152 314.2L1157.2 301.7 1171.6 318.9C1172.5 320.7 1174.4 320.4 1176.2 319.5 1177.4 318.7 1177.7 316.7 1176.1 315L1162.4 297.7 1175.7 295.6C1177.6 295.3 1178.6 293.2 1178.4 291.9 1178.1 290 1176.6 289 1174.7 289.3L1157.7 291.9 1147.1 278 1181.2 272.7C1183.1 272.4 1184.2 271 1183.9 269.1 1183.7 267.8 1182.1 266.1 1180.2 266.4L1142.3 272.3 1125.5 251.6 1155.7 250.1 1134.2 228.9 1160.8 224.7 1184.9 254.7C1186.5 256.4 1188.3 256.1 1189.5 255.2 1190.7 254.4 1191 252.4 1190.1 250.6L1167.8 223.6 1184.8 221 1196 234.2C1196.9 236 1198.9 236.3 1200.6 234.7 1201.7 233.9 1202.1 231.9 1200.5 230.2L1192.4 219.8 1214.6 216.4C1216.5 216.1 1217.5 214.6 1217.2 212.7S1215.5 209.8 1213.6 210L1191.4 213.5 1196 201.1C1197 199 1196 197.2 1194.7 196.8 1192.6 195.8 1190.8 196.8 1190.4 198.7L1183.9 214.7 1166.8 217.3 1179.9 184.8C1180.2 182.9 1179.3 181.1 1177.9 180.6 1175.8 179.6 1174 180.6 1173.7 182.6L1159.8 218.4 1133.3 222.5 1147.2 195.8 1118 203.5 1127.7 178.7 1165.7 172.8C1167.6 172.5 1168.6 170.4 1168.4 169.1 1168.1 167.3 1166.6 166.2 1164.7 166.5L1129.9 171.9 1136.4 155.3 1153.5 152.7C1155.4 152.4 1156.5 150.9 1156.2 149 1156 147.8 1154.4 146.1 1152.5 146.4L1139.2 148.4 1147 127.8C1148 125.7 1147.1 123.9 1145.1 123.5 1143.7 123.1 1141.8 123.4 1141.5 125.4L1133 146.1 1124.3 135.8C1123.5 134.7 1121.5 134.3 1120.3 135.2 1119.2 136 1118.7 137.4 1118.8 138 1118.9 138.6 1119 139.3 1119.7 139.8L1130.2 153.1 1124.4 169.5 1102.6 141.8C1101.1 140.7 1099.1 140.4 1097.9 141.2 1096.8 142.1 1096.3 143.4 1096.5 144.7 1096.6 145.3 1096.6 145.3 1097.4 145.9L1121.6 176.4 1111.8 201.3 1095.5 175.3 1087.8 205 1071 184.3 1084.7 147.8C1085.2 146.5 1084.9 144.6 1082.8 143.6 1081.4 143.2 1079.6 144.1 1078.5 145.6L1066.2 178.6 1055.6 164.7 1061.6 148.8C1062.6 147.4 1061.7 145.6 1059.6 144.6 1058.2 144.2 1056.4 145.1 1055.4 146.6L1050.8 158.9 1036.5 141.7C1035.6 139.9 1033.7 140.2 1031.9 141.2 1031.3 141.9 1030.9 143.2 1031 143.9 1031.1 144.5 1031.2 145.1 1031.9 145.7L1045.6 163 1032.3 165C1030.4 165.3 1029.5 167.4 1029.7 168.7L1029.7 168.7C1030 170.6 1031.4 171.7 1033.3 171.4L1050.4 168.7 1061 182.6 1026.8 187.9C1024.9 188.2 1023.9 189.7 1024.2 191.6S1025.9 194.5 1027.8 194.2L1065.8 188.3 1082.6 209 1052.4 210.5 1073.8 231.8 1047.3 235.9 1023.2 206C1021.6 204.3 1019.7 204.6 1018.5 205.4 1017.4 206.2 1017 208.2 1018 210L1039.7 237.1 1023.2 239.7 1012.1 226.5C1011.2 224.7 1009.2 224.3 1007.5 225.9 1006.3 226.7 1006 228.7 1006.9 230.5L1015.6 240.8 993.5 244.3C991.6 244.6 990.5 246 990.8 247.9S992.6 250.9 994.5 250.6L1016.6 247.2 1012.1 259.5C1011.5 260.3 1011.6 260.9 1011.7 261.5 1011.9 262.8 1012.7 263.3 1013.4 263.8 1015.5 264.8 1017.3 263.9 1017.6 261.9L1024.2 246 1041.3 243.3 1028.2 275.8C1028.3 276.4 1028.4 277.1 1028.5 277.7 1028.7 279 1029.4 279.5 1030.2 280 1032.2 281 1034 280.1 1034.4 278.1L1048.2 242.2 1074.8 238.1 1060.8 264.9 1090.1 257.1 1080.3 281.9 1042.4 287.8C1040.5 288.1 1039.5 290.2 1039.7 291.5 1040 293.4 1041.5 294.5 1043.4 294.2L1077.5 288.9 1071.6 305.3 1054.6 308C1052.7 308.3 1051.6 309.7 1051.9 311.6S1053.7 314.6 1055.6 314.3L1068.8 312.2 1061 332.9C1060.5 333.6 1060.6 334.2 1060.7 334.9 1060.8 335.5 1061.6 336.7 1063 337.1 1064.4 337.5 1066.3 337.2 1066.6 335.2ZM1072.9 255.2L1084.4 233.4 1066.8 216 1091.9 214.7 1097.9 191.1 1111.5 211.7 1135.1 205.4 1123.6 227.3 1141.2 244.6 1116.8 245.8 1110.1 269.5 1097.2 248.9 1072.9 255.2Z" fill="rgba(195, 235, 234, 0.95)"></path><path d="M711.6 518.5L687.9 530.5 665.5 523.1 683.1 507.3 709.6 509.1C709.6 509.1 709.9 509 709.9 509 710.6 508.9 711.1 508.1 711.2 507.4 711.4 506.4 710.5 505.6 709.6 505.8L686.4 504.4 695 496.7 705.2 497.2C705.2 497.2 705.5 497.2 705.5 497.2 706.2 497 706.7 496.3 706.8 495.6 707 494.6 706.1 493.8 705.2 494L698.2 493.4 704.6 487.9C705.2 487.4 705.2 486.1 704.8 485.6 704.3 484.7 703 484.9 702.5 485.4L696.1 490.9 696.6 484C696.7 483 695.9 482.2 695 482.3 694 482.2 693.2 483 693.4 484L692.8 494.2 684.2 501.6 685.7 478.4C685.8 477.4 685 476.6 684 476.8 683 476.6 682.2 477.5 682.4 478.4L680.7 504.9 663 520.6 658.2 497.1 672.8 474.8C673.3 474.1 673.1 473.1 672.4 472.6 671.6 472.1 670.7 472.3 670.2 473.1L657.3 492.7 654.9 481.4 660.4 473.1C660.9 472.4 660.7 471.4 660 470.9 659.2 470.4 658.3 470.6 657.8 471.4L654 477.1 652.2 468.3C652.3 467.3 651.3 466.8 650.3 467 649.4 467.2 648.9 468 649.1 468.9L650.8 477.1 645.1 473.3C644.3 472.8 643.4 473 642.9 473.8S642.6 475.5 643.4 476L651.7 481.5 654 492.7 634.3 479.8C633.6 479.3 632.6 479.5 632.1 480.3 631.6 481 631.8 481.9 632.6 482.4L654.9 497.1 659.7 520.3 637.2 512.9 625.6 489.8C625.1 488.9 624.1 488.8 623.2 489 622.3 489.5 622.2 490.5 622.4 491.4L632.8 512.1 621.9 508.5 617.4 499.3C616.9 498.4 615.9 498.3 615 498.5 614.1 499 614 500 614.1 500.6L617.4 506.8 609.3 504.2C608.6 504 607.4 504.3 607.2 505.3 607.1 506.3 607.3 507.3 608.3 507.4L616.4 510 610.2 513.2C609.3 513.7 609.2 514.7 609.3 515.3 609.7 515.9 610.5 516.4 611.1 516.3 611.1 516.3 611.4 516.2 611.4 516.2L620.6 511.7 631.5 515.3 610.8 525.8C609.9 526.3 609.8 527.3 609.9 527.9 610.4 528.5 611.1 529 611.8 528.9 611.8 528.9 612.1 528.8 612.1 528.8L635.7 516.8 658.2 524.2 640.5 540 614 538.2C613 538.1 612.2 538.9 612.4 539.9 612.3 540.9 613.1 541.7 614 541.5L637.2 542.9 628.6 550.6 618.4 550.1C617.4 549.9 616.6 550.8 616.8 551.7 616.7 552.7 617.5 553.5 618.4 553.3L625.4 553.8 619 559.4C618.5 559.8 618.4 561.2 618.9 561.7 619.3 562.3 620 562.5 620.6 562.3 620.9 562.3 621.2 562.2 621.5 561.8L627.9 556.3 627.3 563.2C627.2 564.3 628 565.1 629 564.9 629 564.9 629.3 564.8 629.3 564.8 629.9 564.7 630.4 563.9 630.6 563.2L631.1 553 639.7 545.4 638.2 568.5C638.1 569.5 638.9 570.3 639.9 570.1 639.9 570.1 640.2 570.1 640.2 570.1 640.8 569.9 641.3 569.2 641.5 568.5L643.2 542 660.9 526.3 665.7 549.5 651 571.8C650.5 572.5 650.7 573.5 651.4 574 652.2 574.5 653.1 574.3 653.6 573.5L666.6 554.2 669 565.5 663.5 573.8C663 574.5 663.2 575.5 663.9 576S665.6 576.3 666.1 575.5L669.9 569.8 671.5 578C671.7 578.9 672.5 579.4 673.4 579.2 674.4 579 674.9 578.3 674.7 577.4L673 569.2 678.7 572.9C679 573.2 679.4 573.4 680 573.3S680.9 572.8 681.2 572.4C681.7 571.7 681.5 570.7 680.7 570.2L672.4 564.8 670.1 553.5 689.7 566.4C690.1 566.7 690.5 566.9 691.1 566.8 691.4 566.7 692 566.3 692.2 565.9 692.7 565.1 692.5 564.2 691.8 563.7L669.5 549 664.7 525.8 687.2 533.3 699.2 556.9C699.7 557.5 700.4 558 701 557.9 701 557.9 701.4 557.8 701.4 557.8 702.2 557.3 702.4 556.3 702.2 555.7L691.8 535 702.6 538.6 707.1 547.8C707.6 548.4 708.3 548.9 709 548.7 709 548.7 709.3 548.7 709.3 548.7 710.2 548.2 710.3 547.2 710.1 546.5L706.9 540.3 715 542.9C715.3 542.9 715.6 543.1 716 543 716.6 542.9 717.1 542.5 717.3 541.8 717.5 540.8 717.3 539.8 716.3 539.7L708.2 537.1 714.4 533.9C715.3 533.4 715.4 532.4 715.3 531.8 714.8 530.9 713.8 530.8 713.1 530.9L703.9 535.4 693.1 531.8 713.8 521.3C714.6 520.8 714.8 519.8 714.6 519.1 713.5 518.4 712.4 518 711.6 518.5Z" fill="rgba(195, 235, 234, 0.95)"></path><path d="M497.7 579L500.1 559 511.2 566.8C512.3 567.7 514.3 567.5 515.8 566.1 516.5 564.4 516.3 562.4 515.2 561.5L500.8 551 503.2 532.5 532.2 554.1C534.1 555.3 536.2 555.1 536.8 553.4 538.3 552.1 538.1 550.1 536.2 548.8L504.1 525.1 505.9 508.3 541.6 492.6 553.8 501.3 548.5 543.4C548.8 544 549 544.6 549.3 545.2 549.5 545.8 550.6 546.7 551.5 547 553.7 547.4 555.2 546.1 555.1 544L559.9 505.6 574.5 516.7 572.6 536.3C572.1 536.6 572.3 537.2 572.6 537.8 573.1 538.9 574.2 539.8 575.6 539.9 577 540 578.5 538.6 579.2 537L580.6 521 599.1 534.5C600.2 535.4 602.2 535.2 603.7 533.9 604.4 532.2 604.2 530.2 603.1 529.3L585.7 516.6 598 511.2C599.7 510.5 600.1 508.2 599.6 507 598.9 505.3 596.9 504 595.2 504.8L579.3 511.7 564.7 500.7 597.5 486.3C599.3 485.5 599.9 483.8 599.2 482.1 598.4 480.3 596.7 479.7 595 480.4L558.6 496.4 545.6 487.4 550.1 448.4 563.6 442.5 596.5 466.5C597.9 468 600.5 467.5 601.1 465.8 602.6 464.5 601.9 462.7 600.5 461.2L570.7 439.4 587.7 431.9 602.3 443C603.4 443.9 606 443.4 606.9 442.3S607.4 438.6 606 437.1L594.7 428.8 615.2 419.8C617 419.1 617.4 416.8 616.6 415 616.1 413.9 614.1 412.6 612.4 413.4L591.9 422.4 593.2 407.8C593.3 406.4 592.5 404.6 590.2 404.2 588.8 404.2 586.7 405.8 586.6 407.2L584.8 425.5 567.8 432.9 572 396.2C571.8 394.1 571 392.4 568.8 392 567.3 391.9 565.2 393.5 565.2 395L560.8 436 547.3 441.9 515.5 418.8 517.8 403.2 554.1 387.2C555.9 386.5 556.5 384.8 555.7 383 555 381.3 553 380 551.3 380.8L518.4 395.2 520.2 376.9 536.1 370C537.8 369.2 538.5 367.5 537.7 365.8 536.9 364 535.2 363.4 533.5 364.1L521.2 369.5 523.7 348.2C523.8 346.7 522.2 344.6 520.7 344.6 518.7 344.7 516.9 345.5 517.1 347.5L514.3 369.7 501.9 360.5C500.2 359.9 498.2 360 497.2 361.1 496.3 362.2 496.3 363.7 496.8 364.8 496.8 364.8 497 365.4 497.9 365.8L513.6 377.7 511.8 396 480.3 373.5C478.9 372 476.9 372.2 475.7 374.1 475.3 374.9 475 375.8 475.5 377 475.8 377.5 476 378.1 476.3 378.7L510.9 403.4 509 418.2 473.2 433.9 459.7 423.7 464 384.1C464.4 381.8 463 380.3 461 380.5 459.3 379.9 457.8 381.2 457.4 383.5L453.6 419.4 438.4 408.6 440.4 390.9C440.5 389.5 439.1 388 437.5 387.4 435.4 387.5 433.7 388.3 433.9 390.3L432 403.7 415.7 392C414.4 390.5 412.6 391.3 411.1 392.6 410.8 393.5 410.7 394.9 411.2 396.1 411.2 396.1 411.5 396.6 411.7 397.2L429.2 409.9 414.5 416.3C413.3 416.8 412.1 418.7 412.9 420.5 413.6 422.3 415.9 422.7 417.1 422.1L435.2 414.2 450.5 425 414.7 440.7C412.9 441.4 412.5 443.7 413.3 445.5S415.8 447.9 417.5 447.1L456.8 429.9 469.2 439.1 464.7 478.1 449.4 484.8 416.3 460.2C414.6 459.6 412.6 459.7 411.1 461.1 410.8 461.9 410.7 463.4 411.2 464.5 411.5 465.1 411.7 465.7 412.6 466L442.4 487.9 425.4 495.4 410.2 484.6C409.1 483.6 407.1 483.8 405.6 485.2 404.9 486.9 405.1 488.9 406.2 489.8L418.4 498.4 399.6 506.7C398.4 507.2 397.5 509.7 398 510.9 398.7 512.6 401.3 513.6 402.4 513.1L421.2 504.9 419 519.1C419.3 519.7 419.6 520.3 419.8 520.9 420.3 522 421.4 523 422.3 523.3 424.3 523.1 425.8 521.7 426.4 520.1L428.2 501.8 445.2 494.4 441.1 531.1C440.7 533.4 442 534.9 443.5 535 445.7 535.4 447.2 534 447.9 532.3L452.3 491.3 467.5 484.6 499.3 507.7 497.7 523.1 458.4 540.3C456.6 541.1 456 542.8 456.7 544.5 457.5 546.3 459.2 546.9 460.9 546.2L496.7 530.5 494.3 549 476.2 557C475 557.5 474 560 474.8 561.8 475.5 563.5 477.8 563.9 479 563.4L493.6 557 491.1 578.3C491.4 578.9 491.4 578.9 491.6 579.5 492.2 580.7 493.3 581.6 494.1 581.9 496.1 581.8 497.6 580.4 497.7 579ZM474.5 481.5L471.2 478.8 471.7 475.1 475.3 443.4 475.8 439.7 479.3 438.2 508 425.6 511.5 424.1 514.6 426.2 540.3 445 543.3 447.2 543.1 451.4 539.3 482.5 539 486.8 535.5 488.3 506.8 500.9 503.3 502.4 500 499.7 474.5 481.5Z" fill="rgba(195, 235, 234, 0.95)"></path><path d="M918.3 440.8L944.1 471 943.5 481.9 921.5 492.6 912.1 486.4 904.9 447.3C904.7 446.8 904.7 446.8 904.5 446.4 904.1 445.5 903.3 444.9 901.8 445.1 900.5 445.7 899.8 446.5 900 448L906.4 482.3 892.1 472.6 889.1 457.6C889.1 457.6 888.9 457.1 888.9 457.1 888.5 456.3 887.7 455.6 886.1 455.8 885.1 455.8 884.2 457.3 884.4 458.8L886 468.7 875.6 461.4C874.7 460.8 873.2 461 872.1 462S871.9 464.8 872.9 465.9L883.1 472.7 873.4 474.7C871.9 474.9 871.1 476.4 871.2 477.9 871.7 478.8 872.7 479.9 874.2 479.7L889.3 476.7 903.8 486.7 869.5 493.1C868 493.3 867.1 494.8 867.1 495.9 867.8 497.2 868.8 498.3 870.3 498.1L909.3 490.5 918.9 497 917 520.8 906.6 525.9 869 513.1C867.8 512.6 866.5 513.3 866 514.6S866.2 517.1 867.5 517.6L900.6 528.8 884.6 536.5 870.5 531.6C869.2 531.1 867.9 531.8 867 533.2S867.2 535.8 868.5 536.3L878.5 539.4 866.9 545.1C865.6 545.7 865.3 547.4 866 548.7 866.6 550 867.9 550.4 869.2 549.8L880.8 544.2 877.5 553.8C876.6 555.3 877.2 556.6 879 556.8 880.2 557.3 881.5 556.6 882 555.4L886.9 541.3 902.9 533.5 891.1 566.4C890.6 567.7 891.4 569.4 892.7 569.9S895.3 569.7 895.7 568.4L908.9 530.6 919.3 525.6 939.3 539.4 938.3 550.6 908.1 576.3C907 577.4 907.2 578.9 907.8 580.2 908.9 581.3 910.4 581.1 911.7 580.5L938 557.6 936.7 574.8 924.9 584.7C923.8 585.8 924 587.3 924.7 588.6 925.5 589.2 927.2 589.5 928.3 588.4L935.9 582.1 935.1 594.7C935.1 595.8 936.1 596.9 937.4 597.3 938.9 597.1 940 596.1 940 595L940.9 582.4 947.8 590.2C948.7 590.8 950.4 591.1 951.1 590.2 952.3 589.6 952.4 588.5 951.7 587.2 951.7 587.2 951.5 586.8 951.5 586.8L941.6 575.1 942.9 557.9 965.7 584.2C966.8 585.3 968.1 585.7 969.2 584.7 970.2 583.6 970.3 582.6 969.8 581.7 969.6 581.3 969.6 581.3 969.6 581.3L943.2 550.8 944.2 539.7 966.3 529 975.2 535.4 983 574.8C983 575.9 984.5 576.7 985.6 576.8 987.1 576.6 988 575.1 987.8 573.6L981.4 539.3 995.6 549 998.6 564.1C998.8 565.6 999.9 566.7 1001.2 566 1002.7 565.8 1003.6 564.3 1003.6 563.3L1001.4 553.1 1011.8 560.4C1013.1 560.8 1014.6 560.6 1015.7 559.6 1015.9 558.9 1015.9 557.9 1015.5 557 1015.3 556.6 1015.3 556.6 1014.6 556.3L1004.2 549.1 1014.3 546.9C1015.8 546.7 1016.3 545.4 1016.3 544.3 1016.1 543.9 1016.1 543.9 1015.9 543.5 1015.5 542.6 1014.6 542 1013.5 541.9L998.5 544.9 984.2 535.3 1018.5 528.9C1019.7 528.3 1020.8 527.2 1020.2 525.9 1020.4 525.3 1020.4 525.3 1020.2 524.9 1019.8 524 1018.5 523.5 1017.5 523.5L978.1 531.4 969.1 525 970.8 500.8 980.7 496 1018.5 509.2C1019.8 509.6 1021.5 508.8 1022 507.5S1021.6 504.5 1020.3 504L987.2 492.8 1002.7 485.3 1017.3 490C1018.6 490.5 1019.9 489.9 1020.3 488.6 1020.7 487.3 1020.1 486 1018.8 485.5L1009.2 482.2 1020.9 476.6C1021.8 476.1 1022.6 474.7 1022 473.4 1021.4 472.1 1019.5 471.4 1018.6 471.8L1006.9 477.4 1010.3 467.8C1010.5 467.2 1010.7 466.5 1010.5 466.1 1010.1 465.2 1009.5 465 1008.8 464.8 1007.5 464.4 1006.2 465 1005.8 466.3L1000.4 480.6 984.9 488.1 996.7 455.2C996.9 454.5 996.7 454.1 996.3 453.2 996.1 452.8 995.9 452.4 995.3 452.2 994 451.7 992.2 452.5 991.8 453.8L978.4 491.2 968.5 496 948.7 482.6 949.1 471.3 979.7 445.3C980.3 444.4 980.8 443.2 980.4 442.3 980.2 441.9 980.2 441.9 979.7 442.1 979.1 440.8 977.4 440.5 976.3 441.6L950 464.4 951.1 446.8 962.8 436.9C963.5 436 963.5 435 963.1 434.1 963.1 434.1 962.9 433.7 962.9 433.7 962.3 432.4 960.5 432.1 959.5 433.2L951.6 440.2 952.4 427.5C952.7 426.9 952.5 426.4 952.3 426 951.8 425.2 951 424.5 950.6 424.7 948.8 424.5 947.8 425.5 947.3 426.8L946.5 439.5 940.2 431.9C939.1 430.8 937.4 430.5 936.3 431.6 935.6 432.4 935.4 434.2 936.2 434.8L946.2 446.5 944.9 463.7 922 437.4C921 436.3 919.5 436.5 918.2 437.1 917.5 438 917.3 439.7 918.3 440.8ZM926.4 496.1L943.2 487.9 945.8 486.7 948.2 488.2 963.3 498.5 965.8 500.5 965.6 503.3 964.2 521.5 964 524.3 961.4 525.5 944.5 533.7 941.9 534.9 939.6 533.4 924.5 523.1 922.2 521.6 922.2 518.3 923.5 500.1 923.8 497.3 926.4 496.1Z" fill="rgba(195, 235, 234, 0.95)"></path><path d="M1377 598.1L1367.5 552.7 1374.3 541.8 1402.8 543.3 1408.9 554.8 1394.3 599C1394.3 599.5 1394.3 599.5 1394.3 600.1 1394.2 601.2 1394.7 602.3 1396.4 603 1398 603.1 1399.2 602.6 1399.8 600.9L1412.5 562.3 1421.6 580.2 1416.3 597.3C1416.3 597.3 1416.2 597.8 1416.2 597.8 1416.2 599 1416.7 600.1 1418.3 600.7 1419.4 601.4 1421.2 600.3 1421.8 598.7L1425.7 587.7 1432.4 600.9C1432.9 602.1 1434.5 602.7 1436.2 602.2S1438 599.5 1437.6 597.8L1430.9 585.1 1442 588.5C1443.6 589.1 1445.3 588.1 1446 586.5 1446 585.3 1445.6 583.6 1443.9 583L1426.8 577.6 1417.7 559.2 1456.3 571.9C1457.9 572.5 1459.7 571.5 1460.3 570.4 1460.4 568.7 1459.9 567 1458.2 566.3L1414.1 552.3 1408 540.2 1423.2 516.9 1436.6 517.6 1468 551.7C1469 552.9 1470.7 553 1471.9 551.9S1473.1 549.2 1472.1 548L1444.5 518 1465.2 519 1476.8 532C1477.9 533.2 1479.6 533.2 1481.3 532.2S1482.6 529.5 1481.5 528.3L1473 519.4 1488.1 520.2C1489.8 520.3 1491 518.7 1491.1 517 1491.1 515.3 1490.1 514.2 1488.4 514.1L1473.3 513.3 1482.1 505.3C1483.9 504.3 1483.9 502.6 1482.3 501.4 1481.3 500.2 1479.6 500.2 1478.4 501.2L1465.5 512.9 1444.8 511.8 1475.3 484.8C1476.5 483.7 1476.6 481.5 1475.6 480.3S1472.8 479.1 1471.6 480.1L1436.9 511.4 1423.5 510.7 1410.8 485.4 1418.1 474.6 1463.4 465.1C1465.1 464.6 1465.8 463 1465.9 461.3 1465.4 459.6 1463.8 459 1462.1 458.9L1422.4 467.5 1433.3 450.7 1450.9 447.1C1452.6 446.6 1453.3 445 1453.3 443.3 1452.8 442.1 1451.2 440.9 1449.5 441.4L1438.2 443.6 1446.1 431.1C1446.7 430.1 1446.3 428.4 1445.2 427.2 1443.6 426.5 1441.8 427 1441.2 428.1L1433.3 440.6 1430.5 428.7C1430 427.5 1428.4 426.3 1427.3 426.8 1425.6 426.7 1425 427.8 1424.9 429.5 1424.9 429.5 1424.9 430.1 1424.9 430.1L1428.4 447.6 1417.5 464.4 1408.9 424.8C1408.4 423 1407.3 421.9 1405.6 422.3 1403.9 422.8 1403.3 423.9 1403.3 425 1403.2 425.6 1403.2 425.6 1403.2 425.6L1413.2 471.5 1405.9 482.4 1377.4 480.9 1371.8 469.4 1385.9 424.7C1386.5 423.6 1385.5 421.9 1384.4 421.2 1382.7 420.6 1381 421.6 1380.4 423.3L1367.7 461.9 1358.5 444 1363.9 426.9C1364.6 425.3 1364.1 423.6 1362.4 423.5 1360.8 422.8 1359 423.9 1358.4 425L1355 436.6 1348.4 423.3C1347.3 422.2 1345.7 421.5 1344 422 1343.4 422.5 1342.8 423.6 1342.7 424.7 1342.7 425.3 1342.7 425.3 1343.2 425.9L1349.8 439.1 1338.2 435.7C1336.6 435.1 1335.4 436.1 1334.8 437.2 1334.8 437.8 1334.8 437.8 1334.7 438.3 1334.7 439.4 1335.2 440.6 1336.3 441.2L1353.4 446.6 1362.5 464.4 1323.9 451.8C1322.3 451.7 1320.6 452.2 1320.5 453.9 1319.9 454.4 1319.9 454.4 1319.9 454.9 1319.8 456.1 1320.9 457.2 1321.9 457.9L1366.6 471.9 1372.2 483.4 1357 507.3 1344.1 506.7 1312.8 472C1311.7 470.8 1309.5 470.7 1308.3 471.7S1307 475 1308.1 476.2L1335.7 506.2 1315.6 505.2 1303.4 492.2C1302.3 491.1 1300.6 491 1299.4 492 1298.3 493.1 1298.2 494.8 1299.2 495.9L1307.2 504.8 1292.1 504C1291 503.9 1289.2 505 1289.2 506.6 1289.1 508.3 1290.7 510.1 1291.8 510.1L1306.9 510.9 1298.1 518.9C1297.5 519.4 1296.9 519.9 1296.9 520.5 1296.8 521.6 1297.3 522.2 1297.9 522.8 1298.9 524 1300.6 524 1301.8 523L1315.3 511.3 1335.4 512.4 1304.9 539.4C1304.3 539.9 1304.2 540.5 1304.2 541.6 1304.2 542.2 1304.1 542.7 1304.7 543.3 1305.7 544.5 1308 544.6 1309.1 543.6L1343.8 512.8 1356.7 513.5 1369.4 538.2 1362.6 549.7 1316.7 559.1C1315.6 559.6 1314.4 560.6 1314.4 561.8 1314.3 562.3 1314.3 562.3 1314.9 562.4 1314.8 564 1316.4 565.2 1318.1 564.8L1357.8 556.1 1346.8 573.5 1329.3 577.1C1328.1 577.6 1327.5 578.7 1327.5 579.8 1327.5 579.8 1327.4 580.4 1327.4 580.4 1327.3 582.1 1329 583.3 1330.7 582.8L1342.6 580 1334.7 592.5C1334.1 593.1 1334 593.6 1334 594.2 1334 595.3 1334.5 596.4 1335 596.5 1336.6 597.7 1338.3 597.2 1339.5 596.1L1347.4 583.6 1349.7 595C1350.1 596.7 1351.8 597.9 1353.5 597.4 1354.6 596.9 1355.8 595.3 1355.3 594.1L1351.7 576.6 1362.7 559.8 1371.3 599.5C1371.8 601.2 1373.4 601.8 1375.1 601.9 1376.3 601.4 1377.5 599.8 1377 598.1ZM1399.7 537L1377.9 535.9 1374.6 535.7 1373 532.8 1363.4 513.8 1361.9 510.4 1363.7 507.7 1375.3 489.8 1377.1 487 1380.4 487.2 1402.2 488.3 1405.6 488.5 1407.1 491.4 1416.8 510.4 1418.3 513.3 1416.5 516.5 1404.9 534.5 1403.1 537.2 1399.7 537Z" fill="rgba(195, 235, 234, 0.95)"></path><path d="M158.1 501.9L171 471.3 198.5 460.4 194.2 489.7 167.5 509.3C167.5 509.3 167.2 509.6 167.2 509.6 166.7 510.2 166.9 511.4 167.2 512.2 167.9 513.2 169.4 513.4 170.1 512.4L193.5 495.2 191.4 509.4 181.2 517.1C181.2 517.1 180.9 517.4 180.9 517.4 180.5 518 180.6 519.2 181 520 181.7 521 183.1 521.2 183.8 520.2L190.9 515.1 189.3 525.6C189.1 526.4 190.1 527.7 191 527.9 192.2 528.4 193.2 527.1 193.4 526.2L195 515.8 200.1 522.9C200.8 523.9 202.2 524.1 203 523.1 204 522.4 204.1 521 203.2 520.2L195.5 510 197.8 496.1 215.1 519.4C215.8 520.5 217.2 520.6 217.9 519.7 219 519 219.1 517.5 218.2 516.8L198.6 490 202.8 460.8 226.4 479.4 230.2 512.5C230.3 513.7 231.3 514.4 232.4 514.3 233.5 514.2 234.3 513.2 234.1 512.1L230.8 482.9 242 491.8 243.5 504.2C243.6 505.3 244.5 506 245.7 505.9 246.8 505.8 247.5 504.8 247.4 503.7L246.4 495.3 255.2 502.2C255.9 503.3 257.3 502.8 258 501.9 258.8 501 258.6 499.8 257.7 499.1L249.5 492.6 258 491.7C259.1 491.5 259.8 490.6 259.7 489.5S258.6 487.6 257.5 487.7L245.2 489.2 233.9 480.2 263.1 476.8C264.2 476.7 264.9 475.8 264.8 474.6 264.7 473.5 263.7 472.8 262.6 472.9L229.5 476.8 206.3 458.4 233.8 447.5 263.4 460.3C264.6 460.7 265.7 460 266.4 459.1 266.9 457.9 266.2 456.8 265.2 456.1L238.6 444.7 251.9 439.4 263.6 444.6C264.8 445 265.9 444.3 266.6 443.4 267 442.2 266.3 441.1 265.7 440.6L257.6 437.3 267.4 433.3C268.2 433 269.2 431.7 268.5 430.6 267.8 429.6 266.9 428.8 265.8 429.5L256.1 433.5 259.4 425.4C259.8 424.2 259.1 423.2 258.5 422.7 257.6 422.5 256.5 422.6 256 423.3 256 423.3 255.8 423.6 255.8 423.6L250.6 435.3 237.2 440.5 248.6 413.9C249.1 412.7 248.4 411.6 247.8 411.1 246.9 410.9 245.8 411.1 245.3 411.7 245.3 411.7 245 412 245 412L232 442.6 204.6 453.5 208.8 424.2 235.6 404.6C236.7 403.9 236.8 402.4 235.8 401.7 235.1 400.6 233.7 400.5 233 401.5L209.6 418.7 211.7 404.5 221.9 396.8C222.9 396.1 223.1 394.6 222.1 393.9 221.4 392.8 220 392.7 219.2 393.7L212.1 398.8 213.8 388.3C214 387.4 213 386.1 212.1 385.9 211.2 385.8 210.4 386.1 209.9 386.8 209.7 387.1 209.4 387.4 209.5 388L207.8 398.4 202.7 391.3C202 390.2 200.6 390.1 199.9 391.1 199.9 391.1 199.6 391.4 199.6 391.4 199.1 392 199.2 393.1 199.6 393.9L207.4 404.1 205.3 418.3 188.1 395C187.4 393.9 185.9 393.8 185.2 394.8 185.2 394.8 185 395.1 185 395.1 184.5 395.7 184.6 396.8 185 397.6L204.6 424.4 200.3 453.7 177.1 435.3 173.2 402.1C173.1 401 172.2 400.3 171 400.4 169.9 400.5 169.2 401.5 169.3 402.6L172.4 431.6 161.1 422.6 159.7 410.3C159.5 409.1 158.6 408.4 157.5 408.5S155.6 409.6 155.7 410.7L156.7 419.1 148.6 412.7C147.6 411.9 146.5 412.1 145.8 413 145 414 145.1 415.1 146.1 415.8L154.2 422.3 145.8 423.3C145.2 423.3 144.7 423.4 144.2 424S143.8 425.2 143.8 425.8C143.9 426.9 144.9 427.6 146 427.5L158.4 426.1 169.7 435 140.4 438.4C139.9 438.5 139.3 438.5 138.8 439.2 138.6 439.5 138.4 440.4 138.5 440.9 138.6 442 139.5 442.8 140.7 442.7L173.8 438.8 197 457.2 169.5 468.1 139 455.1C138.1 454.9 137 455 136.5 455.7 136.5 455.7 136.2 456 136.2 456 135.8 457.2 136.5 458.2 137.1 458.7L163.8 470.2 150.4 475.4 138.7 470.2C137.9 470 136.7 470.2 136.2 470.8 136.2 470.8 136 471.1 136 471.1 135.6 472.3 136.2 473.4 136.9 473.8L145 477.2 135.2 481.2C134.9 481.5 134.4 481.5 134.1 481.9 133.6 482.5 133.4 483.4 133.8 484.2 134.5 485.2 135.4 486 136.5 485.3L146.3 481.3 143 489.4C142.5 490.6 143.2 491.6 143.8 492.1 145 492.5 146.1 491.9 146.6 491.2L151.8 479.5 165.1 474.3 153.7 500.9C153.3 502.1 154 503.2 154.6 503.7 156.3 503.5 157.6 503 158.1 501.9Z" fill="rgba(195, 235, 234, 0.95)"></path><path d="M671.2 285.9L676.1 294.6 669.4 294.8C668.7 294.7 667.9 295.4 667.7 296.4 667.9 297.3 668.6 298 669.3 298.1L678.2 298.1 682.7 306.2 664.6 306.1C663.5 306.2 662.7 306.8 663 307.7 662.8 308.7 663.4 309.5 664.6 309.4L684.5 309.5 688.8 316.8 679 333.7 671.5 333.8 661.2 315.2C660.9 315 660.6 314.9 660.4 314.7 660.1 314.6 659.4 314.5 658.9 314.6 657.9 315.1 657.7 316.1 658.4 316.9L667.8 333.8 658.6 333.7 653.5 325.2C653.7 324.9 653.4 324.7 653.1 324.6 652.6 324.3 651.9 324.2 651.3 324.6 650.7 325 650.5 326 650.7 326.9L654.9 333.7 643.4 333.7C642.7 333.7 641.9 334.3 641.7 335.3 641.9 336.2 642.6 337 643.3 337L654.1 337 650.7 342.8C650.2 343.6 650.7 344.7 651.3 345 652.1 345.5 653.3 345.4 653.8 344.6L658.1 337.1 667.3 337.2 658.3 352.7C657.8 353.6 658 354.4 658.8 354.9 659.7 355.4 660.5 355.2 661 354.3L671 337.2 678.9 337 688.6 354.1 684.9 360.4 664.5 360.4C663.5 360.2 662.6 361.2 662.8 362 662.6 363 663.5 363.5 664.4 363.7L682.9 363.7 678.3 371.8 669.1 371.6C668.4 371.6 667.5 372.5 667.4 373.2S668.3 374.9 669.3 375.1L676.3 375.1 670.7 384.8C670.2 385.6 670.7 386.6 671.6 387.1 672.1 387.4 673.3 387.4 673.8 386.5L679.4 376.9 683.2 383.1C683.5 383.7 684.4 384.2 685.4 383.7 686 383.3 686.4 382 686 381.4L681.3 373.5 686 365.5 695.2 381.6C695.8 382.3 696.7 382.8 697.7 382.3 698.3 381.9 698.7 380.7 698.3 380.1L687.9 362.2 691.6 355.8 711.3 355.8 715 362.8 705 379.9C704.5 380.7 704.8 381.6 705.6 382.1 706.4 382.6 707.6 382.5 708.1 381.7L717.1 366.2 721.7 374.1 717.4 381.5C716.9 382.4 717.1 383.2 718 383.7 718.8 384.2 719.7 384 720.1 383.2L723.5 377.3 728.8 386.7C729.2 387.3 730.5 387.7 731.1 387.3 731.8 386.6 732.3 385.8 731.6 385L726.2 375.2 734 375.3C734.9 375 735.6 374.4 735.7 373.7 735.7 372.9 735.3 372.4 734.8 372 734.8 372 734.5 371.9 734 372L724.2 371.8 719.5 363.9 738.9 363.7C739.9 363.9 740.6 363.2 740.5 362.1 740.4 361.6 740.3 361.2 739.8 360.9 739.5 360.7 739.2 360.6 738.9 360.4L717.7 360.6 714.1 354.1 723.9 337.2 732.4 337.3 742.3 354.6C742.8 355.6 743.8 355.8 744.6 355.2 745.4 354.9 745.7 353.9 745.1 352.9L736.1 337.3 745.4 337.1 749.8 344.9C750.2 345.5 751.2 345.7 752.1 345.4 752.8 344.8 753.3 343.9 752.6 343.2L749.4 337.2 759.5 337.2C760.5 337.4 760.9 336.5 761.1 335.5 761 335.1 760.6 334.5 760.1 334.2 760.1 334.2 759.8 334 759.5 333.9L748.8 333.9 752.8 327C753.1 326.4 753 325.3 752.2 324.8 751.4 324.3 750.4 324.8 750 325.4L745 334 735.7 334.1 745.5 317.2C746 316.4 745.5 315.3 744.7 314.9S743 314.6 742.5 315.4L731.7 334 724 333.9 714.3 316.8 718.5 309.6 739.1 309.8C740 309.6 740.7 308.9 741 307.9 740.8 307.5 740.4 306.9 739.9 306.5 739.6 306.4 739.3 306.2 738.9 306.3L720.4 306.3 725.1 298.3 734.4 298.2C735.1 298.2 735.9 297.5 736.1 296.5 735.8 295.7 735.2 294.9 734.5 294.9L727 295 732.1 286.1C732.5 285.6 732.1 284.2 731.6 283.9 730.7 283.4 729.4 283.8 729.1 284.3L724 293.2 720.6 286.8C720.3 286.7 720.1 286.5 719.8 286.3 719.2 286 718.5 286 718.1 286.1 717.3 286.8 717.1 287.8 717.4 288.6L722 296.5 717.4 304.5 708.2 288.5C707.7 287.4 706.7 287.2 706.1 287.6 705.1 288.1 704.9 289.1 705.1 290L715.4 307.9 711.2 315.1 691.6 315.1 687.7 308.4 698.5 289.9C699 289 698.7 288.2 697.9 287.7 697.1 287.2 696.2 287.4 695.7 288.3L685.9 305.1 681.4 297 686.4 288.4C686.7 287.8 686.4 286.5 685.5 286 684.7 285.6 683.7 286.1 683.4 286.6L679.3 293.5 674 284.2C673.8 284 673.8 284 673.5 283.9 672.9 283.5 672.2 283.5 671.8 283.6 671 284.3 670.8 285.3 671.2 285.9ZM709.3 318.4L711.5 318.5 712.4 320.1 720.2 334 721.1 335.6 720.2 337.3 712.3 350.8 711.3 352.5 709.5 352.5 693.5 352.5 691.7 352.5 690.5 350.7 682.9 337.1 681.7 335.3 682.7 333.6 690.6 320.1 691.5 318.4 693.7 318.5 709.3 318.4Z" fill="rgba(195, 235, 234, 0.95)"></path><path d="M1393.8 175.1L1382.2 170.3 1388.7 164.9C1389.4 164.4 1389.7 163.2 1389.1 162 1388.2 161.3 1386.9 161.1 1386.2 161.6L1377.5 168.5 1366.7 164 1384.6 150.1C1385.6 149.2 1385.8 147.9 1384.9 147.3 1384.4 146.1 1383.1 145.9 1382.1 146.9L1362.4 162.2 1352.6 158.4 1349.1 134.2 1356.4 128.3 1380.9 138.6C1381.3 138.5 1381.7 138.4 1382.1 138.4 1382.4 138.3 1383.2 137.8 1383.5 137.4 1384.1 136.1 1383.6 134.9 1382.3 134.7L1360 125.4 1369.1 118.4 1380.6 122.8C1380.7 123.2 1381.1 123.2 1381.5 123.1 1382.3 123 1383 122.5 1383.3 121.6 1383.6 120.8 1383 119.7 1382.1 119L1372.7 115.5 1383.9 106.6C1384.7 106.1 1384.9 104.8 1384.3 103.7 1383.4 103 1382.2 102.8 1381.5 103.3L1370.9 111.7 1369.7 103.4C1369.6 102.2 1368.3 101.6 1367.5 101.7 1366.3 101.9 1365.2 102.8 1365.4 104L1366.9 114.7 1357.8 121.7 1354.6 99.5C1354.5 98.3 1353.6 97.6 1352.4 97.8 1351.2 98 1350.5 98.9 1350.7 100.1L1354.2 124.6 1346.6 130.9 1323.9 121.7 1322.6 112.6 1342.5 96.8C1343.7 96.2 1343.8 94.6 1342.9 93.9 1342.4 92.8 1341.2 92.9 1340 93.5L1321.9 107.8 1320.2 96.3 1329.3 89.4C1330.1 88.9 1330.2 87.2 1329.7 86.5S1327.6 85.6 1326.5 86.2L1319.6 91.6 1317.6 77.7C1317.4 76.6 1316.1 75.9 1314.9 76.1 1314.1 76.2 1313 77.2 1313.2 78.4L1315.2 92.2 1306.7 89C1305.8 88.7 1304.6 88.9 1304 90.2 1303.7 91 1304.3 92.6 1305.2 92.9L1315.9 97 1317.5 108.5 1296.1 99.8C1294.8 99.6 1293.7 99.8 1293 101.1 1292.8 101.9 1293.4 103.4 1294.2 103.7L1318.2 113.2 1319.5 122.3 1300.3 137.6 1291.3 133.7 1287.7 109.1C1287.6 107.9 1286.6 107.2 1285.5 107.4 1284.3 107.6 1283.2 108.5 1283.4 109.7L1286.6 131.9 1275.9 127.8 1274.3 117.1C1274.2 115.9 1273.2 115.2 1272.1 115.4 1270.9 115.6 1270.2 116.5 1270.4 117.7L1271.6 126 1259.1 120.9C1258.3 120.6 1256.7 121.2 1256.5 122.1 1256.2 123.3 1256.4 124.5 1257.6 124.7L1270.5 130.2 1262.9 136.1C1262.2 137 1262 138.3 1262.5 139 1263 139.7 1263.9 140 1264.7 139.9 1264.7 139.9 1265.1 139.8 1265.4 139.4L1275.2 131.9 1285.9 136 1267.1 151.3C1266 151.8 1265.8 153.1 1266.7 154.2 1267.2 154.5 1267.6 154.8 1268.4 154.7 1268.8 154.7 1269.2 154.6 1269.6 154.5L1290.2 137.8 1298.8 141.5 1302.3 165.6 1293.9 172.1 1270.8 162.9C1269.5 162.2 1268.4 162.8 1268.1 164 1267.5 165 1268 166.1 1269.3 166.7L1290.3 175 1281.3 182.4 1271 178.2C1270.1 177.9 1269 178.5 1268.3 179.4 1268.1 180.6 1268.3 181.8 1269.5 182L1277.3 185.4 1267.5 193.2C1266.4 193.8 1266.5 195 1267.1 196.1 1267.6 196.5 1268.4 196.7 1269.2 196.6 1269.2 196.6 1269.6 196.6 1270 196.5L1280.5 188.1 1281.9 198C1282 198.8 1283 199.9 1284.2 199.7 1285.4 199.6 1286 198.3 1285.9 197.5L1284.1 185.2 1293.2 177.8 1296.6 202C1296.8 203.2 1298.1 203.8 1299.3 203.6S1301.2 202.5 1301 201.4L1297.2 174.8 1304.8 168.9 1327.6 178.1 1329 188.4 1308.7 204.3C1308 205.2 1307.8 206.4 1308.3 207.6 1308.8 207.9 1309.6 208.2 1310.4 208.1 1310.8 208 1311.2 208 1311.6 207.5L1329.7 193.2 1331.4 204.7 1322.3 212C1321.6 212.5 1321.4 213.8 1321.9 214.9 1322.8 215.6 1324.1 215.8 1324.8 215.3L1332 209.4 1333.9 222.1C1334 222.9 1335.3 223.9 1336.1 223.8 1337.3 223.6 1338.3 222.3 1338.2 221.5L1336.4 208.8 1344.6 212.5C1345 212.4 1345.4 212.3 1345.8 212.3 1346.6 212.2 1347.3 211.7 1347.7 211.2 1347.9 210 1347.3 208.8 1346.4 208.2L1335.7 204 1334.1 192.6 1355.5 201.2C1356.8 201.8 1358 201.2 1358.2 200.4 1358.9 199.1 1358.3 198 1357.4 197.3L1333.4 187.8 1331.9 177.5 1351.1 162.2 1360.1 165.8 1363.9 192.3C1364.1 193.5 1365 194.2 1366.2 194 1367.4 193.8 1368.1 192.9 1367.9 191.7L1364.4 167.6 1375.2 172.1 1376.9 184.4C1377.1 185.2 1378.4 186.2 1379.6 186 1380.8 185.8 1381.4 184.5 1381.3 183.7L1379.9 173.9 1392.3 178.9C1392.7 178.9 1392.7 178.9 1393.1 178.8 1393.9 178.7 1394.6 178.2 1395 177.7 1395.2 176.5 1394.6 175.4 1393.8 175.1ZM1331.2 172.8L1329 174.3 1326.9 173.4 1308.4 165.9 1306.3 165 1305.9 162.7 1303.1 143.3 1302.8 140.9 1304.6 139.4 1320.2 127.1 1322 125.6 1324.6 126.4 1342.6 133.9 1345.2 134.8 1345.5 137.2 1348.3 156.6 1348.6 158.9 1346.4 160.5 1331.2 172.8Z" fill="rgba(195, 235, 234, 0.95)"></path></g><defs><mask id="SvgjsMask1016"><rect width="1440" height="560" fill="#ffffff"></rect></mask><filter id="SvgjsFilter1017"><feGaussianBlur stdDeviation="1"></feGaussianBlur></filter></defs></svg>