<svg xmlns="http://www.w3.org/2000/svg" version="1.1" xmlns:xlink="http://www.w3.org/1999/xlink" xmlns:svgjs="http://svgjs.com/svgjs" width="1440" height="560" preserveAspectRatio="none" viewBox="0 0 1440 560"><g mask="url(&quot;#SvgjsMask1008&quot;)" fill="none"><path d="M 0,183 C 57.6,160.8 172.8,74.2 288,72 C 403.2,69.8 460.8,172.2 576,172 C 691.2,171.8 748.8,64.2 864,71 C 979.2,77.8 1036.8,201.2 1152,206 C 1267.2,210.8 1382.4,117.2 1440,95L1440 560L0 560z" fill="rgba(24, 74, 126, 0.42)"></path><path d="M 0,437 C 96,422.6 288,354.6 480,365 C 672,375.4 768,487.6 960,489 C 1152,490.4 1344,395.4 1440,372L1440 560L0 560z" fill="rgba(34, 100, 171, 0.57)"></path></g><defs><mask id="SvgjsMask1008"><rect width="1440" height="560" fill="#ffffff"></rect></mask></defs></svg>