<svg xmlns="http://www.w3.org/2000/svg" version="1.1" xmlns:xlink="http://www.w3.org/1999/xlink" xmlns:svgjs="http://svgjs.com/svgjs" width="1440" height="560" preserveAspectRatio="none" viewBox="0 0 1440 560"><g mask="url(&quot;#SvgjsMask1001&quot;)" fill="none"><path d="M 0,250 C 57.6,213 172.8,71.4 288,65 C 403.2,58.6 460.8,213.8 576,218 C 691.2,222.2 748.8,90 864,86 C 979.2,82 1036.8,189 1152,198 C 1267.2,207 1382.4,144.4 1440,131L1440 560L0 560z" fill="#184a7e"></path><path d="M 0,425 C 96,413.4 288,362 480,367 C 672,372 768,455.6 960,450 C 1152,444.4 1344,361.2 1440,339L1440 560L0 560z" fill="#2264ab"></path></g><defs><mask id="SvgjsMask1001"><rect width="1440" height="560" fill="#ffffff"></rect></mask></defs></svg>