<?xml version="1.0" encoding="utf-8"?>
<svg viewBox="210.591 214.794 72 70" xmlns="http://www.w3.org/2000/svg">
  <defs>
    <radialGradient gradientUnits="userSpaceOnUse" cx="128.331" cy="426.037" r="49.985" id="gradient-0" gradientTransform="matrix(0.700206, 0, 0, 0.685584, 155.733198, -42.289692)">
      <stop offset="0" style="stop-color: rgba(160, 147, 147, 1)"/>
      <stop offset="1" style="stop-color: rgba(109, 96, 96, 1)"/>
    </radialGradient>
  </defs>
  <ellipse style="stroke: url(#gradient-0); stroke-width: 0px; fill: rgb(230, 230, 230); visibility: hidden;" cx="245.591" cy="249.794" rx="35" ry="35"/>
  <g>
    <path style="fill: rgb(24, 91, 130);" d="M 274.264 274.924 C 274.077 274.439 273.561 274.108 272.974 274.112 L 272.92 274.112 C 264.102 274.112 255.556 271.352 248.847 266.344 L 245.927 263.911 C 239.395 257.849 235.798 249.923 235.798 241.586 C 235.798 232.083 240.525 223.083 248.767 216.89 C 249.211 216.557 249.362 216.008 249.14 215.532 C 248.917 215.06 248.376 214.762 247.792 214.797 C 227.39 215.991 211.408 230.967 211.408 248.893 C 211.408 267.733 228.912 283.065 250.423 283.065 C 258.927 283.065 267.007 280.71 273.791 276.255 C 274.258 275.947 274.449 275.413 274.264 274.924 Z"/>
    <path style="fill: rgb(253, 186, 33);" d="M 267.687 236.563 C 267.609 236.339 267.392 236.173 267.133 236.138 L 261.023 235.319 L 258.289 230.235 C 258.175 230.018 257.936 229.882 257.67 229.882 C 257.413 229.882 257.168 230.018 257.059 230.235 L 254.326 235.319 L 248.216 236.138 C 247.955 236.173 247.742 236.339 247.655 236.563 C 247.579 236.794 247.645 237.046 247.834 237.215 L 252.256 241.172 L 251.207 246.764 C 251.167 246.995 251.269 247.238 251.484 247.38 C 251.697 247.525 251.979 247.541 252.212 247.433 L 257.67 244.788 L 263.137 247.433 C 263.24 247.477 263.348 247.504 263.461 247.504 C 263.603 247.504 263.744 247.461 263.869 247.38 C 264.078 247.238 264.178 246.995 264.138 246.764 L 263.093 241.172 L 267.518 237.215 C 267.703 237.046 267.77 236.794 267.687 236.563 Z"/>
    <circle style="fill: rgb(255, 195, 0);" cx="252.994" cy="259.445" r="1.5" transform="matrix(2.00982, 0, 0, 1.762134, -248.709061, -196.34021)"/>
    <path style="fill: rgb(35, 31, 32); visibility: hidden;" d="M 247.184 248.474 L 247.624 245.787 L 245.756 243.885 C 245.7 243.828 245.67 243.75 245.669 243.671 L 244.632 243.829 C 244.523 243.845 244.432 243.925 244.397 244.035 C 244.363 244.145 244.392 244.266 244.471 244.347 L 246.339 246.249 L 245.898 248.936 C 245.88 249.05 245.924 249.165 246.014 249.233 C 246.104 249.301 246.222 249.31 246.32 249.256 L 247.263 248.738 C 247.198 248.669 247.168 248.571 247.184 248.474 Z"/>
    <circle style="fill: rgb(255, 195, 0);" cx="260.271" cy="254.671" r="1" transform="matrix(2.00982, 0, 0, 1.762134, -250.774139, -199.498276)"/>
  </g>
</svg>