<svg width="70" height="70" viewBox="0 0 70 70" fill="none" xmlns="http://www.w3.org/2000/svg">
<path d="M35 0C15.67 0 0 15.67 0 35C0 54.33 15.67 70 35 70C54.33 70 70 54.33 70 35C70 15.67 54.33 0 35 0ZM35 46.0526C28.8958 46.0526 23.9474 41.1042 23.9474 35C23.9474 28.8958 28.8958 23.9474 35 23.9474C41.1042 23.9474 46.0526 28.8958 46.0526 35C46.0526 41.1042 41.1042 46.0526 35 46.0526Z" fill="#D8D8DA"/>
<path d="M38.6842 25.7896H68.7727C66.3209 16.779 60.3623 9.21405 52.4508 4.65448L31.3159 25.7896H38.6842Z" fill="#D4B6E6"/>
<path d="M31.3159 25.7895L52.4507 4.65445C47.314 1.69395 41.355 0 35 0C31.8119 0 28.7248 0.428613 25.7896 1.22746V31.3158L31.3159 25.7895Z" fill="#D578AC"/>
<path d="M25.7895 31.3159V1.22748C16.779 3.67912 9.21404 9.63773 4.6546 17.5492L25.7894 38.6843L25.7895 31.3159Z" fill="#F5355D"/>
<path d="M25.7896 31.3159L31.3159 25.7897H38.6842V25.7896H31.3159L25.7896 31.3159Z" fill="#D8D8DA"/>
<path d="M31.3159 44.2104L25.7896 38.6842L31.3159 44.2105H38.6842L44.2105 38.6842L38.6842 44.2104H31.3159Z" fill="#D8D8DA"/>
<path d="M68.7728 25.7896H38.6841V25.7897H38.8151L44.2105 31.3159L65.3454 52.4508C68.3062 47.314 70 41.355 70 35C70 31.8119 69.5714 28.7245 68.7728 25.7896Z" fill="#47BCFF"/>
<path d="M44.2104 38.6842V68.7726C53.2209 66.3209 60.786 60.362 65.3453 52.4508L44.2104 31.3159V38.6842Z" fill="#7BF2E2"/>
<path d="M38.6842 44.2105L17.5494 65.3455C22.686 68.306 28.6451 70 35 70C38.1882 70 41.2753 69.5714 44.2105 68.7727V38.6841L38.6842 44.2105Z" fill="#33A867"/>
<path d="M31.3158 44.2104H1.22717C3.67909 53.221 9.6377 60.786 17.5492 65.3455L38.6843 44.2104H31.3158Z" fill="#FDEA86"/>
<path d="M25.7895 38.6841L4.65459 17.5492C1.69381 22.686 0 28.645 0 35C0 38.1881 0.428613 41.2755 1.22719 44.2104H31.3157L25.7895 38.6841Z" fill="#FDBA21"/>
<path d="M38.8151 25.7897H38.6841L44.2105 31.3158L38.8151 25.7897Z" fill="#D8D8DA"/>
<path d="M68.7728 25.7896C66.3209 16.779 60.3623 9.21405 52.4508 4.65448L35 22.1053V25.7894H38.6842H68.7728V25.7896Z" fill="#B05EE0"/>
<path d="M52.4506 4.65445C47.314 1.69395 41.355 0 35 0V22.1052L52.4506 4.65445Z" fill="#F74DA9"/>
<path d="M35 47.8948V70C38.1881 70 41.2753 69.5714 44.2105 68.7727V38.6841L38.6842 44.2105L35 47.8948Z" fill="#6DDE8A"/>
<path d="M38.6842 44.2104H35V47.8947L38.6842 44.2104Z" fill="#F6E27D"/>
</svg>
