<?xml version="1.0" encoding="iso-8859-1"?>
<!-- Generator: Adobe Illustrator 19.0.0, SVG Export Plug-In . SVG Version: 6.00 Build 0)  -->
<svg version="1.1" id="Layer_1" xmlns="http://www.w3.org/2000/svg" xmlns:xlink="http://www.w3.org/1999/xlink" x="0px" y="0px"
	 viewBox="0 0 512 512" style="enable-background:new 0 0 512 512;" xml:space="preserve">
<path style="fill:#FFDA79;" d="M462.02,421.044H206.547c-8.936,0-16.18-7.244-16.18-16.18v-59.771h-76.954v59.771
	c0,8.936-7.244,16.18-16.18,16.18H49.979c-8.936,0-16.18-7.244-16.18-16.18V130.761c0-21.95,17.857-39.808,39.808-39.808h364.786
	c21.95,0,39.807,17.857,39.807,39.808v274.103C478.2,413.8,470.956,421.044,462.02,421.044z"/>
<path style="fill:#FFD155;" d="M438.392,90.954H256v330.091h206.02c8.936,0,16.18-7.244,16.18-16.18V130.761
	C478.2,108.811,460.342,90.954,438.392,90.954z"/>
<path style="fill:#20B8AE;" d="M414.764,373.789H206.547c-8.936,0-16.18-7.244-16.18-16.18v-12.516H97.235
	c-8.936,0-16.18-7.244-16.18-16.18V154.389c0-8.936,7.244-16.18,16.18-16.18h317.53c8.936,0,16.18,7.244,16.18,16.18v203.22
	C430.944,366.545,423.7,373.789,414.764,373.789z"/>
<path style="fill:#6A82A1;" d="M206.547,421.044H97.235c-8.936,0-16.18-7.244-16.18-16.18v-75.95c0-8.936,7.244-16.18,16.18-16.18
	h109.313c8.936,0,16.18,7.244,16.18,16.18v75.95C222.727,413.8,215.483,421.044,206.547,421.044z"/>
<path style="fill:#FFC72D;" d="M495.82,421.047H16.18c-8.936,0-16.18-7.244-16.18-16.18c0-8.936,7.244-16.18,16.18-16.18h479.64
	c8.936,0,16.18,7.244,16.18,16.18C512,413.803,504.756,421.047,495.82,421.047z"/>
<path style="fill:#1DA49C;" d="M414.764,138.209H256v235.58h158.766c8.936,0,16.18-7.244,16.18-16.18v-203.22
	C430.944,145.452,423.7,138.209,414.764,138.209z"/>
<path style="fill:#FFBE00;" d="M495.82,388.687H256v32.36h239.82c8.936,0,16.18-7.244,16.18-16.18
	C512,395.932,504.756,388.687,495.82,388.687z"/>
<g>
</g>
<g>
</g>
<g>
</g>
<g>
</g>
<g>
</g>
<g>
</g>
<g>
</g>
<g>
</g>
<g>
</g>
<g>
</g>
<g>
</g>
<g>
</g>
<g>
</g>
<g>
</g>
<g>
</g>
</svg>
