<?xml version="1.0" encoding="utf-8"?>
<svg viewBox="210.591 214.794 72 70" xmlns="http://www.w3.org/2000/svg">
  <defs>
    <radialGradient gradientUnits="userSpaceOnUse" cx="128.331" cy="426.037" r="49.985" id="gradient-0" gradientTransform="matrix(0.700206, 0, 0, 0.685584, 155.733198, -42.289692)">
      <stop offset="0" style="stop-color: rgba(160, 147, 147, 1)"/>
      <stop offset="1" style="stop-color: rgba(109, 96, 96, 1)"/>
    </radialGradient>
  </defs>
  <ellipse style="stroke: url(#gradient-0); stroke-width: 0px; fill: rgb(230, 230, 230); visibility: hidden;" cx="245.591" cy="249.794" rx="35" ry="35"/>
  <g>
    <path style="fill: rgb(35, 31, 32); visibility: hidden;" d="M 247.184 248.474 L 247.624 245.787 L 245.756 243.885 C 245.7 243.828 245.67 243.75 245.669 243.671 L 244.632 243.829 C 244.523 243.845 244.432 243.925 244.397 244.035 C 244.363 244.145 244.392 244.266 244.471 244.347 L 246.339 246.249 L 245.898 248.936 C 245.88 249.05 245.924 249.165 246.014 249.233 C 246.104 249.301 246.222 249.31 246.32 249.256 L 247.263 248.738 C 247.198 248.669 247.168 248.571 247.184 248.474 Z"/>
    <g transform="matrix(0.44831, 0, 0, 0.447596, 210.47937, 214.793991)">
      <path style="fill:#FDD633;" d="M140.796,92.339l14.956-12.837l0.39-0.336l-0.39-0.334l-14.604-12.536 c-2.146-2.287-2.559-4.183-1.79-7.121l6.53-18.594l0.172-0.487l-0.505-0.094l-18.959-3.563c-2.94-0.728-4.426-2.378-5.058-5.213 l-3.651-19.418l-0.093-0.506l-0.483,0.169l-18.19,6.39c-2.94,0.607-4.755,0.607-7.365-2.062L78.531,0.39L78.195,0l-0.334,0.39 L64.634,15.798c-1.702,1.843-3.353,2.669-6.025,1.608l-19.15-6.727l-0.484-0.17l-0.095,0.505l-3.75,19.95 c-0.332,2.271-0.746,3.591-4.153,4.135l-19.419,3.65l-0.506,0.095l0.172,0.484l6.379,18.161c1.6,4.128,0.692,4.705-1.993,7.045 L0.638,77.385l-0.389,0.335l0.389,0.334l14.594,12.529c1.908,1.81,2.815,3.543,1.792,7.155L10.5,116.307l-0.17,0.484l0.504,0.095 l18.906,3.554c3.406,0.666,4.479,2.48,5.124,5.288l3.637,19.354l0.096,0.506l0.485-0.173l18.108-6.36 c3.102-0.788,5.082-0.376,7.131,2.016l12.816,14.929l0.336,0.391l0.335-0.391l12.503-14.565c1.827-1.849,3.808-2.921,7.205-1.811 l18.54,6.515l0.489,0.17l0.091-0.506l3.553-18.895c0.661-3.163,1.898-4.235,5.29-5.133l19.354-3.636l0.505-0.098l-0.169-0.484 l-6.371-18.132C137.764,96.271,138.095,94.456,140.796,92.339z M78.196,131.94c-29.54,0-53.487-23.947-53.487-53.486 c0-29.541,23.947-53.488,53.487-53.488c0.825,0,1.645,0.025,2.46,0.062l0,0c28.396,1.287,51.027,24.711,51.027,53.426 C131.684,107.994,107.736,131.94,78.196,131.94z"/>
      <path style="fill:#F2AB0C;" d="M80.657,25.028v106.85c-0.816,0.038-1.635,0.063-2.46,0.063c29.54,0,53.488-23.947,53.488-53.486 C131.684,49.739,109.053,26.315,80.657,25.028z"/>
      <path style="fill:#F4940B;" d="M80.657,25.028L80.657,25.028c-0.816-0.037-1.635-0.062-2.46-0.062 c-29.54,0-53.487,23.947-53.487,53.488c0,29.54,23.947,53.486,53.487,53.486c0.825,0,1.645-0.025,2.46-0.063V25.028z"/>
    </g>
    <g transform="matrix(0.44831, 0, 0, 0.447596, 169.773331, 187.113235)"/>
    <g transform="matrix(0.44831, 0, 0, 0.447596, 169.773331, 187.113235)"/>
    <g transform="matrix(0.44831, 0, 0, 0.447596, 169.773331, 187.113235)"/>
    <g transform="matrix(0.44831, 0, 0, 0.447596, 169.773331, 187.113235)"/>
    <g transform="matrix(0.44831, 0, 0, 0.447596, 169.773331, 187.113235)"/>
    <g transform="matrix(0.44831, 0, 0, 0.447596, 169.773331, 187.113235)"/>
    <g transform="matrix(0.44831, 0, 0, 0.447596, 169.773331, 187.113235)"/>
    <g transform="matrix(0.44831, 0, 0, 0.447596, 169.773331, 187.113235)"/>
    <g transform="matrix(0.44831, 0, 0, 0.447596, 169.773331, 187.113235)"/>
    <g transform="matrix(0.44831, 0, 0, 0.447596, 169.773331, 187.113235)"/>
    <g transform="matrix(0.44831, 0, 0, 0.447596, 169.773331, 187.113235)"/>
    <g transform="matrix(0.44831, 0, 0, 0.447596, 169.773331, 187.113235)"/>
    <g transform="matrix(0.44831, 0, 0, 0.447596, 169.773331, 187.113235)"/>
    <g transform="matrix(0.44831, 0, 0, 0.447596, 169.773331, 187.113235)"/>
    <g transform="matrix(0.44831, 0, 0, 0.447596, 169.773331, 187.113235)"/>
  </g>
</svg>